{"glyphs":{"0":{"ha":683,"x_min":-42,"x_max":697,"o":"m 675 1029 q 696 858 697 961 q 651 557 694 744 q 536 194 601 340 q 425 11 488 82 q 300 -81 367 -56 q 113 -53 199 -121 q 29 56 65 -14 q -31 371 -42 196 q 75 825 -15 613 q 99 874 82 843 q 133 901 113 899 q 163 928 150 904 q 249 1068 206 1013 q 343 1164 296 1128 q 440 1211 390 1200 q 596 1169 529 1232 q 675 1029 646 1122 m 550 604 q 588 869 585 763 q 581 957 589 914 q 532 1078 568 1031 q 449 1100 500 1119 q 388 1058 419 1089 q 286 928 332 1007 q 157 631 204 785 q 131 393 113 483 q 131 375 132 386 q 103 336 126 342 q 81 322 85 332 q 79 292 76 311 q 80 279 79 288 q 81 267 81 271 q 158 56 96 136 q 288 33 213 -12 q 371 117 331 60 q 450 267 413 176 q 550 604 506 406 z "},"1":{"ha":307,"x_min":67,"x_max":239,"o":"m 74 -151 q 72 292 67 -15 q 117 982 74 472 q 124 1079 121 1033 q 119 1128 126 1114 q 118 1163 114 1139 q 131 1243 126 1221 q 176 1286 139 1283 q 231 1251 214 1289 q 238 1208 236 1236 q 228 1011 239 1139 q 181 -87 169 360 q 185 -167 182 -143 q 183 -190 186 -179 q 165 -222 179 -210 q 133 -235 151 -233 q 101 -225 115 -235 q 81 -197 86 -215 q 74 -151 75 -183 z "},"2":{"ha":681,"x_min":0,"x_max":750,"o":"m 176 151 q 168 128 167 135 q 200 138 175 128 q 533 251 411 222 q 689 263 631 275 q 715 254 706 258 q 744 204 749 239 q 706 161 740 169 q 674 158 688 158 q 485 125 599 161 q 200 21 392 97 q 122 -4 151 0 q 52 15 79 -12 q 32 86 25 42 q 63 168 38 118 q 256 493 136 315 q 323 592 272 518 q 401 707 374 667 q 519 940 490 843 q 535 1035 538 996 q 530 1064 535 1054 q 515 1078 525 1074 q 488 1082 506 1082 q 417 1074 454 1083 q 133 929 279 1035 q 117 901 121 919 q 92 866 111 876 q 46 864 72 856 q 12 891 22 871 q 8 935 1 911 q 54 993 18 961 q 275 1138 154 1085 q 454 1190 375 1182 q 456 1190 456 1190 q 458 1190 457 1190 q 599 1151 549 1200 q 644 1011 650 1103 q 589 818 638 922 q 457 594 544 722 q 244 274 296 361 q 176 151 224 238 z "},"3":{"ha":760,"x_min":-42,"x_max":779,"o":"m 383 732 q 386 726 385 729 q 454 736 450 736 q 617 733 550 747 q 708 690 671 721 q 761 549 778 633 q 720 454 751 504 q 628 336 689 404 q 338 21 557 256 q 213 -119 261 -61 q 179 -153 194 -140 q 119 -156 150 -178 q 103 -97 89 -133 q 133 -46 111 -74 q 211 44 182 14 q 356 199 240 75 q 533 393 472 324 q 619 500 593 460 q 650 554 642 531 q 652 590 657 576 q 626 614 647 603 q 546 632 596 631 q 375 611 485 635 q 344 604 364 608 q 318 599 324 600 q 274 594 294 593 q 227 622 244 597 q 218 676 210 647 q 251 736 225 700 q 305 809 267 757 q 364 890 343 861 q 436 1007 410 954 q 453 1053 453 1039 q 431 1057 447 1060 q 350 1032 393 1050 q 114 881 222 978 q 83 849 108 876 q 76 836 76 842 q 87 828 79 832 q 94 824 94 825 q 115 769 125 803 q 98 744 111 754 q 68 736 85 735 q -12 775 18 739 q -25 864 -42 811 q -11 894 -21 879 q 17 932 6 919 q 401 1161 176 1103 q 481 1165 442 1172 q 543 1131 521 1158 q 565 1064 565 1104 q 536 964 565 1022 q 413 772 501 894 q 398 752 407 765 q 383 732 389 739 z "},"4":{"ha":638,"x_min":17,"x_max":675,"o":"m 554 596 q 547 546 554 593 q 590 567 588 567 q 651 553 629 583 q 647 489 674 522 q 571 438 618 451 q 544 424 554 432 q 528 403 533 415 q 522 374 524 390 q 501 26 499 119 q 526 -101 504 -60 q 515 -158 543 -132 q 458 -167 492 -182 q 413 -114 426 -153 q 394 -19 399 -75 q 404 288 388 100 q 413 376 404 292 q 390 376 407 381 q 210 340 285 350 q 117 342 154 332 q 47 383 72 351 q 19 460 21 414 q 42 575 18 508 q 143 803 68 647 q 274 1060 228 976 q 279 1106 288 1085 q 300 1172 264 1142 q 364 1183 329 1199 q 401 1126 399 1169 q 390 1069 403 1103 q 311 899 375 1028 q 161 583 186 643 q 131 485 135 521 q 133 451 126 458 q 167 446 140 444 q 242 454 194 446 q 406 493 313 468 q 433 525 429 500 q 539 1019 482 839 q 544 1050 539 1021 q 564 1099 550 1079 q 615 1119 582 1126 q 653 1078 647 1113 q 649 1035 656 1060 q 554 596 592 815 z "},"5":{"ha":665,"x_min":-22,"x_max":768,"o":"m 164 889 q 172 922 172 914 q 113 908 115 908 q 47 943 63 900 q 74 1013 31 986 q 153 1033 118 1039 q 174 1035 164 1032 q 199 1044 185 1038 q 218 1053 213 1051 q 228 1060 225 1056 q 233 1075 231 1065 q 238 1088 236 1085 q 261 1144 238 1088 q 285 1178 269 1167 q 335 1185 310 1196 q 364 1140 361 1172 q 353 1103 364 1121 q 358 1098 356 1099 q 363 1098 361 1097 q 369 1100 365 1099 q 374 1101 372 1101 q 668 1169 547 1150 q 715 1172 697 1174 q 758 1139 749 1169 q 743 1088 768 1110 q 678 1061 721 1068 q 335 976 557 1042 q 296 939 306 968 q 192 585 219 710 q 190 561 188 568 q 226 575 226 575 q 404 604 322 611 q 543 542 488 597 q 607 403 599 488 q 567 203 617 304 q 472 68 533 133 q 253 -122 371 -39 q 167 -168 201 -158 q 79 -140 108 -185 q 65 -89 65 -119 q 78 -39 64 -58 q 111 -19 90 -22 q 149 -32 132 -17 q 154 -37 151 -33 q 160 -44 157 -42 q 167 -46 163 -47 q 189 -35 174 -46 q 399 149 308 50 q 497 336 482 240 q 494 411 503 378 q 393 496 475 490 q 282 479 343 500 q 181 432 236 464 q 161 400 160 421 q 167 360 164 371 q 154 301 178 324 q 97 293 129 278 q 60 297 90 296 q -3 328 14 299 q 0 399 -21 358 q 44 458 14 428 q 61 490 58 472 q 164 889 88 651 z "},"6":{"ha":707,"x_min":-40,"x_max":682,"o":"m 128 -61 q 92 1 121 -53 q 90 -7 90 -3 q 91 -15 90 -11 q 92 -22 92 -19 q 63 -73 93 -60 q 6 -60 32 -86 q -24 -1 -15 -37 q -15 146 -40 60 q 46 286 3 208 q 58 328 56 304 q 236 924 97 632 q 360 1107 285 1026 q 388 1132 376 1125 q 432 1143 408 1147 q 467 1119 456 1139 q 472 1072 479 1100 q 444 1036 465 1044 q 399 992 421 1026 q 272 735 331 886 q 211 544 236 639 q 210 521 207 528 q 215 524 213 522 q 220 527 218 525 q 224 531 222 529 q 228 535 226 533 q 232 539 231 538 q 422 668 326 632 q 489 685 457 682 q 628 619 578 693 q 676 451 674 553 q 576 99 681 279 q 388 -93 504 -26 q 314 -126 346 -117 q 128 -61 197 -161 m 193 321 q 163 228 154 265 q 204 19 167 93 q 244 -23 222 -15 q 303 -15 267 -31 q 317 -8 310 -12 q 453 108 403 39 q 554 325 524 207 q 564 483 575 410 q 543 551 558 524 q 520 574 532 569 q 488 575 508 579 q 456 565 475 572 q 351 501 406 546 q 193 321 281 443 z "},"7":{"ha":717,"x_min":-76,"x_max":776,"o":"m 258 214 q 300 425 272 306 q 150 383 222 408 q 140 376 144 381 q 131 368 136 372 q 122 362 126 364 q 113 358 118 360 q 103 355 107 356 q 92 354 99 354 q 81 353 85 354 q 70 353 78 353 q 60 353 63 353 q 19 383 31 353 q 29 433 8 411 q 68 458 39 444 q 310 539 174 508 q 343 567 335 544 q 543 1010 425 815 q 547 1021 544 1010 q 486 1013 533 1021 q 36 932 344 988 q -17 928 6 926 q -50 941 -36 928 q -68 974 -64 954 q -42 1028 -75 1007 q 18 1038 -8 1047 q 49 1038 31 1033 q 589 1139 211 1079 q 608 1142 601 1140 q 665 1167 644 1142 q 726 1181 689 1193 q 765 1129 753 1171 q 758 1064 776 1088 q 713 1042 742 1044 q 679 1022 692 1040 q 463 583 550 828 q 461 568 458 574 q 494 568 465 567 q 547 564 528 569 q 588 521 583 556 q 556 469 592 485 q 503 460 538 463 q 483 457 494 458 q 461 455 472 456 q 440 453 450 454 q 415 432 419 451 q 353 57 357 206 q 353 26 353 38 q 359 -1 354 14 q 374 -29 364 -17 q 372 -79 392 -51 q 325 -101 356 -104 q 260 -50 279 -97 q 244 43 244 -15 q 258 214 243 108 z "},"8":{"ha":664,"x_min":-14,"x_max":660,"o":"m 524 -3 q 342 -37 453 -36 q 221 -24 278 -37 q 44 100 101 7 q 14 313 -14 193 q 146 553 44 443 q 175 578 156 564 q 190 593 189 589 q 185 614 192 597 q 233 989 88 817 q 511 1150 347 1125 q 564 1147 535 1153 q 629 1112 604 1140 q 657 1042 654 1083 q 639 935 660 997 q 609 851 625 893 q 568 749 593 810 q 535 667 543 688 q 465 479 483 535 q 481 417 453 442 q 581 306 543 363 q 626 143 635 225 q 524 -3 615 42 m 228 89 q 347 71 278 71 q 461 89 415 72 q 515 192 535 115 q 496 238 510 215 q 449 296 478 265 q 406 339 435 310 q 360 385 378 368 q 320 428 343 403 q 279 475 297 453 q 276 478 278 476 q 275 481 275 479 q 260 482 268 489 q 221 472 243 469 q 200 461 210 474 q 117 271 132 358 q 121 192 110 228 q 159 129 132 156 q 228 89 186 103 m 271 686 q 365 543 294 628 q 375 554 372 546 q 483 828 386 586 q 543 992 531 946 q 543 1038 553 1029 q 496 1036 533 1047 q 293 889 367 999 q 271 686 231 794 z "},"9":{"ha":682,"x_min":-1,"x_max":678,"o":"m 540 485 q 511 836 557 675 q 494 774 494 775 q 425 563 460 642 q 374 471 403 508 q 273 403 331 415 q 154 425 215 390 q 13 651 31 496 q 51 864 0 758 q 351 1157 149 1065 q 410 1176 369 1165 q 437 1181 422 1181 q 462 1179 451 1181 q 488 1176 472 1178 q 513 1172 504 1174 q 558 1121 546 1168 q 592 994 561 1113 q 647 717 638 817 q 576 174 676 410 q 551 124 565 149 q 185 -61 432 -83 q 100 -39 135 -56 q 40 25 57 -17 q 38 111 22 67 q 92 150 51 153 q 138 103 131 147 l 138 100 l 138 99 q 149 60 140 68 q 188 49 157 53 q 285 50 235 43 q 419 124 364 60 q 489 244 460 169 q 540 485 531 354 m 161 842 q 118 689 121 768 q 144 585 118 633 q 215 517 172 535 q 282 532 254 500 q 325 604 304 558 q 383 782 353 668 q 436 1035 424 926 q 424 1072 439 1063 q 417 1074 422 1075 q 410 1072 411 1072 q 403 1067 408 1071 q 396 1064 397 1064 q 161 842 239 981 z "},"\u0000":{"ha":0,"x_min":0,"x_max":0,"o":""},"\n":{"ha":0,"x_min":0,"x_max":0,"o":""},"\r":{"ha":0,"x_min":0,"x_max":0,"o":""}," ":{"ha":344,"x_min":0,"x_max":0,"o":""},"!":{"ha":200,"x_min":6,"x_max":199,"o":"m 175 1350 q 190 1292 193 1329 q 163 1040 181 1140 q 122 421 106 715 q 139 263 129 314 q 142 222 144 239 q 107 179 138 190 q 51 197 74 168 q 35 238 40 211 q 17 364 22 285 q 10 568 8 494 q 50 1021 6 746 q 59 1082 54 1049 q 68 1142 64 1115 q 77 1204 72 1169 q 86 1265 82 1239 q 88 1306 90 1292 q 90 1333 85 1317 q 126 1367 99 1363 q 175 1350 156 1372 m 128 71 q 163 53 147 68 q 183 15 178 38 q 157 -89 199 -44 q 97 -112 131 -117 q 46 -71 64 -107 q 35 -21 33 -47 q 43 25 33 3 q 128 71 65 76 z "},"\"":{"ha":358,"x_min":64,"x_max":293,"o":"m 160 1396 q 178 1358 183 1389 q 168 1314 176 1347 q 161 1282 168 1313 q 133 1181 151 1229 q 129 1169 131 1172 q 89 1151 114 1142 q 71 1192 64 1161 q 76 1210 72 1199 q 117 1354 97 1268 q 122 1374 119 1367 q 160 1396 135 1404 m 269 1396 q 288 1363 292 1389 q 282 1326 288 1354 q 275 1299 281 1324 q 254 1214 269 1254 q 250 1204 251 1207 q 211 1191 236 1181 q 192 1226 186 1201 q 196 1242 192 1232 q 229 1363 214 1290 q 233 1379 231 1374 q 269 1396 244 1404 z "},"#":{"ha":915,"x_min":8,"x_max":910,"o":"m 839 853 q 878 847 861 856 q 901 823 894 839 q 904 788 908 807 q 863 747 897 756 q 767 728 851 744 q 739 724 750 725 q 707 714 710 718 q 697 682 704 710 q 683 610 697 678 q 710 610 696 608 q 740 614 724 611 q 763 618 756 617 q 776 620 765 618 q 794 622 788 622 q 844 588 832 624 q 825 529 856 553 q 771 508 807 514 q 683 497 703 499 q 653 469 657 493 q 639 401 649 447 q 623 318 629 354 q 614 249 617 282 q 611 232 614 242 q 563 188 601 189 q 510 228 524 186 q 507 275 504 249 q 538 450 511 311 q 542 472 538 451 q 508 469 525 472 q 469 463 490 467 q 439 458 449 460 q 384 449 419 456 q 331 440 349 443 q 310 419 311 438 q 305 383 308 408 q 301 347 301 358 q 298 310 300 336 q 299 274 296 285 q 287 231 300 247 q 250 211 274 214 q 211 223 228 208 q 190 263 194 238 q 194 378 186 303 q 194 419 199 415 q 156 418 190 422 q 93 415 117 413 q 56 435 69 419 q 46 471 43 450 q 101 514 50 514 q 201 528 117 515 q 221 544 218 529 q 240 640 222 554 q 215 643 235 646 q 78 628 179 640 q 36 635 53 625 q 10 678 8 650 q 40 721 11 710 q 64 726 49 725 q 240 754 204 749 q 275 786 269 757 q 297 870 281 810 q 319 965 314 931 q 324 983 319 974 q 375 1011 339 1015 q 415 972 408 1006 q 414 922 419 950 q 388 803 408 899 q 386 782 385 788 q 407 779 392 776 q 486 792 417 781 q 592 808 556 803 q 618 832 615 813 q 625 869 619 839 q 630 906 631 900 q 628 943 629 913 q 635 983 625 967 q 665 1003 646 1000 q 691 1001 678 1006 q 714 987 704 997 q 728 963 724 976 q 732 904 735 940 q 726 839 732 900 q 733 835 729 836 q 740 833 738 833 q 747 835 742 833 q 754 836 753 836 q 794 844 764 838 q 839 853 824 850 m 568 599 q 588 697 586 683 q 473 679 546 690 q 369 664 400 668 q 356 653 357 663 q 335 554 336 561 q 379 560 342 554 q 546 585 428 567 q 568 599 567 589 z "},"$":{"ha":651,"x_min":7,"x_max":643,"o":"m 579 1164 q 642 1038 643 1114 q 635 1004 642 1019 q 585 976 619 971 q 546 1015 551 982 q 544 1025 544 1021 q 527 1074 542 1057 q 482 1099 513 1090 q 463 1088 465 1103 q 450 1013 454 1038 q 403 719 411 768 q 422 676 399 693 q 557 547 511 615 q 593 350 619 451 q 410 178 558 219 q 357 169 379 169 q 336 149 338 171 q 339 40 335 65 q 342 13 342 25 q 314 -33 343 -19 q 258 -25 283 -47 q 229 46 232 -1 q 229 174 225 99 q 207 213 231 199 q 65 328 122 260 q 11 446 21 385 q 14 501 7 481 q 56 536 25 532 q 104 510 89 540 q 114 476 111 493 q 140 412 121 442 q 182 363 160 382 q 240 319 204 344 q 260 474 258 464 q 278 607 272 574 q 254 661 283 643 q 147 756 192 699 q 89 875 101 811 q 125 1047 71 969 q 347 1204 210 1169 q 379 1242 376 1211 q 392 1321 382 1265 q 408 1356 394 1343 q 442 1367 422 1368 q 474 1352 461 1365 q 489 1317 486 1339 q 488 1294 489 1310 q 481 1229 482 1243 q 499 1204 476 1208 q 579 1164 543 1193 m 297 765 q 327 931 306 793 q 349 1089 349 1068 q 340 1089 340 1089 q 213 983 258 1053 q 196 896 188 944 q 246 808 204 851 q 297 765 275 778 m 482 456 q 457 499 474 478 q 424 535 440 521 q 382 571 408 550 q 378 549 379 550 q 351 328 360 396 q 355 280 347 286 q 404 290 363 274 q 426 300 415 294 q 485 367 469 325 q 482 456 500 408 z "},"%":{"ha":622,"x_min":7,"x_max":619,"o":"m 608 1397 q 606 1339 618 1372 q 549 1183 561 1215 q 225 196 382 778 q 183 -6 197 96 q 174 -46 179 -31 q 128 -76 163 -76 q 83 -43 94 -75 q 76 4 76 -25 q 104 164 82 68 q 279 764 158 385 q 485 1307 376 1068 q 503 1366 501 1343 q 526 1413 504 1389 q 572 1428 546 1433 q 608 1397 597 1424 m 178 1026 q 75 1089 106 1026 q 44 1116 64 1111 q 16 1138 25 1121 q 11 1175 7 1154 q 40 1235 17 1206 q 242 1365 122 1333 q 349 1350 306 1382 q 394 1251 392 1318 q 331 1097 397 1167 q 178 1026 264 1028 m 203 1232 q 164 1167 168 1215 q 169 1142 164 1149 q 185 1136 174 1135 q 254 1174 224 1143 q 285 1244 285 1206 q 280 1259 283 1256 q 265 1260 276 1263 q 245 1252 256 1257 q 222 1241 235 1247 q 203 1232 210 1235 m 449 274 q 526 189 521 258 q 449 -11 536 68 q 335 -46 397 -57 q 270 -10 296 -40 q 240 64 244 21 q 239 93 240 65 q 279 231 242 169 q 347 265 306 274 q 374 269 354 264 q 449 274 419 281 m 382 75 q 418 154 411 103 q 407 165 417 164 q 365 140 386 163 q 344 99 344 118 q 344 89 344 90 q 354 64 346 68 q 382 75 365 60 z "},"&":{"ha":794,"x_min":1,"x_max":796,"o":"m 713 622 q 769 616 744 640 q 779 558 794 592 q 728 494 765 532 q 543 322 639 407 q 538 318 540 321 q 533 315 535 315 q 517 296 517 300 q 531 276 517 292 q 633 163 585 207 q 679 132 658 140 q 709 96 706 122 q 692 51 713 69 q 613 51 656 22 q 519 129 572 79 q 440 214 475 171 q 413 217 429 229 q 306 142 357 172 q 197 93 244 104 q 111 99 151 83 q 44 154 71 115 q 12 303 3 218 q 67 482 21 389 q 156 628 108 565 q 163 682 174 653 q 128 865 129 778 q 386 1315 122 1163 q 625 1383 506 1383 q 656 1379 653 1379 q 743 1327 713 1369 q 764 1226 774 1285 q 725 1125 756 1176 q 628 992 689 1063 q 418 768 574 929 q 311 653 361 710 q 307 617 297 636 q 438 400 354 522 q 464 399 449 385 q 635 556 556 478 q 686 604 664 583 q 713 622 700 615 m 361 1165 q 268 1040 300 1113 q 236 897 236 968 q 257 756 236 826 q 319 822 317 819 q 536 1051 492 1003 q 622 1165 590 1114 q 654 1233 647 1206 q 652 1264 658 1256 q 624 1272 646 1272 q 571 1269 596 1274 q 361 1165 453 1244 m 346 303 q 360 317 360 313 q 351 335 360 321 q 233 522 279 438 q 221 532 228 532 q 125 328 144 414 q 121 260 118 293 q 131 224 122 240 q 179 201 146 193 q 239 228 203 207 q 346 303 282 254 z "},"'":{"ha":129,"x_min":4,"x_max":124,"o":"m 100 1396 q 118 1358 124 1389 q 108 1314 117 1349 q 101 1282 108 1313 q 74 1181 92 1229 q 69 1169 71 1172 q 29 1151 54 1142 q 11 1192 4 1161 q 17 1210 13 1199 q 57 1354 38 1268 q 63 1374 60 1367 q 100 1396 75 1404 z "},"(":{"ha":344,"x_min":8,"x_max":340,"o":"m 333 1411 q 296 1358 339 1372 q 271 1333 282 1354 q 201 1153 236 1268 q 142 818 163 1021 q 121 397 114 558 q 171 47 128 206 q 221 -65 189 -21 q 218 -144 256 -114 q 140 -133 182 -174 q 93 -60 115 -110 q 40 129 63 11 q 10 510 8 307 q 76 1104 26 879 q 183 1383 114 1269 q 224 1439 206 1422 q 281 1461 250 1463 q 316 1444 301 1458 q 333 1411 331 1431 z "},")":{"ha":275,"x_min":1,"x_max":267,"o":"m 258 968 q 265 772 260 953 q 235 326 264 482 q 156 -1 214 215 q 122 -122 151 -18 q 97 -167 115 -151 q 33 -176 65 -196 q 11 -118 3 -157 q 28 -54 17 -96 q 44 1 40 -12 q 131 364 113 261 q 154 646 151 483 q 140 1081 158 897 q 100 1282 129 1182 q 38 1400 76 1357 q 35 1463 8 1431 q 97 1474 60 1492 q 129 1444 111 1467 q 222 1244 189 1371 q 258 968 249 1140 z "},"*":{"ha":508,"x_min":6,"x_max":511,"o":"m 493 1303 q 476 1239 511 1267 q 439 1218 467 1231 q 347 1176 418 1208 q 357 1161 351 1168 q 372 1145 363 1154 q 383 1135 381 1136 q 408 1110 389 1129 q 438 1079 428 1090 q 456 1038 456 1060 q 440 1000 456 1015 q 361 1004 404 965 q 343 1021 353 1011 q 323 1041 333 1031 q 306 1058 313 1051 q 299 1065 304 1060 q 289 1074 293 1071 q 279 1079 285 1076 q 258 989 260 1018 q 259 977 258 986 q 260 967 260 968 q 231 926 256 938 q 181 929 206 914 q 149 1003 143 953 q 161 1067 150 1007 q 164 1090 165 1086 q 143 1085 154 1089 q 120 1076 132 1081 q 100 1068 108 1071 q 68 1058 72 1060 q 11 1093 22 1056 q 15 1128 7 1113 q 44 1153 24 1144 q 144 1197 89 1169 q 174 1213 146 1197 q 153 1240 167 1221 q 130 1271 140 1258 q 107 1293 119 1283 q 94 1347 81 1315 q 114 1370 100 1363 q 144 1376 128 1378 q 190 1353 172 1374 q 210 1330 196 1346 q 233 1304 225 1314 q 254 1364 240 1315 q 258 1381 256 1369 q 263 1397 261 1392 q 285 1426 269 1417 q 318 1433 300 1436 q 347 1415 336 1429 q 358 1381 358 1400 q 350 1338 357 1372 q 343 1300 350 1335 q 367 1306 349 1297 q 433 1331 424 1329 q 493 1303 476 1340 z "},"+":{"ha":475,"x_min":7,"x_max":471,"o":"m 465 697 q 447 650 469 669 q 399 628 429 635 q 304 610 329 614 q 281 583 282 606 q 290 414 278 472 q 293 386 293 401 q 258 340 292 350 q 201 356 225 329 q 179 417 186 375 q 172 542 171 457 q 172 569 172 567 q 168 584 172 581 q 154 586 164 588 q 94 581 149 585 q 54 582 71 578 q 20 603 32 588 q 10 638 8 618 q 27 669 13 657 q 64 681 42 682 q 153 690 88 679 q 177 697 174 693 q 183 721 181 701 q 193 851 193 826 q 197 882 193 871 q 240 917 208 915 q 289 883 278 918 q 296 813 301 840 q 292 783 293 800 q 291 751 290 765 q 290 719 292 738 q 347 728 311 721 q 389 736 382 736 q 429 736 414 740 q 465 697 460 726 z "},",":{"ha":186,"x_min":6,"x_max":178,"o":"m 139 129 q 160 118 151 126 q 174 97 169 110 q 175 69 178 85 q 160 -10 169 26 q 117 -153 150 -42 q 111 -168 114 -164 q 85 -196 103 -187 q 47 -199 68 -204 q 10 -136 7 -187 q 18 -106 18 -107 q 35 -57 25 -86 q 52 -7 44 -28 q 68 40 60 14 q 81 90 76 67 q 103 124 86 113 q 139 129 119 135 z "},"-":{"ha":438,"x_min":7,"x_max":435,"o":"m 394 672 q 427 638 421 663 q 415 592 433 613 q 363 567 396 569 q 75 533 247 560 q 67 533 74 533 q 28 544 43 533 q 10 574 14 554 q 17 608 7 593 q 50 629 28 624 q 163 651 65 633 q 354 676 264 669 q 394 672 381 678 z "},".":{"ha":182,"x_min":4,"x_max":174,"o":"m 163 156 q 172 104 174 133 q 131 22 171 54 q 56 11 96 -7 q 10 74 14 29 q 54 179 6 136 q 114 194 82 201 q 163 156 146 188 z "},"/":{"ha":496,"x_min":7,"x_max":490,"o":"m 475 1456 q 486 1399 489 1433 q 443 1206 478 1324 q 204 268 308 744 q 124 -182 142 -24 q 119 -278 119 -221 q 119 -312 121 -308 q 81 -362 117 -354 q 25 -331 44 -369 q 14 -292 15 -312 q 11 -229 8 -247 q 71 160 21 -85 q 339 1232 186 722 q 356 1289 344 1251 q 372 1346 367 1326 q 383 1419 386 1393 q 389 1447 382 1431 q 428 1479 399 1475 q 475 1456 458 1483 z "},":":{"ha":235,"x_min":8,"x_max":226,"o":"m 146 664 q 202 628 179 657 q 225 565 225 599 q 187 486 225 519 q 103 460 149 453 q 47 494 68 464 q 32 560 26 524 q 115 661 42 626 q 146 664 128 668 m 29 125 q 83 168 49 161 q 149 146 118 175 q 181 51 194 106 q 107 -26 165 -11 q 70 -28 88 -33 q 40 -12 53 -24 q 18 19 26 0 q 10 60 10 38 q 29 125 8 89 z "},";":{"ha":215,"x_min":4,"x_max":214,"o":"m 36 119 q 101 146 63 151 q 157 103 140 140 q 181 33 175 64 q 185 -44 186 3 q 178 -119 183 -86 q 149 -171 171 -154 q 88 -175 118 -194 q 67 -118 56 -154 q 82 -44 72 -103 q 67 -24 85 -28 q 19 11 33 -14 q 13 69 6 36 q 36 119 18 99 m 135 469 q 69 469 99 454 q 31 524 39 485 q 31 564 28 542 q 76 647 39 607 q 125 668 97 668 q 174 652 153 668 q 201 610 194 636 q 194 528 214 569 q 135 469 174 486 z "},"<":{"ha":643,"x_min":7,"x_max":647,"o":"m 611 188 q 628 124 646 160 q 567 97 610 89 q 515 119 553 100 q 157 274 322 221 q 82 303 139 279 q 40 331 60 313 q 10 389 13 357 q 32 450 8 421 q 93 504 50 472 q 361 676 193 581 q 503 757 389 693 q 531 769 522 768 q 586 753 565 782 q 583 694 606 724 q 554 669 572 681 q 263 489 319 526 q 161 421 239 475 q 139 399 143 407 q 200 374 156 388 q 578 210 372 319 q 611 188 600 199 z "},"=":{"ha":703,"x_min":-7,"x_max":693,"o":"m 664 294 q 693 250 693 281 q 664 206 693 219 q 613 197 644 194 q 572 201 600 199 q 528 204 543 203 q 129 197 338 215 q 76 189 115 196 q 19 217 33 182 q 39 276 4 251 q 83 292 53 286 q 410 317 257 322 q 625 304 531 317 q 664 294 650 301 m 131 408 q 94 392 111 406 q 57 381 78 378 q 22 400 36 383 q 24 468 -6 432 q 64 493 36 483 q 265 528 153 524 q 553 515 400 533 q 593 508 571 514 q 632 489 615 503 q 649 431 661 464 q 590 397 635 394 q 499 413 546 408 q 196 417 308 426 q 131 408 172 414 z "},">":{"ha":663,"x_min":0,"x_max":656,"o":"m 624 476 q 653 413 656 450 q 615 354 651 376 q 406 207 540 308 q 290 113 338 156 q 214 26 240 68 q 182 -8 199 3 q 126 -12 154 -29 q 104 36 101 4 q 124 85 107 57 q 197 174 149 129 q 490 396 324 292 q 499 401 493 397 q 509 407 506 404 q 515 414 513 410 q 488 432 513 418 q 167 567 390 485 q 51 611 149 572 q 35 619 42 615 q 13 676 1 642 q 33 702 18 693 q 67 710 49 711 q 82 706 74 708 q 222 658 122 690 q 374 604 322 626 q 576 507 479 561 q 624 476 608 490 z "},"?":{"ha":622,"x_min":3,"x_max":621,"o":"m 593 1304 q 608 1132 619 1232 q 494 819 592 983 q 463 768 485 803 q 431 715 442 733 q 349 375 339 561 q 368 290 351 322 q 374 249 379 268 q 351 218 369 229 q 313 211 333 207 q 278 235 293 215 q 243 340 250 269 q 239 415 242 346 q 353 797 238 610 q 456 982 432 925 q 501 1160 494 1075 q 492 1265 507 1219 q 428 1317 476 1313 q 385 1317 404 1318 q 211 1236 290 1310 q 121 1071 132 1163 q 163 897 110 990 q 183 881 165 892 q 204 817 224 856 q 178 788 196 796 q 140 786 160 779 q 100 815 117 793 q 26 949 49 881 q 13 1093 3 1018 q 71 1238 24 1168 q 378 1425 182 1401 q 465 1421 419 1431 q 593 1304 560 1399 m 331 72 q 400 -15 411 65 q 363 -87 394 -58 q 288 -107 328 -121 q 242 -46 250 -93 q 242 -32 242 -43 q 257 42 240 7 q 315 75 274 78 q 319 74 317 75 q 325 73 322 74 q 331 72 328 72 z "},"@":{"ha":771,"x_min":-25,"x_max":785,"o":"m 758 779 q 632 401 783 556 q 576 361 607 376 q 484 353 526 336 q 422 421 442 369 q 415 447 422 422 q 371 407 374 408 q 307 369 339 378 q 244 375 272 360 q 204 424 217 390 q 203 519 192 465 q 332 754 233 658 q 433 813 378 800 q 489 811 463 819 q 571 757 521 801 q 579 682 601 731 q 526 517 543 610 q 524 463 521 492 q 533 463 529 463 q 540 466 536 464 q 545 469 543 468 q 551 475 547 471 q 556 481 556 479 q 649 657 628 549 q 650 769 657 703 q 567 903 643 838 q 418 961 490 968 q 319 932 363 956 q 172 775 225 881 q 129 446 96 619 q 226 300 147 350 q 333 250 288 261 q 425 258 390 238 q 433 263 428 260 q 490 249 468 274 q 492 188 514 219 q 421 140 469 153 q 310 144 372 129 q 111 254 197 172 q 19 438 40 321 q 119 896 -24 692 q 364 1063 215 1032 q 561 1038 468 1085 q 699 922 640 996 q 758 779 749 858 m 314 507 q 392 595 342 524 q 460 713 443 667 q 369 631 415 697 q 314 507 322 565 z "},"A":{"ha":761,"x_min":-44,"x_max":778,"o":"m 751 -160 q 757 -221 778 -187 q 697 -242 738 -253 q 644 -201 667 -235 q 601 -107 621 -167 q 546 175 568 3 q 526 439 529 318 q 523 460 526 457 q 500 461 519 463 q 264 408 388 450 q 229 376 238 399 q 174 207 186 251 q 172 185 169 189 q 189 174 174 181 q 256 160 228 157 q 279 156 268 160 q 297 142 290 151 q 306 121 303 133 q 276 68 313 86 q 193 67 246 54 q 154 78 181 69 q 140 71 143 82 q 129 19 133 38 q 120 -29 125 0 q 114 -82 115 -58 q 118 -100 113 -90 q 115 -145 128 -125 q 76 -171 101 -165 q 37 -162 56 -176 q 14 -124 18 -149 q 14 -78 13 -114 q 39 108 17 8 q 25 157 46 139 q -29 250 -18 194 q 15 394 -44 331 q 129 469 56 436 q 164 507 154 481 q 451 1040 261 750 q 473 1072 458 1051 q 494 1101 488 1092 q 514 1126 504 1114 q 542 1152 524 1138 q 564 1170 560 1167 q 593 1192 568 1174 q 637 1197 614 1207 q 665 1161 660 1188 q 665 1113 669 1149 q 633 607 636 871 q 634 597 633 606 q 633 588 635 589 q 651 564 632 567 q 681 554 665 563 q 708 506 713 539 q 667 464 703 471 q 662 464 665 464 q 657 464 658 464 q 638 458 640 461 q 635 438 635 454 q 647 257 643 300 q 703 -64 665 63 q 751 -160 722 -129 m 90 232 l 122 343 q 102 335 114 340 q 70 315 90 329 q 50 288 50 301 q 60 261 50 275 q 81 240 71 247 l 90 232 m 533 878 q 537 907 535 886 q 540 938 539 928 q 539 972 540 949 q 395 739 489 911 q 300 533 301 567 q 494 569 401 561 q 503 571 497 571 q 512 571 510 571 q 517 572 514 571 q 522 575 521 574 q 524 581 522 576 q 525 590 525 585 q 525 603 525 594 q 533 878 528 774 z "},"B":{"ha":817,"x_min":-181,"x_max":842,"o":"m 149 1146 q 151 1163 149 1146 q 99 1136 133 1157 q -39 1028 13 1083 q -52 1010 -50 1017 q -47 986 -54 1003 q -43 947 -35 967 q -74 921 -51 928 q -150 932 -121 906 q -169 1004 -181 958 q -140 1065 -162 1032 q -32 1178 -99 1128 q 381 1351 151 1317 q 531 1347 460 1364 q 549 1343 542 1346 q 672 1244 642 1317 q 658 1086 703 1172 q 586 985 633 1039 q 401 811 521 913 q 381 792 390 801 q 378 783 381 792 q 438 786 433 786 q 611 778 526 793 q 675 761 642 772 q 821 578 799 714 q 782 325 840 458 q 449 -103 674 81 q 393 -139 424 -124 q 347 -156 368 -151 q 290 -152 317 -161 q 247 -121 264 -143 q 226 -68 229 -99 q 235 13 222 -26 q 513 378 317 253 q 581 410 547 400 q 644 388 625 425 q 628 324 663 351 q 575 289 611 311 q 346 4 424 196 q 336 -42 335 -24 q 374 -24 349 -40 q 469 61 419 10 q 681 365 614 213 q 715 544 722 460 q 688 623 711 594 q 617 665 665 651 q 553 676 586 675 q 189 629 361 689 q 158 590 161 619 q 151 143 133 371 q 160 78 154 115 q 178 35 164 51 q 176 -25 201 4 q 149 -43 167 -37 q 115 -43 131 -49 q 68 4 83 -33 q 46 114 53 42 q 50 592 22 364 q 46 628 53 613 q 53 678 35 656 q 64 713 61 689 q 149 1146 106 986 m 203 882 q 188 786 189 800 q 206 792 196 785 q 450 1001 353 907 q 538 1099 506 1054 q 572 1161 564 1133 q 544 1229 586 1206 q 469 1247 514 1244 q 256 1208 371 1251 q 253 1203 256 1208 q 264 1174 264 1175 q 249 1100 281 1126 q 238 1075 242 1094 q 222 994 236 1068 q 203 882 208 921 z "},"C":{"ha":754,"x_min":8,"x_max":749,"o":"m 17 149 q 10 254 8 201 q 60 565 11 397 q 292 1103 143 853 q 417 1271 354 1207 q 510 1344 464 1321 q 624 1365 568 1375 q 675 1346 653 1361 q 710 1308 697 1331 q 726 1256 724 1285 q 715 1182 729 1218 q 661 1151 700 1143 q 624 1201 622 1160 q 625 1219 624 1207 q 628 1236 626 1231 q 599 1263 628 1265 q 560 1249 581 1261 q 474 1172 517 1224 q 338 964 407 1094 q 139 432 194 690 q 122 175 108 292 q 168 39 133 93 q 314 -7 222 -43 q 383 35 351 7 q 629 340 540 174 q 654 386 649 378 q 715 406 679 421 q 744 353 747 393 q 721 282 742 324 q 579 79 672 188 q 449 -51 510 -1 q 339 -114 394 -96 q 199 -117 265 -137 q 86 -33 132 -96 q 41 51 58 6 q 17 149 24 96 z "},"D":{"ha":882,"x_min":-94,"x_max":953,"o":"m 82 864 q 88 947 82 867 q 24 810 21 883 q 24 778 24 779 q -14 731 22 739 q -69 760 -53 722 q -78 879 -94 814 q 6 1028 -60 953 q 268 1233 101 1138 q 485 1317 381 1297 q 607 1324 553 1329 q 843 1168 757 1307 q 913 965 896 1085 q 836 413 953 697 q 410 -203 701 86 q 206 -367 307 -303 q 111 -417 151 -401 q 60 -426 81 -428 q 7 -403 26 -425 q 1 -340 -19 -372 q 60 -315 22 -306 q 86 -318 81 -321 q 115 -300 110 -310 q 115 -265 121 -290 q 88 -32 99 -186 q 82 864 63 311 m 213 -186 q 221 -219 215 -212 q 226 -218 226 -218 q 239 -210 233 -214 q 736 458 581 82 q 813 882 825 669 q 774 1068 807 990 q 676 1188 738 1153 q 524 1213 615 1224 q 511 1211 515 1211 q 214 1069 379 1186 q 204 1046 203 1063 q 208 1000 208 1026 q 194 956 208 974 q 193 938 194 954 q 183 553 183 583 q 213 -186 175 131 z "},"E":{"ha":935,"x_min":-97,"x_max":976,"o":"m 186 565 q 186 551 183 554 q 200 551 190 547 q 494 667 449 649 q 504 672 499 669 q 515 676 510 674 q 526 681 519 678 q 536 685 532 683 q 547 690 540 688 q 557 696 553 693 q 579 706 574 703 q 635 688 615 715 q 633 629 656 658 q 571 582 611 600 q 464 538 525 561 q 188 431 278 465 q 160 396 161 421 q 174 150 147 244 q 199 89 182 119 q 342 -3 246 3 q 706 72 532 -12 q 789 164 772 104 q 809 194 794 185 q 844 199 824 203 q 885 151 882 193 q 856 54 888 100 q 793 -3 832 24 q 610 -79 718 -51 q 335 -111 449 -122 q 81 86 150 -93 q 47 329 43 183 q 47 371 47 331 q 39 367 42 369 q 35 363 36 365 q 31 356 33 360 q 28 351 29 353 q -10 328 17 333 q -60 333 -37 322 q -87 393 -96 350 q -56 435 -82 418 q 43 486 -14 461 q 67 517 63 494 q 85 619 75 568 q 110 736 94 669 q 133 832 126 803 q 163 949 140 861 q 189 1049 186 1036 q 197 1085 190 1050 q 185 1081 193 1083 q 173 1076 176 1078 q 163 1072 169 1075 q 151 1065 156 1068 q 142 1058 147 1063 q 135 1049 138 1054 q 98 1027 121 1029 q 57 1039 75 1025 q 38 1075 40 1053 q 50 1115 36 1097 q 82 1142 60 1128 q 172 1189 113 1161 q 197 1203 194 1200 q 221 1300 176 1265 q 278 1315 249 1322 q 319 1275 307 1307 q 334 1250 329 1253 q 360 1253 339 1247 q 825 1335 613 1315 q 906 1339 858 1338 q 933 1338 921 1340 q 961 1322 950 1333 q 974 1294 972 1311 q 967 1265 975 1279 q 943 1244 958 1251 q 874 1229 917 1233 q 594 1193 701 1213 q 342 1136 456 1165 q 314 1110 318 1129 q 267 913 300 1040 q 221 731 233 785 q 186 565 213 696 z "},"F":{"ha":706,"x_min":-37,"x_max":919,"o":"m 90 419 q 90 444 93 440 q 64 433 82 446 q 44 424 56 426 q 21 422 32 421 q -1 428 10 424 q -18 442 -11 433 q -31 485 -36 461 q -1 519 -25 508 q 76 551 47 542 q 111 597 108 563 q 157 925 126 739 q 179 1057 158 932 q 179 1082 182 1075 q 101 1057 147 1075 q 50 1042 88 1051 q 17 1042 33 1038 q -25 1086 -22 1050 q 8 1136 -28 1122 q 31 1142 15 1139 q 53 1149 46 1146 q 194 1201 176 1196 q 214 1222 211 1207 q 222 1242 217 1232 q 258 1267 236 1264 q 297 1251 281 1269 q 340 1240 313 1235 q 669 1296 532 1283 q 842 1292 778 1304 q 888 1275 869 1286 q 910 1221 918 1254 q 864 1185 900 1188 q 839 1185 851 1183 q 606 1179 749 1199 q 324 1125 471 1160 q 294 1094 299 1119 q 226 647 250 831 q 226 618 224 626 q 236 616 235 617 q 246 619 238 615 q 256 622 254 622 q 496 676 390 667 q 539 676 525 679 q 582 633 579 668 q 550 582 586 597 q 493 567 526 571 q 228 499 390 556 q 206 472 208 492 q 189 -42 175 168 q 190 -62 189 -56 q 198 -78 192 -69 q 215 -89 204 -86 q 226 -100 219 -90 q 233 -147 239 -118 q 207 -193 228 -176 q 165 -208 189 -210 q 122 -190 140 -207 q 94 -139 104 -172 q 76 1 81 -86 q 90 419 69 179 z "},"G":{"ha":757,"x_min":0,"x_max":849,"o":"m 496 203 q 494 215 496 204 q 474 181 488 210 q 390 31 432 90 q 314 -57 354 -24 q 256 -92 285 -81 q 100 -54 164 -128 q 40 58 63 -12 q 13 326 1 183 q 256 981 39 660 q 456 1213 349 1118 q 635 1324 542 1289 q 714 1339 682 1342 q 774 1306 753 1335 q 786 1239 796 1276 q 753 1201 779 1208 q 703 1218 718 1193 q 667 1226 692 1238 q 488 1093 572 1181 q 183 603 285 886 q 121 211 108 394 q 158 53 128 117 q 199 7 179 11 q 254 36 219 3 q 314 111 285 64 q 385 247 350 168 q 426 349 407 296 q 472 475 446 401 q 508 579 497 549 q 492 582 496 582 q 476 579 488 582 q 461 575 465 576 q 430 569 450 574 q 403 563 410 564 q 375 560 385 560 q 349 565 361 560 q 331 581 338 571 q 322 603 324 590 q 332 637 321 622 q 365 657 343 651 q 532 697 407 667 q 568 714 557 703 q 622 725 590 738 q 663 722 639 718 q 764 738 710 729 q 793 739 779 739 q 838 706 826 738 q 824 651 849 676 q 776 629 806 635 q 726 622 733 622 q 712 621 719 622 q 699 617 704 619 q 686 611 693 615 q 675 605 679 607 q 663 597 671 603 q 653 589 656 590 q 640 561 644 583 q 607 140 599 339 q 635 -146 614 -28 q 658 -222 643 -194 q 665 -260 668 -242 q 644 -289 661 -278 q 576 -286 611 -315 q 543 -231 554 -268 q 515 -86 526 -176 q 496 203 497 76 z "},"H":{"ha":985,"x_min":-97,"x_max":983,"o":"m 793 418 q 793 453 793 419 q 556 411 701 440 q 226 336 364 372 q 202 326 206 331 q 197 301 199 322 q 193 -33 189 149 q 217 -78 193 -68 q 236 -115 236 -86 q 215 -182 236 -154 q 158 -211 192 -214 q 106 -172 124 -208 q 92 -115 96 -151 q 82 115 81 -29 q 83 153 83 132 q 84 190 83 174 q 85 228 85 207 q 86 265 86 250 q 83 292 86 286 q 69 289 81 292 q 53 285 57 286 q 40 280 49 283 q 26 272 32 276 q 17 260 21 267 q -33 242 1 240 q -82 258 -68 243 q -96 291 -96 272 q -83 325 -96 310 q -50 349 -74 336 q 67 400 14 382 q 97 438 94 410 q 117 740 97 458 q 124 856 119 782 q 131 992 128 931 q 140 1108 135 1054 q 141 1125 140 1117 q 142 1141 142 1133 q 144 1157 143 1149 q 144 1173 144 1165 q 145 1190 144 1181 q 147 1206 146 1199 q 149 1224 147 1218 q 193 1263 157 1260 q 243 1232 226 1265 q 249 1186 250 1217 q 240 989 243 1028 q 207 471 236 921 q 210 449 206 451 q 235 451 214 446 q 681 544 461 506 q 776 561 756 558 q 801 588 800 563 q 817 810 807 679 q 853 1183 831 1007 q 853 1207 856 1194 q 839 1226 851 1219 q 822 1265 822 1236 q 872 1421 825 1346 q 936 1447 894 1458 q 981 1393 976 1438 q 978 1311 983 1357 q 913 614 933 971 q 910 574 910 597 q 920 535 911 551 q 914 496 929 518 q 904 467 906 482 q 896 -168 886 79 q 904 -296 900 -254 q 922 -374 911 -350 q 906 -439 939 -414 q 871 -448 890 -450 q 836 -432 851 -446 q 810 -387 818 -417 q 792 -264 799 -347 q 785 83 785 -168 q 793 418 785 219 z "},"I":{"ha":329,"x_min":-22,"x_max":507,"o":"m 182 -24 q 188 -72 182 -56 q 225 -58 194 -71 q 235 -53 226 -57 q 247 -47 243 -49 q 307 -65 286 -36 q 303 -129 329 -96 q 235 -171 282 -154 q 89 -203 179 -192 q 70 -206 82 -204 q 54 -207 58 -207 q 14 -201 33 -210 q -12 -181 -3 -196 q -19 -150 -21 -167 q -5 -122 -17 -133 q 24 -108 7 -111 q 45 -106 32 -107 q 61 -106 58 -106 q 78 -86 79 -106 q 82 199 67 11 q 196 1044 106 482 q 198 1062 197 1056 q 200 1077 199 1068 q 203 1094 201 1086 q 206 1110 204 1101 q 221 1189 211 1140 q 220 1204 224 1200 q 206 1207 217 1208 q 163 1210 182 1204 q 129 1231 142 1215 q 119 1264 117 1246 q 124 1282 119 1274 q 136 1296 129 1290 q 153 1305 143 1301 q 174 1310 163 1308 q 184 1308 176 1310 q 196 1308 192 1307 q 210 1309 199 1308 q 226 1310 221 1310 q 240 1313 231 1311 q 255 1319 249 1315 q 267 1331 261 1324 q 329 1340 294 1363 q 365 1336 344 1332 q 394 1344 375 1339 q 422 1353 413 1350 q 488 1325 471 1364 q 465 1257 506 1286 q 385 1231 447 1246 q 372 1228 381 1229 q 356 1227 363 1228 q 344 1224 350 1226 q 333 1215 338 1221 q 327 1201 329 1210 q 324 1181 325 1193 q 324 1164 324 1168 q 265 783 274 843 q 188 151 203 369 q 182 -24 181 43 z "},"J":{"ha":429,"x_min":-310,"x_max":456,"o":"m 240 -53 q 265 288 269 94 q 186 940 254 635 q 184 955 185 946 q 183 969 183 964 q 179 981 182 975 q 172 990 176 988 q 160 992 168 994 q 147 986 151 989 q 135 978 143 983 q 122 969 128 972 q 54 917 71 939 q -3 896 36 893 q -35 913 -24 897 q -44 951 -47 929 q -15 997 -40 975 q 122 1090 39 1044 q 146 1132 149 1106 q 174 1175 142 1163 q 226 1165 206 1189 q 261 1160 239 1150 q 361 1194 311 1182 q 399 1199 381 1200 q 443 1167 432 1197 q 429 1113 454 1136 q 376 1086 413 1099 q 292 1054 328 1071 q 274 1044 276 1049 q 276 1022 272 1040 q 371 118 389 578 q 296 -232 363 -85 q 250 -314 276 -278 q 32 -451 168 -431 q -154 -453 -69 -468 q -244 -419 -210 -443 q -294 -356 -279 -396 q -299 -276 -308 -317 q -254 -236 -289 -239 q -203 -274 -215 -233 q -197 -301 -199 -285 q -161 -340 -193 -331 q -110 -350 -142 -346 q 40 -339 -37 -357 q 165 -247 115 -321 q 240 -53 215 -172 z "},"K":{"ha":817,"x_min":-1,"x_max":944,"o":"m 246 1024 q 199 751 240 994 q 221 765 208 753 q 828 1324 504 1047 q 856 1344 844 1338 q 917 1336 890 1363 q 921 1275 944 1307 q 908 1256 917 1269 q 893 1234 899 1242 q 876 1218 888 1226 q 853 1206 865 1210 q 839 1194 850 1206 q 422 811 479 863 q 197 581 293 690 q 178 547 178 557 q 199 515 178 538 q 744 38 424 275 q 801 1 774 17 q 857 -24 828 -15 q 874 -32 864 -26 q 900 -83 906 -50 q 858 -125 894 -117 q 800 -118 835 -129 q 725 -81 769 -108 q 578 26 664 -43 q 213 346 344 214 q 149 401 210 347 q 148 398 149 400 q 148 393 147 396 q 147 388 149 390 q 117 -71 117 106 q 126 -149 117 -122 q 107 -206 140 -183 q 46 -204 78 -226 q 22 -176 31 -193 q 11 -137 14 -160 q 8 -3 4 -89 q 35 356 15 178 q 36 388 39 371 q 19 418 33 406 q 7 478 0 438 q 28 531 14 508 q 78 679 64 586 q 182 1308 79 689 q 184 1321 183 1314 q 185 1334 185 1328 q 186 1347 185 1340 q 188 1361 188 1354 q 196 1394 190 1385 q 239 1424 207 1422 q 285 1392 272 1424 q 290 1339 293 1372 q 246 1024 279 1221 z "},"L":{"ha":760,"x_min":-89,"x_max":768,"o":"m 144 69 q 136 -42 143 64 q 168 -35 143 -43 q 576 64 372 42 q 699 61 651 72 q 746 35 729 56 q 754 -18 767 8 q 710 -47 742 -46 q 701 -47 703 -47 q 630 -42 657 -43 q 560 -47 603 -42 q 492 -58 518 -53 q 422 -72 465 -62 q 167 -151 288 -101 q 142 -168 144 -161 q 150 -196 139 -175 q 153 -203 150 -197 q 158 -212 157 -208 q 149 -267 171 -244 q 94 -279 125 -290 q 46 -229 58 -267 q 18 -218 39 -208 q -15 -229 1 -226 q -53 -224 -36 -233 q -75 -197 -69 -215 q -49 -137 -87 -158 q 6 -111 -17 -121 q 26 -78 26 -101 q 40 125 28 13 q 114 575 63 319 q 238 1060 171 856 q 247 1082 243 1076 q 299 1108 265 1115 q 339 1065 333 1101 q 332 1015 340 1049 q 221 557 265 769 q 144 69 167 289 z "},"M":{"ha":1114,"x_min":47,"x_max":1099,"o":"m 985 935 q 981 1049 990 1004 q 924 985 951 1028 q 801 719 847 867 q 732 386 763 597 q 707 219 710 243 q 660 174 700 174 q 637 179 647 174 q 620 196 626 185 q 611 222 614 207 q 606 290 606 256 q 607 950 607 632 q 600 1178 607 1111 q 588 1243 594 1225 q 564 1214 578 1238 q 468 996 518 1136 q 319 381 376 732 q 261 -144 292 203 q 263 -189 260 -162 q 238 -235 265 -219 q 188 -232 213 -250 q 161 -219 171 -221 q 107 -169 118 -217 q 94 -93 99 -129 q 74 207 82 43 q 69 383 71 286 q 65 583 67 479 q 63 760 64 688 q 59 872 61 783 q 54 1010 57 961 q 52 1040 54 1021 q 49 1069 50 1060 q 53 1106 47 1093 q 96 1138 65 1136 q 142 1111 126 1139 q 149 1083 147 1099 q 168 860 165 944 q 181 263 171 768 q 183 225 182 235 q 193 265 189 235 q 388 1092 257 740 q 474 1275 429 1203 q 531 1346 503 1322 q 615 1373 571 1382 q 681 1314 658 1364 q 707 1206 699 1275 q 717 949 717 1119 q 716 902 717 935 q 717 851 715 869 q 716 847 717 850 q 715 842 715 844 q 715 838 715 840 q 717 833 715 835 q 721 828 718 831 q 735 856 725 832 q 836 1049 782 967 q 885 1110 860 1085 q 943 1151 913 1139 q 1024 1156 986 1171 q 1079 1097 1061 1140 q 1094 1025 1093 1067 q 1085 813 1097 953 q 1035 101 1043 335 q 1036 -36 1032 10 q 1036 -58 1038 -49 q 1028 -82 1035 -71 q 1010 -99 1021 -93 q 986 -106 999 -104 q 953 -96 968 -107 q 932 -67 938 -85 q 925 -8 926 -47 q 935 289 922 113 q 964 672 943 414 q 974 804 967 717 q 985 935 982 892 z "},"N":{"ha":806,"x_min":-1,"x_max":858,"o":"m 579 185 q 592 171 585 174 q 640 436 638 418 q 681 652 651 494 q 728 896 711 810 q 751 1079 749 1008 q 739 1128 754 1110 q 732 1174 725 1147 q 760 1214 739 1201 q 802 1217 779 1225 q 836 1188 825 1210 q 856 1096 854 1156 q 840 913 858 1018 q 788 626 824 811 q 740 379 751 440 q 730 322 739 368 q 718 260 721 276 q 708 206 715 244 q 698 143 701 167 q 690 88 694 119 q 681 28 685 56 q 697 -32 675 -10 q 713 -56 707 -42 q 710 -101 724 -79 q 669 -125 696 -124 q 647 -125 664 -125 q 619 -125 629 -125 q 569 -90 583 -128 q 565 -72 564 -78 q 566 -56 565 -62 q 564 -40 567 -50 q 560 -25 561 -31 q 554 -10 558 -19 q 547 3 550 -1 q 540 18 544 8 q 532 32 535 28 q 268 724 378 335 q 236 831 261 747 q 233 835 236 832 q 224 817 228 833 q 136 321 165 540 q 111 7 113 135 q 124 -50 111 -29 q 129 -92 135 -69 q 106 -128 124 -114 q 66 -139 88 -142 q 29 -118 44 -136 q 6 -51 8 -96 q 8 144 -1 31 q 157 1010 39 522 q 160 1049 163 1029 q 178 1126 156 1085 q 213 1151 188 1147 q 257 1139 238 1156 q 282 1074 292 1111 q 283 1040 278 1056 q 367 774 317 947 q 443 526 418 600 q 579 185 499 360 z "},"O":{"ha":911,"x_min":10,"x_max":915,"o":"m 51 106 q 27 191 36 146 q 14 276 18 236 q 10 363 10 317 q 42 624 11 503 q 62 727 50 657 q 82 831 74 797 q 197 1114 122 993 q 361 1292 265 1226 q 514 1353 436 1340 q 756 1279 653 1376 q 890 1018 858 1182 q 894 715 915 883 q 744 208 861 439 q 582 -18 675 71 q 392 -132 486 -111 q 190 -92 279 -158 q 51 106 100 -24 m 149 301 q 125 338 147 304 q 138 193 118 271 q 226 21 165 85 q 408 -11 306 -62 q 510 63 460 13 q 653 265 592 143 q 789 744 760 483 q 778 1024 806 903 q 679 1201 751 1135 q 544 1247 622 1256 q 464 1225 503 1243 q 318 1100 382 1185 q 311 1079 308 1086 q 368 1032 353 1071 q 364 982 379 1004 q 319 965 349 960 q 283 949 296 968 q 280 943 282 946 q 276 938 278 940 q 272 931 274 935 q 268 926 269 928 q 172 696 208 828 q 167 656 167 681 q 206 426 163 529 q 238 344 229 371 q 214 281 253 300 q 149 301 176 263 z "},"P":{"ha":717,"x_min":-36,"x_max":808,"o":"m 72 964 q 72 1000 75 992 q 60 997 61 997 q -4 1021 18 986 q -22 1128 -35 1068 q 24 1226 -14 1169 q 48 1257 33 1240 q 78 1290 63 1274 q 103 1319 93 1307 q 131 1339 110 1329 q 156 1351 151 1349 q 335 1421 239 1408 q 638 1358 508 1444 q 800 1086 779 1265 q 797 949 807 1021 q 762 802 788 876 q 689 658 736 728 q 581 531 642 589 q 433 432 519 474 q 247 375 347 390 q 175 369 226 371 q 154 365 157 368 q 151 344 151 363 q 153 114 149 233 q 167 -126 158 -36 q 175 -169 169 -142 q 167 -215 179 -194 q 133 -240 156 -235 q 91 -232 110 -244 q 67 -193 72 -219 q 50 -22 60 -156 q 43 415 39 157 q 72 964 47 621 m 199 1229 q 165 715 192 1124 q 157 542 157 551 q 164 482 154 490 q 225 481 174 474 q 473 585 363 501 q 642 796 583 669 q 693 1061 701 922 q 553 1282 683 1218 q 214 1260 382 1365 q 199 1229 199 1251 m 78 1081 q 78 1108 83 1093 q 78 1081 71 1092 z "},"Q":{"ha":1015,"x_min":29,"x_max":1051,"o":"m 44 368 q 29 529 35 421 q 226 1169 46 890 q 579 1443 351 1361 q 900 1375 757 1507 q 1042 1078 1029 1256 q 1003 722 1051 931 q 808 240 940 450 q 632 31 726 113 q 625 -4 615 17 q 693 -96 651 -64 q 721 -121 711 -108 q 728 -178 746 -149 q 674 -200 710 -207 q 601 -160 638 -193 q 535 -68 564 -126 q 522 -49 526 -51 q 499 -56 517 -47 q 190 25 315 -125 q 136 110 151 71 q 123 141 133 117 q 109 174 113 165 q 97 203 106 182 q 83 237 88 225 q 72 268 79 249 q 61 302 65 288 q 52 334 57 317 q 44 368 47 351 m 649 1349 q 283 1057 418 1288 q 317 1040 315 1040 q 340 982 346 1019 q 308 944 336 947 q 292 941 299 944 q 281 932 286 938 q 274 922 276 926 q 268 908 271 917 q 246 849 254 876 q 185 550 201 703 q 190 288 169 399 q 278 90 213 165 q 456 44 351 6 q 484 61 481 56 q 482 94 488 67 q 460 421 443 279 q 472 500 467 482 q 481 517 475 510 q 493 531 486 525 q 508 538 500 536 q 525 539 517 540 q 548 531 538 538 q 565 513 558 524 q 571 488 571 501 q 569 465 572 479 q 579 164 553 324 q 588 142 582 146 q 611 163 594 144 q 699 272 657 211 q 897 744 833 472 q 935 1046 936 917 q 796 1319 931 1222 q 649 1349 726 1369 z "},"R":{"ha":807,"x_min":-140,"x_max":897,"o":"m 171 333 q 163 335 169 333 q 160 314 161 335 q 158 283 160 293 q 151 -32 150 129 q 168 -87 151 -68 q 164 -161 190 -115 q 110 -192 144 -194 q 56 -146 71 -187 q 43 -54 44 -118 q 44 185 39 51 q 47 228 46 196 q 49 278 47 260 q 35 303 50 294 q 2 344 4 318 q 26 393 0 371 q 44 406 36 401 q 60 433 58 413 q 111 843 69 539 q 115 873 113 857 q 122 908 118 889 q 126 939 125 928 q 128 994 132 972 q 140 1061 122 1022 q 183 1088 153 1088 q 228 1058 214 1088 q 236 1013 236 1042 q 214 789 233 944 q 206 731 210 761 q 199 670 203 700 q 191 613 194 640 q 183 552 188 585 q 175 494 179 519 q 178 479 174 483 q 189 482 182 478 q 582 724 447 615 q 726 867 679 801 q 775 971 767 922 q 738 1081 785 1035 q 646 1133 703 1114 q 479 1157 574 1158 q 46 1050 246 1154 q 26 1039 39 1047 q 6 1028 13 1031 q -6 996 -14 1017 q -15 949 3 968 q -61 933 -32 931 q -123 977 -106 940 q -117 1051 -140 1014 q -64 1104 -101 1076 q 157 1214 26 1172 q 517 1265 339 1272 q 746 1208 651 1260 q 883 1029 863 1143 q 853 865 896 951 q 742 719 817 792 q 454 504 628 608 q 281 406 388 464 q 260 390 263 396 q 269 365 258 383 q 664 -7 415 121 q 760 -36 714 -32 q 785 -44 774 -37 q 803 -60 797 -50 q 810 -82 810 -69 q 771 -136 813 -121 q 713 -140 744 -146 q 610 -101 663 -129 q 192 296 324 53 q 171 333 185 308 z "},"S":{"ha":551,"x_min":-46,"x_max":579,"o":"m 454 1160 q 447 1178 453 1160 q 354 1124 403 1158 q 146 878 221 1028 q 122 794 124 831 q 146 733 119 757 q 203 694 168 714 q 338 621 331 624 q 449 535 401 583 q 500 468 481 501 q 510 214 572 342 q 421 90 478 151 q 126 -157 292 -47 q 53 -192 85 -183 q -8 -183 19 -200 q -41 -133 -36 -165 q -25 -83 -46 -101 q 26 -75 -4 -65 q 58 -71 44 -81 q 132 -19 132 -19 q 332 156 250 68 q 411 260 385 211 q 403 418 451 340 q 343 485 382 453 q 229 557 300 519 q 147 601 153 599 q 92 638 117 619 q 18 844 -12 715 q 60 949 31 896 q 392 1269 185 1174 q 456 1292 424 1283 q 508 1296 485 1300 q 562 1265 544 1292 q 568 1203 579 1238 q 536 1146 560 1174 q 491 1127 517 1122 q 454 1160 465 1132 z "},"T":{"ha":281,"x_min":-381,"x_max":1017,"o":"m 165 1211 q 168 1226 165 1211 q 97 1208 150 1225 q 6 1181 57 1197 q -98 1149 -46 1165 q -189 1122 -150 1133 q -285 1103 -243 1106 q -343 1113 -321 1101 q -378 1164 -375 1129 q -347 1214 -379 1197 q -313 1230 -326 1225 q -281 1234 -300 1235 q -244 1221 -261 1233 q -233 1219 -235 1219 q -224 1222 -232 1218 q -214 1225 -215 1225 q -123 1254 -179 1236 q -18 1288 -67 1272 q 72 1314 31 1303 q 828 1485 449 1424 q 933 1497 846 1488 q 976 1494 957 1500 q 1013 1451 1010 1483 q 986 1401 1017 1419 q 939 1389 971 1392 q 331 1272 728 1367 q 327 1271 331 1272 q 322 1269 324 1269 q 269 1213 276 1268 q 238 974 263 1163 q 190 485 207 731 q 175 10 174 214 q 185 -25 176 -11 q 186 -106 207 -60 q 160 -132 178 -122 q 124 -140 143 -142 q 75 -93 86 -136 q 68 -37 69 -72 q 79 435 63 133 q 114 851 89 624 q 165 1211 138 1071 z "},"U":{"ha":840,"x_min":-1,"x_max":890,"o":"m 622 136 q 650 436 633 300 q 632 403 642 429 q 469 72 549 199 q 360 -65 415 -12 q 250 -133 306 -118 q 107 -93 168 -156 q 56 -7 76 -61 q 13 229 21 83 q 47 768 -1 467 q 124 1157 85 1008 q 164 1285 140 1219 q 182 1318 174 1308 q 233 1329 204 1340 q 264 1289 261 1319 q 260 1258 265 1274 q 238 1178 249 1222 q 220 1106 226 1135 q 203 1021 214 1076 q 189 946 193 965 q 129 543 144 728 q 131 142 108 308 q 164 18 142 65 q 203 -28 182 -22 q 261 -7 225 -33 q 346 83 301 22 q 501 372 424 192 q 700 967 606 615 q 771 1226 735 1092 q 783 1258 776 1246 q 838 1288 800 1293 q 882 1250 871 1285 q 885 1204 889 1231 q 829 890 881 1175 q 718 -150 728 335 q 719 -235 718 -157 q 729 -286 719 -262 q 713 -350 744 -328 q 646 -346 681 -372 q 618 -301 625 -331 q 608 -211 610 -267 q 622 136 607 -92 z "},"V":{"ha":735,"x_min":28,"x_max":907,"o":"m 54 204 q 29 574 28 356 q 61 974 32 769 q 74 1015 65 1001 q 122 1043 92 1047 q 164 1006 154 1038 q 165 961 171 981 q 160 938 163 950 q 156 912 157 925 q 155 888 156 899 q 153 862 154 876 q 151 838 153 847 q 138 525 138 640 q 174 168 138 313 q 236 15 196 78 q 266 -15 256 -14 q 297 14 276 -15 q 388 199 338 72 q 504 551 422 288 q 706 1107 610 892 q 771 1231 740 1185 q 818 1281 794 1265 q 879 1279 853 1301 q 892 1219 907 1257 q 881 1200 886 1208 q 829 1115 854 1164 q 792 1035 804 1065 q 754 943 779 1004 q 561 368 682 761 q 449 64 510 199 q 386 -49 418 -1 q 344 -96 365 -78 q 267 -128 308 -128 q 189 -96 226 -128 q 131 -19 158 -68 q 54 204 76 76 z "},"W":{"ha":876,"x_min":1,"x_max":928,"o":"m 122 278 q 125 157 118 203 q 182 321 179 311 q 263 521 229 450 q 297 581 281 558 q 379 625 333 629 q 451 567 425 621 q 482 465 468 535 q 500 376 488 438 q 523 267 513 314 q 544 178 533 221 q 593 36 568 92 q 624 -22 610 3 q 629 -31 625 -24 q 636 -43 633 -39 q 644 -51 639 -47 q 654 -53 649 -54 q 662 -50 658 -53 q 668 -42 665 -47 q 672 -35 671 -37 q 676 -24 674 -32 q 679 -15 679 -17 q 726 185 706 54 q 783 697 750 343 q 818 1096 807 950 q 819 1118 818 1111 q 865 1161 828 1158 q 918 1126 906 1164 q 925 1067 928 1099 q 906 828 907 854 q 869 467 883 601 q 807 31 838 164 q 771 -76 792 -33 q 735 -131 756 -110 q 658 -169 700 -167 q 579 -137 617 -171 q 526 -72 553 -115 q 450 113 483 1 q 382 414 426 196 q 368 476 382 417 q 347 444 358 471 q 175 -75 232 168 q 157 -140 165 -115 q 97 -186 139 -189 q 36 -136 51 -185 q 14 18 21 -86 q 29 481 1 206 q 75 821 49 675 q 132 1018 97 942 q 161 1063 146 1049 q 202 1077 181 1079 q 239 1056 224 1075 q 257 988 261 1026 q 232 953 253 960 q 206 915 213 947 q 164 688 183 821 q 122 278 133 482 z "},"X":{"ha":624,"x_min":-49,"x_max":738,"o":"m 268 313 q 253 332 261 328 q 133 -51 157 93 q 140 -143 124 -110 q 128 -200 157 -175 q 69 -206 101 -222 q 24 -137 32 -186 q 35 14 14 -82 q 164 401 68 171 q 186 450 181 440 q 186 504 200 475 q 151 584 175 529 q 115 667 128 639 q 72 763 100 700 q 21 876 44 825 q -26 969 -3 926 q -19 1036 -47 1010 q 50 1033 11 1063 q 83 986 79 1011 q 92 963 85 978 q 244 642 165 826 q 260 614 254 619 q 267 621 264 617 q 274 633 271 625 q 279 643 278 642 q 469 947 374 821 q 600 1090 532 1028 q 644 1124 625 1114 q 711 1118 681 1143 q 726 1058 738 1097 q 669 1007 711 1006 q 660 1005 664 1007 q 653 1001 656 1003 q 647 994 651 1000 q 642 988 643 989 q 500 801 571 907 q 326 497 413 672 q 324 460 317 475 q 369 353 338 426 q 418 237 400 279 q 465 133 436 194 q 518 22 493 72 q 544 -26 529 1 q 578 -64 560 -51 q 599 -121 610 -86 q 549 -158 589 -154 q 483 -128 513 -161 q 432 -46 461 -101 q 318 194 385 43 q 302 232 311 211 q 284 274 293 253 q 268 313 275 296 z "},"Y":{"ha":665,"x_min":0,"x_max":693,"o":"m 504 561 q 500 583 504 578 q 485 553 497 579 q 414 432 450 481 q 346 368 382 392 q 157 376 249 304 q 83 468 115 410 q 15 693 32 558 q 31 986 1 804 q 35 1024 31 990 q 35 1031 35 1024 q 36 1042 36 1039 q 56 1078 42 1065 q 90 1089 71 1090 q 122 1072 110 1088 q 135 1033 135 1057 q 133 997 135 1017 q 129 956 132 978 q 125 919 126 933 q 140 614 110 725 q 200 488 161 538 q 256 449 229 450 q 314 483 282 447 q 408 651 365 539 q 521 999 446 750 q 538 1056 529 1025 q 556 1122 546 1086 q 572 1179 567 1158 q 588 1219 582 1210 q 640 1247 607 1250 q 686 1208 674 1243 q 688 1157 693 1189 q 667 1032 683 1121 q 646 894 651 943 q 604 356 611 629 q 601 -333 596 10 q 603 -399 601 -343 q 597 -432 603 -419 q 547 -468 585 -468 q 497 -429 508 -468 q 492 -393 493 -417 q 499 461 486 131 q 501 513 499 479 q 504 561 503 547 z "},"Z":{"ha":786,"x_min":-51,"x_max":826,"o":"m 626 1003 q 651 1026 646 1018 q 586 1025 632 1028 q 214 964 458 1017 q 49 931 189 958 q -1 931 19 925 q -28 944 -17 935 q -45 967 -40 954 q -47 996 -50 981 q -26 1028 -44 1017 q 17 1035 -7 1039 q 69 1038 38 1029 q 404 1113 294 1094 q 719 1135 582 1142 q 765 1128 747 1133 q 813 1085 801 1117 q 806 1021 825 1054 q 768 978 793 1001 q 656 888 733 947 q 375 658 461 739 q 151 379 232 522 q 81 210 100 288 q 76 165 76 188 q 81 144 76 149 q 101 142 86 140 q 154 151 128 144 q 426 243 228 169 q 678 340 596 304 q 704 349 690 346 q 760 322 742 356 q 750 265 775 292 q 704 233 733 246 q 576 183 628 203 q 217 56 331 90 q 101 33 147 33 q 45 40 69 32 q 3 65 21 49 q -23 104 -14 81 q -33 158 -32 128 q -19 257 -35 200 q 135 553 22 400 q 432 851 246 701 q 494 899 461 874 q 565 955 526 925 q 626 1003 604 985 z "},"[":{"ha":478,"x_min":10,"x_max":471,"o":"m 432 1406 q 468 1354 469 1392 q 456 1323 467 1336 q 425 1307 444 1310 q 389 1304 413 1304 q 301 1296 358 1306 q 278 1272 281 1293 q 261 1137 272 1210 q 235 982 250 1064 q 214 846 221 900 q 140 269 160 467 q 118 -51 119 47 q 122 -100 117 -97 q 171 -94 126 -103 q 260 -64 221 -86 q 271 -57 264 -60 q 333 -71 310 -42 q 329 -136 358 -101 q 271 -176 310 -161 q 136 -201 229 -192 q 128 -203 133 -203 q 121 -203 122 -203 q 65 -196 89 -206 q 27 -164 42 -186 q 11 -110 13 -142 q 10 -26 10 -106 q 38 332 13 92 q 97 797 57 519 q 169 1232 132 1044 q 163 1289 176 1265 q 183 1364 136 1331 q 256 1390 201 1376 q 394 1411 347 1413 q 432 1406 418 1411 z "},"\\":{"ha":489,"x_min":-1,"x_max":481,"o":"m 471 -36 q 479 -67 481 -61 q 450 -119 478 -107 q 394 -111 419 -132 q 365 -62 378 -96 q 279 208 336 15 q 154 746 232 367 q 29 1268 86 1075 q 21 1292 26 1276 q 14 1313 15 1307 q 32 1373 0 1353 q 94 1364 64 1393 q 117 1322 106 1353 q 235 889 174 1176 q 270 719 247 832 q 313 516 293 606 q 354 346 333 426 q 471 -36 413 125 z "},"]":{"ha":378,"x_min":3,"x_max":372,"o":"m 364 1326 q 367 1221 371 1258 q 356 1091 364 1163 q 344 981 349 1019 q 326 848 339 942 q 310 733 313 754 q 249 53 256 336 q 254 -104 246 -42 q 235 -164 257 -131 q 138 -207 207 -208 q 67 -210 124 -207 q 11 -171 18 -211 q 49 -115 3 -131 q 72 -110 60 -111 q 100 -108 83 -108 q 124 -107 117 -107 q 140 -101 136 -106 q 143 -83 144 -96 q 140 -43 142 -64 q 138 -4 139 -22 q 138 36 138 14 q 140 75 139 58 q 141 116 140 92 q 143 154 142 140 q 146 195 144 168 q 149 235 147 222 q 158 358 151 292 q 168 469 164 425 q 183 597 172 514 q 197 707 193 679 q 214 834 200 735 q 229 949 228 933 q 265 1240 238 1004 q 266 1255 264 1250 q 264 1263 268 1260 q 256 1266 260 1265 q 242 1267 253 1267 q 192 1274 214 1268 q 161 1294 172 1279 q 153 1326 150 1308 q 169 1357 156 1346 q 204 1368 183 1368 q 307 1374 268 1367 q 346 1365 331 1378 q 364 1326 361 1353 z "},"^":{"ha":438,"x_min":-3,"x_max":433,"o":"m 426 979 q 410 928 433 947 q 354 922 386 907 q 311 972 326 935 q 278 1089 293 1011 q 261 1178 278 1092 q 258 1178 260 1178 q 254 1178 256 1178 q 208 1107 211 1111 q 97 957 165 1047 q 67 935 85 940 q 33 940 50 931 q 14 1001 -1 960 q 35 1040 18 1015 q 229 1357 150 1204 q 290 1397 251 1400 q 349 1340 339 1393 q 364 1229 353 1319 q 392 1075 374 1160 q 418 999 401 1029 q 426 979 424 989 z "},"_":{"ha":894,"x_min":65,"x_max":825,"o":"m 815 43 q 825 15 825 29 q 808 -15 822 -6 q 775 -18 793 -25 q 701 0 740 -4 q 494 11 622 10 q 156 -4 414 13 q 106 -1 126 -6 q 69 40 65 4 q 111 74 74 74 q 158 76 133 74 q 214 82 183 78 q 263 88 244 86 q 500 97 364 97 q 714 85 629 96 q 781 69 754 81 q 815 43 801 61 z "},"`":{"ha":193,"x_min":6,"x_max":183,"o":"m 178 1414 q 182 1386 182 1403 q 169 1332 182 1364 q 115 1222 150 1285 q 93 1196 106 1206 q 32 1194 63 1174 q 13 1221 18 1204 q 14 1256 7 1238 q 28 1282 14 1257 q 46 1311 33 1290 q 65 1344 58 1332 q 78 1374 71 1356 q 89 1408 85 1392 q 131 1443 94 1442 q 178 1414 164 1446 z "},"a":{"ha":525,"x_min":3,"x_max":524,"o":"m 513 -10 q 522 -46 522 -28 q 501 -83 521 -69 q 458 -90 481 -97 q 406 -40 425 -81 q 376 71 388 -4 q 369 197 371 107 q 346 165 360 190 q 276 54 308 94 q 210 -6 243 14 q 113 -24 160 -36 q 38 40 65 -11 q 8 158 10 94 q 176 585 3 401 q 351 657 251 667 q 397 647 379 656 q 457 636 428 633 q 497 617 481 638 q 514 568 514 597 q 506 493 513 546 q 481 285 485 331 q 489 61 471 169 q 513 -10 496 18 m 372 510 q 374 546 382 536 q 338 554 367 556 q 293 540 315 554 q 244 501 264 524 q 117 194 126 368 q 124 119 117 144 q 142 85 132 88 q 175 106 151 82 q 251 218 213 142 q 372 510 311 336 z "},"b":{"ha":551,"x_min":4,"x_max":558,"o":"m 539 374 q 490 -112 557 107 q 451 -207 475 -165 q 413 -260 433 -239 q 342 -293 381 -290 q 267 -271 303 -296 q 204 -206 236 -249 q 146 -99 167 -154 q 119 -81 139 -79 q 57 -36 79 -83 q 33 54 43 -7 q 11 335 18 157 q 18 732 4 479 q 46 1090 28 928 q 83 1324 56 1181 q 93 1350 86 1340 q 129 1372 106 1369 q 168 1356 153 1374 q 186 1315 182 1340 q 181 1271 190 1289 q 171 1239 174 1257 q 118 500 126 863 q 122 272 117 439 q 124 257 122 271 q 131 263 129 260 q 134 272 133 265 q 135 279 135 279 q 208 511 164 419 q 256 592 232 561 q 289 629 274 615 q 385 667 335 674 q 472 608 436 661 q 515 508 500 569 q 539 374 533 443 m 385 -86 q 435 261 431 57 q 422 429 435 344 q 394 528 411 490 q 374 555 382 554 q 349 533 365 556 q 303 457 324 503 q 233 221 263 369 q 221 38 211 103 q 315 -169 240 -87 q 334 -181 328 -182 q 349 -167 340 -181 q 385 -86 368 -137 z "},"c":{"ha":449,"x_min":-3,"x_max":443,"o":"m 438 208 q 428 154 442 183 q 369 86 411 115 q 189 24 289 29 q 54 93 104 19 q 26 155 36 122 q 13 226 15 188 q 61 538 -1 392 q 139 642 88 597 q 297 671 207 701 q 353 619 336 657 q 340 561 369 583 q 279 563 311 538 q 238 579 256 581 q 200 554 221 578 q 147 460 168 518 q 118 282 121 382 q 128 194 119 229 q 142 160 132 176 q 189 133 158 129 q 342 217 301 147 q 357 236 349 228 q 406 247 379 256 q 438 208 432 238 z "},"d":{"ha":607,"x_min":3,"x_max":635,"o":"m 631 1218 q 632 1165 633 1203 q 611 954 626 1075 q 565 136 556 486 q 586 -115 569 -42 q 561 -174 594 -157 q 497 -162 528 -192 q 476 -118 482 -147 q 460 50 463 -58 q 456 360 451 256 q 456 371 456 360 q 450 372 454 372 q 433 326 435 331 q 344 113 389 194 q 276 13 311 50 q 165 -37 222 -43 q 65 36 107 -31 q 10 242 15 118 q 71 536 4 399 q 93 574 81 554 q 218 680 143 653 q 382 679 293 707 q 414 675 408 672 q 426 706 419 678 q 515 1182 475 922 q 521 1219 519 1208 q 541 1255 526 1242 q 575 1268 556 1268 q 610 1255 594 1268 q 631 1218 625 1242 m 386 543 q 388 560 390 553 q 375 572 386 568 q 259 578 307 594 q 179 507 211 563 q 157 463 167 486 q 119 267 118 369 q 132 156 118 211 q 151 106 140 128 q 177 75 167 76 q 207 99 188 74 q 243 154 229 125 q 285 240 272 210 q 386 543 339 367 z "},"e":{"ha":453,"x_min":7,"x_max":444,"o":"m 364 86 q 412 74 392 93 q 425 26 432 54 q 385 -28 418 -6 q 232 -51 321 -72 q 70 49 132 -28 q 10 229 8 126 q 181 622 13 453 q 294 682 229 672 q 401 656 358 692 q 442 556 444 619 q 351 297 438 404 q 135 189 264 192 q 125 188 135 189 q 133 154 124 176 q 267 53 171 74 q 335 68 306 44 q 364 86 351 82 m 128 313 q 129 292 125 297 q 149 290 133 288 q 206 313 172 293 q 293 405 265 349 q 333 540 321 461 q 329 569 335 563 q 307 572 324 575 q 249 538 279 568 q 128 313 161 449 z "},"f":{"ha":488,"x_min":-24,"x_max":576,"o":"m 235 472 q 222 381 222 406 q 378 436 313 406 q 419 457 419 457 q 482 442 460 472 q 475 375 504 410 q 411 332 453 350 q 236 272 342 300 q 210 262 214 267 q 204 233 206 257 q 200 -164 190 31 q 221 -394 208 -317 q 235 -449 225 -422 q 221 -510 250 -486 q 156 -511 192 -533 q 122 -460 133 -496 q 104 -343 110 -415 q 94 219 75 -37 q 92 242 96 239 q 69 243 89 246 q 19 244 35 240 q -12 267 0 251 q -22 300 -24 282 q 26 346 -19 338 q 49 347 32 349 q 72 346 67 346 q 101 353 94 347 q 110 379 107 358 q 183 718 139 592 q 239 840 208 789 q 292 903 263 876 q 390 943 336 942 q 490 907 444 944 q 569 778 542 864 q 568 742 576 758 q 542 718 560 725 q 508 717 525 711 q 482 742 492 724 q 472 761 478 749 q 464 779 467 774 q 435 818 450 804 q 360 818 396 853 q 303 726 328 786 q 235 472 263 629 z "},"g":{"ha":531,"x_min":-83,"x_max":524,"o":"m 519 551 q 504 156 524 400 q 468 -193 488 -60 q 350 -674 428 -489 q 264 -836 310 -771 q 188 -918 226 -892 q 78 -947 133 -957 q -12 -882 24 -937 q -57 -753 -47 -831 q 13 -343 -83 -543 q 88 -219 42 -282 q 106 -199 97 -206 q 163 -193 132 -174 q 183 -247 194 -212 q 164 -293 176 -268 q 141 -334 157 -306 q 117 -378 125 -362 q 56 -762 22 -564 q 72 -812 60 -790 q 99 -839 86 -836 q 132 -825 111 -842 q 179 -767 154 -804 q 263 -600 224 -700 q 349 -264 317 -462 q 400 224 376 -86 q 400 251 400 225 l 394 251 q 361 158 363 164 q 293 32 329 79 q 238 -21 267 -3 q 151 -41 194 -49 q 75 7 107 -33 q 24 149 33 61 q 75 454 8 289 q 189 643 122 567 q 336 747 257 721 q 433 757 389 765 q 485 735 464 751 q 515 672 522 707 q 513 642 513 658 q 514 612 513 625 q 517 581 515 599 q 519 551 518 564 m 281 257 q 345 463 306 328 q 401 653 385 597 q 375 650 394 657 q 272 574 324 631 q 176 414 217 513 q 131 181 125 288 q 153 88 133 122 q 170 69 163 71 q 192 81 178 68 q 228 131 210 97 q 281 257 254 178 z "},"h":{"ha":579,"x_min":6,"x_max":571,"o":"m 47 793 l 63 969 q 67 1008 65 986 q 71 1047 69 1029 q 74 1085 72 1064 q 78 1125 76 1107 q 92 1243 85 1182 q 100 1269 94 1257 q 149 1295 115 1300 q 189 1260 183 1290 q 192 1189 199 1208 q 186 1158 188 1179 q 174 990 182 1106 l 160 828 q 125 372 131 474 q 119 167 124 336 q 124 140 118 147 q 135 165 128 144 q 254 460 194 335 q 333 594 293 543 q 381 644 358 626 q 460 663 421 674 q 518 607 499 653 q 542 500 535 568 q 547 329 547 432 q 560 42 547 165 q 568 -18 561 26 q 568 -49 571 -36 q 535 -85 561 -76 q 488 -76 510 -94 q 460 -25 467 -60 q 442 165 447 39 q 435 463 442 183 q 426 532 435 500 q 393 492 413 522 q 299 292 351 424 q 241 143 285 257 q 171 -32 197 29 q 167 -48 169 -37 q 163 -61 164 -58 q 100 -94 149 -107 q 19 -3 29 -78 q 11 93 13 50 q 25 518 6 265 q 37 663 29 569 q 47 793 44 756 z "},"i":{"ha":167,"x_min":7,"x_max":175,"o":"m 115 506 q 161 90 121 258 q 164 60 165 76 q 128 14 161 24 q 69 33 92 3 q 53 78 60 47 q 14 346 25 196 q 14 467 7 425 q 14 599 14 578 q 21 638 14 622 q 48 665 31 657 q 83 668 65 674 q 114 644 103 663 q 119 607 125 626 q 115 506 113 582 m 89 726 q 52 723 71 718 q 22 743 33 728 q 10 788 11 758 q 71 963 22 899 q 79 972 75 968 q 150 983 115 1008 q 170 952 167 971 q 163 913 174 933 q 148 888 160 907 q 129 856 136 869 q 119 828 122 842 q 117 782 111 799 q 89 726 128 743 z "},"j":{"ha":226,"x_min":-253,"x_max":218,"o":"m 208 115 q 217 -100 217 6 q 190 -451 217 -319 q 147 -589 174 -531 q 90 -669 122 -639 q -65 -686 19 -737 q -135 -621 -107 -661 q -242 -261 -253 -446 q -235 -218 -240 -233 q -186 -186 -222 -185 q -142 -221 -153 -187 q -135 -279 -135 -242 q -65 -529 -137 -401 q -29 -576 -49 -557 q 4 -596 -8 -597 q 33 -569 17 -594 q 68 -492 53 -540 q 101 -304 93 -412 q 46 488 129 90 q 42 509 44 497 q 35 533 39 521 q 31 554 32 546 q 25 589 25 576 q 36 622 25 608 q 64 639 47 635 q 119 603 106 646 q 153 489 136 549 q 208 115 190 353 m -15 842 q -15 913 -15 846 q -12 1004 -17 985 q 0 1036 -7 1024 q 65 1058 25 1075 q 92 1035 83 1051 q 96 997 101 1018 q 83 896 85 954 q 88 828 82 849 q 63 775 97 793 q 7 785 33 761 q -15 842 -14 806 z "},"k":{"ha":571,"x_min":6,"x_max":614,"o":"m 567 240 q 599 223 586 236 q 612 192 611 210 q 601 159 613 174 q 572 138 590 144 q 519 135 554 133 q 210 151 350 143 q 178 149 182 153 q 176 117 174 144 q 196 53 182 75 q 203 8 210 32 q 175 -28 196 -17 q 127 -33 150 -40 q 92 -3 104 -26 q 69 94 81 19 q 67 132 67 113 q 36 194 65 175 q 11 231 17 207 q 15 279 6 256 q 36 314 25 301 q 57 374 57 335 q 79 1007 54 590 q 83 1072 81 1038 q 89 1149 86 1107 q 93 1214 92 1190 q 92 1254 94 1235 q 94 1315 86 1282 q 132 1353 100 1346 q 183 1331 164 1360 q 194 1286 193 1315 q 193 1086 199 1221 q 183 895 190 1022 q 172 706 175 768 q 165 481 171 667 q 171 453 165 461 q 250 519 247 517 q 358 600 317 574 q 419 606 390 621 q 450 563 450 592 q 421 518 450 528 q 374 488 401 513 q 185 315 310 435 q 174 304 176 307 q 168 276 163 289 q 192 261 174 263 q 336 253 232 258 q 433 249 368 251 q 529 243 497 246 q 567 240 553 242 z "},"l":{"ha":203,"x_min":8,"x_max":247,"o":"m 225 -272 q 244 -305 242 -286 q 236 -339 247 -324 q 171 -360 214 -375 q 110 -299 135 -347 q 67 -169 85 -251 q 17 246 26 11 q 10 643 10 410 q 10 953 10 925 q 25 1171 11 1014 q 32 1207 26 1192 q 57 1235 40 1226 q 93 1238 74 1243 q 125 1213 114 1231 q 131 1176 136 1194 q 121 1088 122 1151 q 129 171 110 557 q 179 -171 139 -14 q 194 -222 185 -196 q 225 -272 206 -254 z "},"m":{"ha":774,"x_min":-6,"x_max":768,"o":"m 763 46 q 756 0 767 19 q 722 -24 746 -19 q 681 -16 699 -29 q 656 26 663 -3 q 646 135 646 71 q 646 447 646 299 q 640 594 646 533 q 631 642 636 625 q 601 583 619 626 q 508 269 561 485 q 488 178 492 199 q 462 142 483 151 q 417 146 440 132 q 408 150 414 146 q 400 156 403 154 q 364 218 363 172 q 374 435 372 382 q 385 725 376 507 q 385 765 385 726 q 376 759 379 763 q 371 753 372 756 q 367 744 369 750 q 365 738 365 739 q 264 399 310 594 q 240 288 256 363 q 211 154 225 213 q 182 43 197 96 q 146 -46 164 -18 q 93 -78 125 -79 q 44 -39 57 -75 q 28 44 33 -7 q 25 640 -4 350 q 33 674 28 661 q 85 701 49 706 q 125 664 118 697 q 125 611 131 638 q 121 586 121 590 q 121 276 121 519 q 133 306 129 283 q 251 746 186 568 q 314 882 281 825 q 351 935 335 918 q 417 958 382 964 q 471 913 453 951 q 489 831 485 885 q 492 653 496 756 q 492 615 490 622 q 498 620 496 617 q 501 626 500 624 q 504 632 503 628 q 507 639 506 636 q 561 743 538 710 q 645 792 599 797 q 719 729 692 788 q 751 556 746 669 q 753 299 756 496 q 757 86 751 154 q 763 46 758 71 z "},"n":{"ha":525,"x_min":4,"x_max":515,"o":"m 513 593 q 514 318 515 542 q 514 61 514 282 q 507 15 514 29 q 467 -16 494 -12 q 421 6 440 -19 q 406 53 407 25 q 404 183 404 168 q 405 382 404 253 q 406 533 406 511 q 399 632 406 582 q 390 628 394 631 q 384 623 386 625 q 378 615 382 621 q 375 610 375 610 q 286 440 325 540 q 176 63 228 293 q 178 6 168 24 q 179 -10 181 0 q 155 -53 179 -29 q 107 -81 131 -76 q 67 -72 86 -83 q 38 -37 47 -60 q 19 47 25 -7 q 15 479 4 193 q 19 569 17 510 q 24 638 22 628 q 32 678 25 665 q 78 703 47 706 q 119 671 108 701 q 124 633 122 660 q 119 321 124 490 q 119 306 119 321 q 122 306 119 306 q 125 306 124 306 q 161 418 160 413 q 251 618 200 529 q 306 699 278 664 q 354 747 331 729 q 438 770 397 782 q 496 704 478 758 q 513 593 510 664 z "},"o":{"ha":508,"x_min":-3,"x_max":497,"o":"m 497 526 q 497 479 497 524 q 392 125 492 282 q 301 22 353 63 q 263 -4 281 6 q 150 -20 203 -37 q 68 60 97 -3 q 46 147 51 99 q 31 207 43 179 q 18 378 -3 278 q 111 613 44 504 q 207 714 153 679 q 386 715 297 771 q 497 526 485 654 m 381 393 q 385 539 397 481 q 335 618 375 592 q 297 633 314 633 q 258 618 281 633 q 192 519 206 579 q 150 226 158 389 q 154 160 154 165 q 169 100 157 124 q 185 85 178 88 q 206 88 192 82 q 239 111 221 94 q 311 200 281 146 q 381 393 361 285 z "},"p":{"ha":476,"x_min":1,"x_max":478,"o":"m 463 607 q 414 89 476 333 q 374 -8 399 33 q 278 -86 336 -72 q 158 -61 221 -100 q 150 -55 156 -60 q 139 -47 144 -50 q 126 -44 133 -44 q 181 -394 149 -283 q 206 -451 189 -424 q 217 -492 219 -472 q 197 -524 214 -511 q 162 -535 182 -537 q 124 -517 142 -533 q 88 -460 103 -499 q 46 -283 64 -396 q 11 311 3 -14 q 26 604 17 507 q 33 669 31 644 q 47 708 38 693 q 92 732 64 733 q 132 703 121 731 q 136 644 146 672 q 131 624 131 631 q 124 450 129 593 q 132 451 129 450 q 135 454 135 453 q 138 460 136 456 q 139 464 139 464 q 246 669 193 585 q 299 743 275 718 q 383 780 340 789 q 444 711 426 771 q 463 607 460 664 m 314 136 q 357 564 361 335 q 351 625 357 565 q 331 601 342 619 q 172 247 246 460 q 169 225 167 231 q 168 146 183 200 q 215 32 147 76 q 253 20 239 17 q 282 49 268 24 q 314 136 301 82 z "},"q":{"ha":513,"x_min":-10,"x_max":517,"o":"m 511 696 q 494 358 497 399 q 479 -476 467 -151 q 503 -674 485 -611 q 478 -735 515 -717 q 414 -719 443 -753 q 390 -672 399 -703 q 374 -539 379 -625 q 369 -6 360 -307 q 376 181 371 6 q 368 174 371 178 q 363 163 365 171 q 361 156 361 156 q 299 13 328 65 q 247 -54 274 -31 q 160 -90 206 -93 q 79 -40 114 -86 q 17 124 31 22 q 68 481 -10 297 q 132 581 92 536 q 361 636 228 688 q 376 631 361 636 q 390 673 383 644 q 397 708 396 701 q 407 740 407 739 q 461 772 424 775 q 508 732 496 769 q 511 696 513 719 m 351 506 q 338 533 356 522 q 280 547 311 550 q 225 521 249 543 q 167 433 189 489 q 118 213 121 325 q 122 147 122 150 q 158 38 131 82 q 169 26 165 26 q 183 35 174 25 q 222 103 203 60 q 351 506 282 235 z "},"r":{"ha":346,"x_min":7,"x_max":356,"o":"m 340 724 q 318 663 356 683 q 278 619 296 649 q 164 343 201 501 q 164 310 160 328 q 167 285 168 296 q 159 267 165 275 q 140 253 153 260 q 126 225 124 244 q 153 65 138 118 q 186 3 164 25 q 194 -54 211 -21 q 140 -82 179 -86 q 82 -43 106 -78 q 43 53 58 -8 q 10 422 8 204 q 43 719 11 582 q 72 769 51 754 q 117 776 94 783 q 149 743 140 768 q 142 669 161 699 q 130 623 132 654 q 126 588 128 592 q 130 586 128 588 q 133 585 132 585 q 149 614 149 614 q 225 728 185 685 q 285 760 253 758 q 340 724 328 761 z "},"s":{"ha":325,"x_min":-29,"x_max":325,"o":"m 214 769 q 293 730 263 771 q 311 636 324 689 q 294 611 307 621 q 265 601 281 601 q 219 638 231 601 q 218 646 219 640 q 213 663 217 657 q 192 644 201 658 q 171 360 94 489 q 224 268 197 315 q 196 -14 306 121 q 97 -104 149 -71 q 46 -124 71 -122 q 15 -118 29 -125 q -10 -99 0 -111 q -22 -71 -19 -87 q -21 -18 -28 -44 q 6 16 -12 7 q 49 15 25 25 q 81 21 67 7 q 128 78 113 54 q 138 197 167 136 q 92 279 128 217 q 38 401 47 354 q 121 724 -3 575 q 214 769 158 768 z "},"t":{"ha":229,"x_min":-349,"x_max":1065,"o":"m 272 933 l 438 971 q 575 1003 464 978 q 746 1040 686 1028 q 972 1088 775 1047 q 1000 1092 992 1092 q 1033 1084 1018 1093 q 1051 1060 1047 1075 q 1033 1001 1064 1024 q 967 975 1011 985 q 919 965 947 971 q 864 955 890 960 q 817 944 838 950 q 429 857 703 919 l 286 825 q 171 799 183 801 q 161 795 165 797 q 156 786 157 793 q 154 778 154 779 q 153 768 154 776 q 140 514 142 542 q 190 -290 129 118 q 194 -311 192 -299 q 199 -335 197 -324 q 203 -357 201 -347 q 196 -393 206 -378 q 168 -414 186 -408 q 131 -414 149 -421 q 104 -389 114 -407 q 92 -354 97 -376 q 83 -311 88 -340 q 35 613 15 133 q 43 747 35 614 q 39 767 43 761 q -78 740 28 765 q -155 722 -104 735 q -229 704 -206 710 q -276 697 -257 697 q -302 701 -289 696 q -324 716 -315 707 q -336 738 -332 725 q -311 799 -347 774 q -224 817 -260 835 q -200 819 -218 813 q 24 876 -125 842 q 51 885 47 881 q 57 915 56 890 q 94 1260 69 1065 q 100 1288 97 1278 q 157 1321 118 1328 q 186 1303 175 1318 q 196 1268 197 1289 q 188 1165 194 1258 q 178 1049 185 1126 q 168 932 171 971 q 169 913 167 915 q 188 914 172 911 q 272 933 207 918 z "},"u":{"ha":489,"x_min":-12,"x_max":488,"o":"m 478 -54 q 444 -122 486 -111 q 407 -118 425 -128 q 378 -85 389 -108 q 358 3 364 -56 q 346 153 357 15 q 345 165 346 157 q 344 175 344 172 q 340 175 343 175 q 306 108 308 113 q 254 46 285 71 q 171 18 214 14 q 94 61 128 22 q 51 138 68 93 q 21 522 -12 319 q 29 550 24 536 q 56 580 39 571 q 92 582 74 589 q 108 572 101 579 q 120 557 115 565 q 127 538 125 549 q 126 518 129 528 q 114 435 117 478 q 117 349 111 393 q 130 269 122 306 q 150 186 138 233 q 171 140 157 161 q 182 131 178 131 q 194 139 186 131 q 228 193 211 157 q 286 381 254 250 q 339 633 319 515 q 342 649 340 643 q 400 696 356 699 q 435 680 421 694 q 451 642 449 665 q 453 607 453 631 q 451 357 451 447 q 464 32 450 185 q 478 -54 464 32 z "},"v":{"ha":499,"x_min":3,"x_max":519,"o":"m 504 793 q 511 729 519 767 q 458 517 506 703 q 364 154 390 256 q 340 86 356 119 q 318 49 331 63 q 267 19 297 22 q 211 40 236 17 q 164 101 189 58 q 89 281 124 172 q 33 517 61 365 q 17 581 26 556 q 11 604 13 593 q 40 660 4 646 q 99 642 75 674 q 121 586 111 624 q 149 477 131 549 q 171 390 167 406 q 233 204 199 281 q 256 171 246 178 q 278 253 261 189 q 397 719 388 683 q 401 734 399 726 q 405 751 403 742 q 408 765 407 760 q 421 797 413 785 q 464 818 438 819 q 504 793 490 817 z "},"w":{"ha":550,"x_min":1,"x_max":542,"o":"m 531 744 q 539 692 542 724 q 499 182 522 343 q 476 90 490 126 q 396 15 449 22 q 297 64 343 7 q 257 131 276 90 q 255 139 257 133 q 250 149 253 144 q 243 156 247 153 q 218 94 221 100 q 183 44 204 63 q 126 26 157 22 q 76 56 96 29 q 49 118 61 76 q 18 297 29 185 q 17 588 3 460 q 24 628 19 613 q 47 659 31 647 q 79 671 63 671 q 126 624 117 668 q 119 551 138 574 q 117 531 117 547 q 138 228 117 375 q 142 217 138 228 q 154 249 149 225 q 166 299 160 271 q 179 356 172 328 q 192 407 186 385 q 201 436 197 426 q 247 467 217 465 q 296 443 278 469 q 311 396 307 425 q 338 238 325 285 q 376 142 353 172 q 397 242 389 169 q 431 699 419 432 q 436 739 432 726 q 481 774 449 771 q 531 744 515 776 z "},"x":{"ha":540,"x_min":17,"x_max":535,"o":"m 142 564 q 229 440 167 519 q 238 447 235 443 q 246 457 242 450 q 251 465 250 464 q 411 628 329 564 q 456 654 438 649 q 499 650 478 661 q 525 618 519 639 q 528 594 529 606 q 522 573 526 582 q 507 557 517 564 q 486 547 497 550 q 446 526 465 544 q 313 365 388 468 q 315 330 300 347 q 358 278 329 313 q 404 224 386 244 q 448 174 422 203 q 496 122 474 146 q 517 96 513 107 q 509 35 535 61 q 449 25 483 8 q 410 56 433 32 q 265 219 374 92 q 240 244 247 240 q 204 157 217 206 q 207 106 197 129 q 217 79 214 89 q 197 21 226 40 q 136 28 167 1 q 94 106 101 57 q 103 201 88 149 q 151 310 124 265 q 146 369 171 339 q 53 514 92 436 q 24 589 29 560 q 25 632 18 613 q 55 663 35 653 q 97 665 75 672 q 138 596 153 647 q 142 564 132 579 z "},"y":{"ha":522,"x_min":1,"x_max":533,"o":"m 525 731 q 529 675 532 710 q 504 442 524 600 q 451 -385 450 1 q 460 -518 451 -457 q 460 -546 463 -535 q 426 -583 453 -575 q 376 -571 399 -592 q 350 -515 356 -553 q 343 -425 344 -481 q 357 68 339 -210 q 356 97 358 90 q 325 32 328 36 q 269 -43 301 -17 q 192 -74 233 -74 q 114 -42 150 -74 q 51 56 76 -8 q 14 229 21 132 q 25 590 3 396 q 38 629 28 614 q 85 651 54 656 q 124 619 117 647 q 126 611 124 618 q 128 602 128 604 q 131 593 129 600 q 133 583 132 586 q 134 575 133 581 q 134 565 135 569 q 133 556 133 561 q 130 547 132 551 q 125 538 128 543 q 121 517 121 531 q 120 442 121 490 q 119 362 119 393 q 119 288 118 331 q 125 211 121 246 q 163 72 135 126 q 167 66 164 71 q 171 58 169 61 q 175 51 172 56 q 180 45 178 47 q 185 41 182 43 q 193 39 189 39 q 201 41 197 39 q 209 47 206 43 q 215 54 213 51 q 219 63 217 57 q 224 72 222 69 q 269 185 244 108 q 375 567 314 319 q 417 714 382 590 q 425 738 419 729 q 475 768 442 769 q 525 731 511 768 z "},"z":{"ha":549,"x_min":8,"x_max":647,"o":"m 624 189 q 599 114 647 150 q 532 81 571 94 q 183 -4 358 22 q 106 -3 139 -11 q 28 93 31 17 q 43 174 26 129 q 133 343 72 250 q 174 402 151 372 q 223 469 196 432 q 265 526 250 507 q 299 576 267 529 q 133 535 207 564 q 115 518 122 531 q 79 497 104 501 q 38 501 54 493 q 19 517 26 507 q 10 539 11 526 q 13 565 8 551 q 53 607 21 589 q 304 686 171 672 q 347 688 326 689 q 409 654 389 683 q 421 586 429 625 q 399 533 414 563 q 335 438 381 500 q 298 389 328 429 q 256 332 268 349 q 224 284 244 315 q 189 226 204 253 q 142 128 156 168 q 140 105 136 110 q 164 103 143 100 q 351 140 232 111 q 550 204 464 169 q 624 189 601 226 z "},"{":{"ha":567,"x_min":8,"x_max":568,"o":"m 549 1338 q 544 1279 568 1306 q 490 1268 521 1253 q 443 1258 467 1279 q 403 1189 417 1235 q 383 1065 390 1150 q 358 871 372 928 q 246 632 328 744 q 175 557 213 586 q 167 529 158 546 q 190 421 186 489 q 228 119 201 221 q 336 -58 256 8 q 417 -89 376 -90 q 432 -90 424 -89 q 471 -126 464 -97 q 453 -176 478 -157 q 374 -194 419 -203 q 278 -150 325 -186 q 133 56 171 -67 q 89 292 100 161 q 86 330 88 310 q 83 367 85 350 q 81 404 82 383 q 78 442 79 425 q 42 501 75 485 q 10 548 11 518 q 38 599 8 578 q 81 624 46 604 q 154 690 125 650 q 265 969 250 819 q 273 1049 267 979 q 283 1156 279 1119 q 353 1314 294 1249 q 465 1374 403 1371 q 549 1338 526 1375 z "},"|":{"ha":207,"x_min":10,"x_max":197,"o":"m 176 1499 q 183 1494 176 1499 q 193 1473 189 1489 q 196 1417 197 1457 q 179 1128 194 1317 q 142 575 157 854 q 119 -21 126 299 q 121 -212 115 -146 q 119 -246 122 -231 q 81 -283 111 -276 q 32 -264 50 -289 q 11 -199 14 -239 q 10 -99 10 -151 q 19 299 10 35 q 60 1000 33 650 q 92 1378 79 1267 q 93 1440 92 1383 q 100 1476 94 1463 q 147 1510 113 1511 q 176 1499 164 1510 z "},"}":{"ha":358,"x_min":3,"x_max":363,"o":"m 335 542 q 335 465 363 501 q 310 375 306 429 q 318 153 321 224 q 286 -3 314 67 q 219 -100 263 -61 q 89 -183 179 -135 q 28 -176 56 -201 q 11 -122 4 -156 q 40 -87 17 -101 q 94 -56 89 -58 q 206 121 190 -8 q 203 344 214 188 q 219 486 196 435 q 217 511 226 500 q 147 729 144 590 q 171 936 149 783 q 174 1169 192 1078 q 138 1256 164 1225 q 94 1274 117 1279 q 64 1278 81 1271 q 34 1313 39 1289 q 47 1358 29 1338 q 117 1378 74 1385 q 231 1306 183 1367 q 286 1161 274 1247 q 292 1071 293 1108 q 271 872 292 1003 q 256 719 257 781 q 318 560 253 618 q 335 542 328 553 z "},"~":{"ha":572,"x_min":1,"x_max":564,"o":"m 521 1282 q 552 1262 540 1278 q 563 1225 564 1246 q 497 1106 560 1150 q 363 1085 433 1061 q 271 1136 314 1100 q 211 1188 232 1169 q 185 1204 196 1200 q 137 1208 158 1218 q 108 1168 115 1197 q 108 1161 108 1165 q 107 1153 107 1157 q 106 1146 107 1149 q 57 1103 99 1101 q 35 1108 46 1103 q 19 1124 25 1114 q 11 1149 13 1135 q 45 1263 3 1213 q 153 1317 88 1314 q 163 1317 154 1317 q 269 1279 222 1318 q 339 1221 293 1261 q 383 1192 363 1201 q 451 1222 433 1171 q 453 1228 453 1225 q 455 1235 454 1232 q 456 1241 456 1238 q 458 1247 457 1244 q 484 1277 467 1267 q 521 1282 501 1288 z "}," ":{"ha":344,"x_min":0,"x_max":0,"o":""},"¡":{"ha":172,"x_min":1,"x_max":163,"o":"m 131 15 q 140 -43 133 -8 q 138 -87 147 -68 q 106 -112 128 -106 q 65 -108 83 -119 q 38 -74 46 -97 q 19 32 26 -42 q 17 546 3 236 q 38 864 18 574 q 39 883 38 878 q 57 913 43 901 q 88 924 71 924 q 119 913 106 924 q 138 883 132 901 q 139 839 140 868 q 121 424 131 660 q 131 15 113 192 m 101 1192 q 144 1178 126 1193 q 163 1142 161 1164 q 144 1104 163 1121 q 101 1086 125 1088 q 76 1094 88 1086 q 57 1115 64 1101 q 50 1143 50 1128 q 65 1178 50 1164 q 101 1192 79 1192 z "},"¢":{"ha":461,"x_min":-3,"x_max":457,"o":"m 378 518 q 431 517 406 535 q 450 468 456 500 q 403 401 444 428 q 328 372 371 379 q 301 346 303 369 q 299 242 297 300 q 313 140 300 185 q 301 85 322 108 q 267 69 288 69 q 229 85 246 69 q 197 158 206 107 q 194 204 194 179 q 194 245 193 229 q 197 293 194 261 q 200 336 200 325 q 203 354 201 344 q 189 374 206 371 q 185 374 188 374 q 182 375 183 375 q 50 459 101 390 q 13 632 -1 528 q 179 918 38 817 q 190 944 192 926 q 188 1000 188 969 q 189 1053 188 1031 q 193 1109 190 1075 q 196 1163 196 1143 q 211 1200 197 1186 q 244 1214 225 1214 q 268 1208 257 1214 q 286 1191 279 1203 q 294 1164 293 1179 q 294 1067 294 1157 l 296 1067 q 296 989 296 994 q 301 959 297 963 q 328 954 304 956 q 407 926 372 950 q 443 885 435 908 q 426 828 456 849 q 399 819 414 819 q 371 829 383 819 q 307 853 343 856 q 229 822 263 851 q 119 604 129 733 q 144 515 115 549 q 229 478 174 482 q 289 476 261 475 q 363 507 336 481 q 378 518 369 513 z "},"£":{"ha":785,"x_min":4,"x_max":783,"o":"m 696 1226 q 764 1171 744 1208 q 771 1085 783 1133 q 761 1051 764 1061 q 706 1021 746 1013 q 678 1038 689 1025 q 668 1068 668 1050 q 671 1088 668 1075 q 674 1103 674 1100 q 674 1115 674 1110 q 672 1122 675 1119 q 666 1127 669 1125 q 654 1131 663 1129 q 557 1115 608 1140 q 454 1014 492 1086 q 411 849 418 946 q 406 761 411 846 l 404 761 q 404 678 404 683 q 408 654 404 657 q 431 654 411 651 q 578 681 554 676 q 636 689 597 685 q 661 689 650 690 q 714 644 710 683 q 676 589 718 607 q 647 581 663 583 q 613 576 632 578 q 583 572 594 574 q 421 543 464 550 q 410 540 414 542 q 402 534 406 538 q 397 526 399 531 q 396 515 396 522 q 356 310 385 392 q 353 301 353 304 q 344 283 351 299 q 340 257 336 267 q 347 249 342 253 q 356 242 351 244 q 367 237 361 240 q 378 231 374 233 q 604 144 475 168 q 668 146 638 138 q 678 149 676 149 q 746 126 728 161 q 721 57 765 88 q 651 33 693 36 q 528 50 601 29 q 306 147 401 83 q 280 159 286 160 q 257 143 274 158 q 160 99 214 103 q 60 129 107 96 q 18 180 31 150 q 13 240 6 210 q 104 328 31 313 q 215 315 150 336 q 236 311 232 310 q 247 329 240 313 q 285 496 274 399 q 283 514 286 511 q 264 515 279 517 q 215 506 244 511 q 181 503 196 501 q 149 517 161 506 q 135 546 136 529 q 171 597 131 586 q 242 614 179 600 q 287 631 281 624 q 296 679 293 639 q 297 740 296 699 q 299 813 297 781 q 304 872 301 844 q 367 1081 317 996 q 556 1231 436 1197 q 696 1226 629 1251 m 131 217 q 146 210 142 211 q 163 211 150 210 q 147 219 151 218 q 131 217 143 219 z "},"¤":{"ha":690,"x_min":7,"x_max":694,"o":"m 672 914 q 669 850 694 883 q 638 824 658 836 q 507 718 582 790 q 493 667 483 696 q 481 476 528 565 q 483 444 471 460 q 558 371 529 390 q 575 357 568 364 q 582 299 599 331 q 525 275 563 267 q 472 306 500 281 q 410 379 438 338 q 381 389 397 396 q 204 374 290 349 q 179 364 189 379 q 144 300 154 326 q 124 265 138 278 q 69 254 99 242 q 40 301 39 267 q 50 344 40 318 q 101 426 67 381 q 106 454 113 442 q 118 714 42 574 q 113 768 135 744 q 57 843 106 776 q 29 874 42 863 q 10 906 13 888 q 19 940 7 924 q 53 959 32 956 q 93 953 75 963 q 119 926 103 947 q 194 833 185 846 q 228 825 210 815 q 364 814 299 860 q 377 804 368 810 q 394 793 386 799 q 407 783 401 788 q 435 786 421 771 q 546 892 488 846 q 613 931 586 922 q 672 914 650 942 m 232 479 q 343 492 289 456 q 397 593 397 528 q 329 704 400 661 q 317 711 328 706 q 303 721 307 717 q 276 735 285 735 q 253 718 268 735 q 186 560 188 653 q 197 514 186 538 q 232 479 207 490 z "},"¥":{"ha":681,"x_min":7,"x_max":672,"o":"m 664 1242 q 493 876 606 1088 q 424 718 454 803 q 518 738 507 735 q 564 742 546 743 q 605 726 589 740 q 622 692 621 713 q 610 656 624 672 q 574 636 597 640 q 418 603 506 625 q 374 586 381 594 q 364 539 367 578 q 364 458 361 478 q 514 488 492 483 q 560 497 560 497 q 611 468 596 500 q 599 411 625 438 q 543 383 578 390 q 388 353 489 372 q 363 345 367 349 q 360 322 360 342 q 374 160 361 242 q 392 100 379 125 q 400 71 400 85 q 379 24 403 40 q 328 22 356 8 q 285 74 300 36 q 261 183 271 111 q 254 253 257 208 q 251 308 251 299 q 247 326 250 324 q 228 326 243 329 q 193 318 215 324 q 161 311 171 313 q 128 307 136 307 q 99 317 111 307 q 82 342 86 326 q 104 394 72 376 q 131 406 114 400 q 233 432 193 422 q 251 450 251 436 q 260 557 253 460 q 185 535 239 556 q 131 518 150 521 q 92 524 110 514 q 69 553 74 533 q 74 589 64 572 q 104 614 83 606 q 218 658 200 651 q 225 679 233 664 q 26 1150 107 879 q 13 1201 18 1176 q 13 1242 7 1222 q 44 1276 21 1268 q 90 1269 67 1285 q 123 1235 113 1251 q 125 1193 133 1218 q 128 1169 122 1185 q 286 792 224 908 q 313 747 304 756 q 321 757 318 749 q 358 848 336 799 q 394 924 381 897 q 442 1015 408 951 q 483 1094 475 1079 q 563 1261 538 1199 q 583 1300 575 1289 q 638 1317 607 1329 q 671 1268 671 1306 q 664 1242 671 1257 z "},"¦":{"ha":199,"x_min":8,"x_max":190,"o":"m 122 132 q 143 18 125 67 q 122 -57 165 -36 q 49 -26 82 -76 q 21 51 31 0 q 15 96 17 78 q 10 219 8 179 q 36 493 8 322 q 40 515 38 499 q 44 539 43 531 q 65 576 47 561 q 121 583 92 599 q 144 533 150 567 q 119 247 122 399 q 122 132 119 189 m 186 1288 q 189 1249 189 1275 q 161 1029 185 1201 q 144 856 146 914 q 150 765 143 803 q 153 735 153 750 q 119 688 151 697 q 64 706 86 676 q 39 769 46 729 q 43 960 31 826 q 55 1047 47 1000 q 72 1147 63 1094 q 86 1233 82 1199 q 89 1281 86 1236 q 103 1315 92 1301 q 133 1329 114 1328 q 186 1288 175 1333 z "},"§":{"ha":590,"x_min":-6,"x_max":583,"o":"m 329 1196 q 274 1189 303 1199 q 221 1160 244 1179 q 185 1118 197 1142 q 192 1072 172 1092 q 221 1044 210 1053 q 303 985 249 1022 q 371 939 357 949 q 551 725 513 839 q 563 619 569 672 q 490 501 553 543 q 476 489 478 493 q 486 474 476 486 q 524 326 535 411 q 457 181 514 246 q 324 99 400 117 q 164 115 249 82 q 36 211 79 149 q 18 333 -4 269 q 38 364 25 353 q 85 374 60 382 q 118 339 110 367 q 119 321 121 326 q 126 272 113 290 q 171 233 140 253 q 189 222 178 228 q 294 204 247 194 q 372 249 340 214 q 415 335 404 285 q 397 411 425 378 q 301 472 354 461 q 178 544 218 490 q 167 556 172 551 q 90 642 132 576 q 78 814 39 721 q 157 917 101 874 q 164 922 158 918 q 173 928 169 925 q 179 936 176 932 q 119 989 122 988 q 100 1188 31 1079 q 233 1290 147 1260 q 397 1292 319 1319 q 538 1213 488 1258 q 581 1115 583 1169 q 538 1063 579 1067 q 503 1072 518 1061 q 486 1106 489 1083 q 460 1146 482 1131 q 329 1196 400 1186 m 190 794 q 222 651 139 719 q 278 616 240 636 q 326 589 315 596 q 413 585 364 564 q 447 608 438 594 q 456 649 456 622 q 431 728 456 685 q 307 850 396 786 q 276 856 296 857 q 190 794 226 850 z "},"¨":{"ha":454,"x_min":3,"x_max":444,"o":"m 386 729 q 444 636 442 703 q 393 531 440 569 q 315 510 357 500 q 254 565 272 521 q 249 643 239 600 q 288 713 258 686 q 386 729 333 753 m 150 729 q 208 636 207 703 q 157 531 204 569 q 78 510 121 500 q 18 565 36 521 q 14 643 4 600 q 51 713 24 686 q 150 729 99 753 z "},"©":{"ha":818,"x_min":1,"x_max":808,"o":"m 804 711 q 808 631 807 696 q 758 356 804 464 q 693 246 731 294 q 516 120 619 151 q 299 126 413 89 q 81 288 160 172 q 11 550 3 404 q 44 715 15 635 q 186 978 97 863 q 342 1106 256 1067 q 488 1129 419 1142 q 582 1054 565 1114 q 601 1036 585 1044 q 692 956 649 1010 q 804 711 786 836 m 658 399 q 689 505 681 449 q 701 650 697 561 q 497 964 681 885 q 463 1013 467 978 q 458 1028 461 1026 q 440 1029 454 1031 q 388 1010 415 1025 q 294 938 329 979 q 121 569 149 761 q 167 356 104 451 q 343 226 229 260 q 603 307 500 181 q 658 399 635 346 m 496 467 q 557 449 536 479 q 547 383 578 417 q 465 343 517 350 q 268 394 353 329 q 193 567 194 451 q 261 781 197 685 q 359 864 299 839 q 483 874 419 889 q 531 850 513 867 q 551 789 558 825 q 522 754 546 764 q 478 760 499 744 q 469 767 475 761 q 457 776 463 774 q 444 778 451 779 q 383 757 403 772 q 343 708 360 739 q 304 585 311 649 q 343 474 296 514 q 460 453 390 433 q 478 460 467 456 q 496 467 490 464 z "},"ª":{"ha":458,"x_min":-8,"x_max":456,"o":"m 447 76 q 413 11 456 25 q 374 14 393 4 q 346 47 356 24 q 335 92 338 64 q 328 213 328 140 q 322 208 324 211 q 318 203 319 206 q 315 198 317 201 q 314 193 314 194 q 274 115 290 140 q 228 65 253 82 q 161 44 196 43 q 96 67 126 44 q 28 169 47 104 q 51 422 -8 293 q 83 479 64 451 q 293 581 160 586 q 310 581 293 581 q 264 622 296 610 q 121 635 204 644 q 101 622 114 633 q 26 622 63 588 q 10 658 10 638 q 26 697 10 679 q 76 726 44 718 q 296 725 193 758 q 429 553 413 686 q 436 325 439 472 q 440 129 435 200 q 447 76 440 124 m 204 214 q 224 263 215 238 q 242 319 233 288 q 256 367 251 350 q 272 424 261 383 q 286 476 283 465 q 189 436 226 479 q 129 213 104 338 q 147 169 133 189 q 163 156 157 157 q 178 168 168 156 q 204 214 190 183 z "},"«":{"ha":633,"x_min":6,"x_max":625,"o":"m 353 97 q 364 82 360 90 q 370 45 374 64 q 351 14 367 26 q 285 13 319 -12 q 261 38 276 19 q 154 175 226 78 q 39 285 96 253 q 11 324 17 299 q 21 372 6 349 q 46 404 26 383 q 281 646 153 533 q 308 665 299 661 q 364 654 340 679 q 368 597 389 628 q 347 574 363 589 q 150 360 294 524 q 143 349 150 360 q 259 215 190 307 q 353 97 328 124 m 579 554 q 503 469 565 539 q 406 365 442 400 q 407 338 392 353 q 544 151 464 276 q 578 82 568 114 q 550 13 592 32 q 532 7 549 13 q 478 42 490 8 q 466 68 472 56 q 451 95 460 81 q 436 119 442 110 q 419 144 431 128 q 403 167 407 161 q 385 193 399 174 q 368 215 371 213 q 293 294 333 263 q 269 321 278 307 q 276 394 243 364 q 409 523 325 438 q 531 644 493 608 q 557 663 543 656 q 614 650 590 678 q 624 621 624 638 q 614 590 624 604 q 603 578 608 585 q 590 565 597 572 q 579 554 583 558 z "},"¬":{"ha":651,"x_min":7,"x_max":644,"o":"m 640 431 q 632 253 644 369 q 623 226 631 238 q 603 210 615 215 q 576 206 590 206 q 542 221 556 207 q 526 257 528 235 q 529 325 526 265 q 532 369 529 335 q 517 386 533 388 q 400 385 479 383 q 285 386 321 388 q 63 386 88 386 q 11 425 18 386 q 17 458 7 443 q 46 481 26 474 q 79 486 58 485 q 224 494 118 489 q 364 496 289 499 q 561 499 489 492 q 617 484 596 501 q 640 431 638 467 z "},"­":{"ha":0,"x_min":0,"x_max":0,"o":""},"®":{"ha":733,"x_min":-21,"x_max":725,"o":"m 714 1040 q 724 949 722 1004 q 642 689 722 797 q 417 557 554 572 q 203 611 303 544 q 24 878 64 704 q 76 1219 -21 1067 q 297 1372 158 1349 q 557 1303 436 1396 q 714 1040 678 1207 m 603 861 q 614 969 618 910 q 482 1222 600 1135 q 319 1265 406 1279 q 176 1175 232 1251 q 144 1118 154 1144 q 196 764 74 926 q 297 683 235 711 q 459 678 378 647 q 574 788 540 710 q 509 794 543 786 q 454 810 475 801 q 393 837 433 818 q 338 863 353 856 q 334 851 335 857 q 335 839 333 846 q 336 829 336 832 q 314 782 338 797 q 261 781 290 767 q 226 833 231 797 q 229 899 224 861 q 265 1063 238 956 q 264 1104 272 1086 q 279 1167 249 1140 q 303 1199 292 1178 q 331 1225 313 1219 q 368 1219 350 1231 q 410 1208 383 1210 q 493 1165 467 1204 q 504 1069 519 1126 q 440 975 489 1022 q 431 968 438 974 q 421 958 425 963 q 414 949 417 954 q 500 910 446 929 q 526 901 508 906 q 555 892 544 896 q 579 880 565 888 q 603 861 593 872 m 396 1092 q 394 1104 400 1101 q 379 1099 383 1110 q 378 1069 374 1081 q 396 1092 389 1076 z "},"¯":{"ha":360,"x_min":4,"x_max":353,"o":"m 299 857 q 331 844 318 854 q 348 819 343 833 q 349 788 353 804 q 288 750 336 746 q 196 751 264 753 q 67 750 104 746 q 33 760 44 753 q 11 808 4 779 q 47 847 17 840 q 65 849 58 850 q 99 848 75 847 q 133 849 124 849 q 168 853 143 850 q 203 856 193 856 q 299 857 268 863 z "},"°":{"ha":363,"x_min":-3,"x_max":354,"o":"m 199 851 q 313 785 274 828 q 353 657 351 742 q 306 513 354 576 q 186 431 258 449 q 87 441 131 418 q 24 517 43 464 q 19 670 -3 586 q 96 804 40 754 q 118 825 115 821 q 199 851 147 867 m 233 604 q 238 699 254 651 q 194 733 226 732 q 143 707 157 735 q 118 607 118 656 q 124 564 122 567 q 138 538 128 543 q 169 539 149 532 q 233 604 210 553 z "},"±":{"ha":528,"x_min":7,"x_max":519,"o":"m 488 715 q 518 672 515 704 q 493 626 518 644 q 444 610 475 614 q 394 602 429 607 q 342 594 360 597 q 323 590 326 593 q 321 569 319 586 q 335 461 324 497 q 334 418 342 438 q 307 390 326 399 q 266 391 286 382 q 235 422 246 400 q 215 501 224 443 q 214 526 215 508 q 204 571 211 565 q 157 569 197 576 q 78 544 100 558 q 44 541 61 536 q 17 561 28 546 q 10 597 7 576 q 26 629 13 617 q 60 647 36 639 q 183 679 106 665 q 210 688 206 683 q 215 714 214 692 q 219 765 217 731 q 222 817 221 800 q 226 850 224 842 q 248 883 232 872 q 284 891 264 894 q 317 869 304 888 q 326 831 331 851 q 321 732 322 814 q 324 706 319 708 q 349 706 328 703 q 379 710 361 707 q 414 715 397 713 q 444 719 431 717 q 488 715 469 722 m 440 371 q 475 356 461 369 q 489 324 489 343 q 476 289 489 304 q 443 265 464 274 q 379 253 426 260 q 287 240 349 249 q 194 226 225 231 q 139 214 156 221 q 103 213 121 207 q 65 254 68 224 q 90 301 63 285 q 131 315 104 310 q 392 365 238 340 q 440 371 435 372 z "},"²":{"ha":424,"x_min":4,"x_max":426,"o":"m 410 721 q 386 657 425 685 q 332 635 365 643 q 197 610 275 619 q 115 601 146 603 q 43 632 63 600 q 49 711 24 664 q 74 758 60 733 q 105 812 88 782 q 132 857 122 842 q 174 931 160 906 q 190 971 183 951 q 192 990 194 985 q 175 997 189 994 q 132 997 158 1000 q 111 982 118 996 q 42 954 85 933 q 13 987 21 965 q 15 1032 6 1008 q 57 1076 28 1060 q 242 1088 147 1125 q 294 1040 278 1072 q 301 967 310 1008 q 274 890 294 932 q 199 757 263 865 q 176 718 199 756 q 315 742 249 724 q 349 751 347 751 q 410 721 394 760 z "},"³":{"ha":356,"x_min":-3,"x_max":354,"o":"m 282 936 q 338 886 324 919 q 339 813 353 853 q 307 756 329 788 q 242 673 286 728 q 179 589 199 618 q 145 567 165 571 q 107 575 125 563 q 84 606 89 586 q 89 646 79 626 q 111 681 96 661 q 156 738 126 700 q 197 790 185 775 q 226 833 221 821 q 211 838 218 836 q 192 838 204 839 q 179 838 181 838 q 129 839 136 838 q 79 879 92 846 q 92 942 67 913 q 142 996 94 944 q 100 988 115 1000 q 85 978 92 981 q 49 974 68 969 q 19 993 31 979 q 19 1054 -3 1021 q 57 1082 32 1074 q 235 1097 151 1115 q 292 1054 278 1088 q 282 982 306 1021 q 257 946 281 981 q 265 941 260 943 q 275 938 269 939 q 282 936 281 936 z "},"´":{"ha":196,"x_min":6,"x_max":188,"o":"m 186 1403 q 186 1388 186 1403 q 171 1321 186 1360 q 119 1194 151 1271 q 104 1167 113 1179 q 36 1153 75 1132 q 12 1181 18 1163 q 14 1221 6 1200 q 51 1300 17 1224 q 92 1410 88 1379 q 109 1440 94 1429 q 142 1449 124 1450 q 172 1435 160 1447 q 186 1403 183 1422 z "},"¶":{"ha":511,"x_min":-8,"x_max":504,"o":"m 501 -262 q 501 -281 501 -275 q 488 -312 500 -300 q 458 -329 476 -325 q 401 -300 419 -336 q 393 -267 394 -289 q 385 -42 388 -226 q 383 146 383 -28 q 392 424 392 411 q 386 576 393 453 q 386 584 386 579 q 385 592 386 589 q 384 599 385 594 q 381 606 383 603 q 375 611 379 608 q 326 617 357 619 q 319 601 317 615 q 319 599 319 600 q 332 496 325 551 q 342 265 344 393 q 338 -94 335 46 q 347 -178 339 -150 q 343 -224 356 -201 q 308 -253 331 -247 q 266 -247 285 -258 q 239 -208 247 -235 q 231 -140 233 -185 q 231 188 226 -72 q 231 207 231 206 q 227 224 232 219 q 210 228 222 229 q 122 248 158 224 q 46 318 85 272 q 17 388 25 343 q 52 600 -8 503 q 224 717 113 697 q 438 693 338 739 q 485 615 490 669 q 485 587 485 601 q 490 551 486 572 q 494 522 493 531 q 497 300 503 444 q 501 -262 486 -24 z "},"·":{"ha":207,"x_min":-3,"x_max":203,"o":"m 197 431 q 157 326 201 368 q 76 303 119 292 q 17 363 32 314 q 29 474 -3 418 q 100 510 53 513 q 149 501 128 511 q 183 473 171 492 q 197 431 194 454 z "},"¸":{"ha":242,"x_min":8,"x_max":238,"o":"m 172 25 q 233 -79 228 -17 q 188 -192 238 -142 q 72 -243 140 -240 q 53 -240 53 -240 q 21 -221 32 -236 q 10 -186 10 -206 q 23 -153 10 -167 q 56 -136 36 -139 q 97 -125 90 -131 q 118 -105 111 -117 q 122 -82 125 -93 q 85 -53 115 -57 q 58 -49 68 -51 q 18 -12 26 -37 q 29 42 10 14 q 32 46 31 44 q 92 129 72 93 q 153 153 114 169 q 178 129 171 146 q 179 92 185 113 q 160 49 174 76 q 164 31 153 36 q 172 25 168 29 z "},"¹":{"ha":149,"x_min":10,"x_max":150,"o":"m 135 667 q 117 607 150 628 q 50 614 85 585 q 24 658 32 629 q 11 742 14 694 q 10 817 10 769 q 10 889 10 822 q 13 961 10 907 q 15 1044 17 1015 q 26 1083 14 1068 q 58 1100 38 1097 q 113 1056 100 1104 q 117 1008 117 1039 q 118 806 118 810 q 135 667 119 710 z "},"º":{"ha":508,"x_min":4,"x_max":531,"o":"m 468 506 q 465 221 529 357 q 328 92 422 131 q 140 90 233 54 q 42 173 78 114 q 10 304 6 232 q 128 560 21 454 q 286 619 206 636 q 353 617 326 624 q 468 506 433 593 m 364 264 q 368 464 411 356 q 301 514 347 515 q 283 518 292 514 q 218 503 250 533 q 119 310 132 421 q 182 192 118 214 q 286 193 233 172 q 364 264 339 214 z "},"»":{"ha":688,"x_min":4,"x_max":694,"o":"m 660 360 q 656 274 694 315 q 407 -4 518 126 q 357 -32 383 -32 q 312 -6 326 -32 q 311 46 297 19 q 329 72 315 54 q 381 131 353 99 q 431 188 408 163 q 483 247 453 213 q 535 304 514 281 q 549 323 549 319 q 539 343 549 326 q 518 378 522 369 q 354 579 471 482 q 339 596 344 588 q 340 657 317 628 q 397 668 364 683 q 424 651 410 663 q 535 550 481 606 q 599 458 575 507 q 660 360 628 400 m 360 367 q 374 318 376 338 q 347 276 372 299 q 115 19 210 149 q 78 -12 97 -7 q 65 -15 78 -12 q 20 6 36 -15 q 13 54 4 28 q 35 92 15 64 q 235 319 103 188 q 248 337 247 332 q 239 357 249 342 q 96 546 165 468 q 61 576 85 558 q 44 638 26 601 q 67 660 51 653 q 103 663 83 667 q 138 643 119 658 q 194 589 167 621 q 360 367 306 467 z "},"¼":{"ha":497,"x_min":6,"x_max":490,"o":"m 488 -17 q 485 -49 489 -35 q 467 -75 481 -65 q 436 -85 453 -85 q 383 -43 399 -85 q 374 28 376 -24 q 372 50 372 38 q 372 73 372 63 q 371 96 371 83 q 369 118 371 108 q 369 131 369 124 q 369 141 369 139 q 368 147 369 143 q 365 151 367 150 q 358 152 363 151 q 349 151 354 153 q 333 149 343 150 q 260 138 331 149 q 228 139 246 135 q 198 153 211 142 q 178 180 185 164 q 175 214 172 196 q 200 275 179 239 q 275 371 226 317 q 347 449 317 415 q 435 447 393 497 q 456 433 440 442 q 483 378 490 417 q 482 229 472 299 q 481 201 483 219 q 478 176 478 183 q 488 -17 481 43 m 372 274 q 375 328 376 319 q 324 261 335 285 q 337 260 333 260 q 349 262 340 260 q 361 264 358 264 q 372 274 372 265 m 269 488 q 146 225 188 325 q 131 153 128 181 q 129 141 131 147 q 125 130 128 135 q 118 120 122 125 q 109 113 114 115 q 98 108 104 110 q 86 104 92 106 q 48 115 67 103 q 24 147 29 128 q 21 169 24 149 q 38 244 21 201 q 156 503 76 346 q 282 764 253 693 q 300 811 285 772 q 304 863 310 840 q 329 922 296 896 q 368 933 347 938 q 401 910 389 929 q 413 856 415 889 q 364 682 406 789 q 269 488 343 631 m 106 482 q 71 476 90 472 q 38 493 51 479 q 14 540 19 511 q 13 643 7 578 q 31 829 18 708 q 33 879 33 851 q 43 917 32 903 q 74 933 54 931 q 108 925 93 936 q 129 893 122 914 q 133 856 133 876 q 133 785 133 850 l 131 785 q 119 607 121 628 q 126 544 118 571 q 106 482 140 501 z "},"½":{"ha":522,"x_min":7,"x_max":515,"o":"m 433 840 q 374 683 407 765 q 296 497 340 601 q 231 343 251 393 q 151 139 210 293 q 138 88 138 103 q 122 49 138 65 q 84 34 106 33 q 47 51 63 35 q 29 93 32 68 q 29 99 29 93 q 42 153 29 119 q 179 501 88 286 q 331 853 271 715 q 337 869 333 858 q 344 890 340 881 q 354 907 349 899 q 401 932 372 933 q 432 917 419 931 q 444 882 444 903 q 433 840 444 871 m 513 -11 q 510 -36 514 -25 q 497 -56 507 -47 q 475 -69 488 -65 q 454 -74 467 -72 q 326 -85 383 -81 q 289 -86 304 -87 q 230 -56 250 -83 q 221 10 210 -29 q 244 67 225 29 q 297 169 292 156 q 304 196 306 190 q 292 193 301 197 q 242 199 265 181 q 222 251 218 217 q 235 289 224 269 q 303 347 260 328 q 389 347 351 369 q 431 271 426 325 q 415 176 433 232 q 367 63 399 124 q 351 29 353 36 q 435 33 426 33 q 464 33 451 35 q 497 19 483 31 q 513 -11 510 7 m 60 474 q 24 515 35 486 q 11 576 14 543 q 11 711 8 639 q 18 849 18 838 q 34 889 19 874 q 71 903 49 904 q 95 893 83 901 q 113 872 107 885 q 118 843 119 858 q 118 621 114 761 q 132 536 119 565 q 118 479 144 503 q 60 474 93 458 z "},"¾":{"ha":672,"x_min":7,"x_max":667,"o":"m 660 313 q 646 269 651 292 q 636 213 640 246 q 629 167 632 179 q 635 32 614 86 q 635 -5 642 11 q 613 -31 629 -21 q 549 -21 579 -50 q 518 49 525 1 q 515 122 513 78 q 446 107 451 108 q 401 103 424 101 q 347 124 367 104 q 324 179 326 144 q 321 194 324 189 q 303 163 315 185 q 283 129 290 142 q 269 97 276 117 q 258 61 261 78 q 231 14 254 29 q 180 9 206 -1 q 147 49 154 19 q 154 104 143 71 q 203 208 167 139 q 267 328 231 265 q 347 465 303 390 q 415 581 392 539 q 496 722 426 599 q 500 757 507 740 q 521 819 485 790 q 593 829 558 850 q 621 768 626 810 q 596 692 617 743 q 471 460 565 619 q 431 392 457 436 q 396 333 406 349 q 382 308 396 333 q 386 306 383 307 q 453 382 442 369 q 492 426 482 417 q 535 447 510 447 q 585 418 572 449 q 571 364 596 389 q 540 331 556 350 q 514 299 524 313 q 485 260 504 286 q 458 224 467 235 q 528 242 468 225 q 542 261 536 244 q 551 293 544 271 q 561 326 557 315 q 588 364 568 351 q 640 365 615 382 q 660 342 654 356 q 660 313 665 328 m 324 518 q 178 376 297 488 q 139 360 160 360 q 101 378 118 361 q 86 415 86 393 q 103 453 86 436 q 162 511 122 474 q 207 553 201 549 q 239 589 233 579 q 179 593 221 596 q 159 592 179 593 q 129 590 139 590 q 71 625 88 590 q 82 692 54 658 q 126 739 85 696 q 133 746 129 742 q 140 753 136 750 q 147 760 143 756 q 156 769 151 765 q 106 753 122 775 q 69 733 92 735 q 29 746 47 731 q 10 785 13 761 q 22 825 8 808 q 39 839 31 835 q 207 872 122 890 q 276 820 258 861 q 265 733 293 779 q 246 706 264 732 q 254 700 250 701 q 265 697 258 699 q 274 696 272 696 q 325 675 307 688 q 361 628 353 656 q 357 571 369 600 q 324 518 347 544 z "},"¿":{"ha":381,"x_min":-8,"x_max":379,"o":"m 344 188 q 369 125 379 169 q 317 54 360 79 q 115 35 219 -1 q 29 125 57 57 q 26 329 -7 214 q 149 550 63 449 q 165 569 156 558 q 182 589 175 581 q 198 608 189 597 q 215 628 207 619 q 253 729 249 668 q 242 775 256 758 q 233 816 229 793 q 254 850 238 839 q 294 858 271 863 q 331 836 317 854 q 353 769 349 813 q 354 732 354 768 q 286 543 357 625 q 210 453 229 478 q 119 242 133 351 q 128 171 115 206 q 178 132 140 133 q 283 171 251 128 q 344 188 308 206 m 269 960 q 241 967 254 960 q 220 986 228 974 q 211 1014 213 999 q 228 1063 211 1040 q 271 1085 246 1085 q 313 1070 296 1086 q 329 1028 329 1054 q 312 982 331 1003 q 269 960 293 961 z "},"À":{"ha":763,"x_min":-44,"x_max":778,"o":"m 526 1429 q 490 1492 497 1446 q 502 1528 488 1513 q 539 1544 517 1544 q 590 1518 565 1544 q 658 1433 618 1486 q 719 1354 690 1393 q 733 1308 738 1332 q 704 1269 729 1281 q 654 1272 679 1258 q 618 1308 636 1282 q 598 1338 608 1322 q 574 1373 588 1354 q 553 1403 561 1392 q 526 1429 540 1421 m 751 -160 q 757 -221 778 -187 q 697 -242 738 -253 q 644 -201 667 -235 q 603 -107 621 -167 q 546 175 568 3 q 526 439 529 318 q 523 460 526 457 q 500 461 519 463 q 264 408 388 450 q 229 376 238 399 q 175 207 186 251 q 172 185 169 189 q 189 174 174 181 q 256 160 228 157 q 288 151 275 161 q 306 121 301 140 q 276 68 313 86 q 193 67 246 54 q 154 78 181 69 q 140 71 143 82 q 114 -82 117 -29 q 118 -100 113 -90 q 115 -145 128 -125 q 76 -171 101 -165 q 37 -162 56 -176 q 14 -124 18 -149 q 14 -78 13 -114 q 39 108 17 8 q 25 157 46 139 q -29 250 -18 194 q 15 394 -44 331 q 129 469 56 436 q 164 507 154 481 q 451 1040 261 750 q 473 1072 458 1051 q 494 1101 488 1092 q 514 1126 504 1114 q 542 1152 524 1138 q 564 1170 560 1167 q 593 1192 568 1174 q 637 1197 614 1207 q 665 1161 660 1188 q 665 1113 669 1149 q 633 607 636 871 q 634 597 633 607 q 633 588 635 588 q 651 564 632 567 q 681 554 665 563 q 708 506 713 539 q 667 464 703 471 q 662 464 665 464 q 657 464 658 464 q 638 458 640 461 q 635 438 635 454 q 647 257 643 300 q 703 -64 665 63 q 751 -160 722 -129 m 90 232 l 122 343 q 115 340 119 342 q 97 332 110 338 q 75 320 85 326 q 58 305 65 314 q 50 288 50 296 q 60 261 50 275 q 81 240 71 247 l 90 232 m 533 878 q 537 907 535 886 q 540 938 539 928 q 539 972 540 949 q 395 739 489 911 q 300 533 301 567 q 494 569 401 561 q 503 571 497 571 q 512 571 510 571 q 517 572 514 571 q 522 575 521 574 q 524 581 522 576 q 525 590 525 585 q 525 603 525 594 q 533 878 528 774 z "},"Á":{"ha":761,"x_min":-44,"x_max":778,"o":"m 463 1232 q 426 1224 444 1221 q 396 1242 407 1226 q 386 1274 385 1256 q 403 1306 388 1292 q 482 1376 440 1342 q 590 1465 500 1393 q 636 1486 613 1482 q 677 1474 660 1489 q 694 1433 694 1458 q 660 1381 692 1404 q 533 1288 597 1335 q 520 1277 528 1283 q 507 1267 513 1271 q 494 1256 501 1263 q 481 1244 486 1250 q 463 1232 468 1236 m 751 -160 q 757 -221 778 -187 q 697 -242 738 -253 q 644 -201 667 -235 q 603 -107 621 -167 q 546 175 568 3 q 526 439 529 318 q 523 460 526 457 q 500 461 519 463 q 264 408 388 450 q 229 376 238 399 q 175 207 186 251 q 172 185 169 190 q 189 174 174 181 q 256 160 228 157 q 288 151 275 161 q 306 121 301 140 q 276 68 313 86 q 193 67 246 54 q 154 78 181 69 q 140 71 143 82 q 114 -82 117 -29 q 118 -100 113 -90 q 115 -145 128 -125 q 76 -171 101 -165 q 49 -169 63 -175 q 26 -152 36 -164 q 14 -124 17 -140 q 14 -78 13 -114 q 39 108 17 8 q 25 157 46 139 q -29 250 -18 194 q 15 394 -44 331 q 129 469 56 436 q 164 507 154 481 q 451 1040 261 750 q 473 1072 458 1051 q 494 1101 488 1092 q 503 1113 499 1107 q 510 1122 507 1118 q 520 1132 514 1126 q 530 1141 526 1138 q 540 1151 533 1144 q 550 1159 547 1157 q 561 1167 553 1161 q 571 1175 569 1174 q 582 1183 572 1176 q 593 1192 592 1190 q 637 1197 614 1207 q 665 1161 660 1188 q 665 1113 669 1149 q 633 607 636 871 q 634 597 633 607 q 633 588 635 588 q 651 564 632 567 q 681 554 665 563 q 708 506 713 539 q 667 464 703 471 q 662 464 665 464 q 657 464 658 464 q 638 458 640 461 q 635 438 635 454 q 647 257 643 300 q 703 -64 665 63 q 751 -160 722 -129 m 90 232 l 122 343 q 102 335 114 340 q 70 315 90 329 q 50 288 50 301 q 60 261 50 275 q 81 240 71 247 l 90 232 m 533 878 q 537 907 535 886 q 540 938 539 928 q 539 972 540 949 q 395 739 489 911 q 300 533 301 567 q 494 569 401 561 q 503 571 497 571 q 512 571 510 571 q 517 572 514 571 q 522 575 521 574 q 524 581 522 576 q 525 590 525 585 q 525 603 525 594 q 533 878 528 774 z "},"Â":{"ha":761,"x_min":-44,"x_max":778,"o":"m 453 1265 q 432 1322 414 1281 q 443 1342 438 1333 q 560 1508 507 1443 q 583 1536 574 1528 q 638 1554 608 1557 q 686 1525 668 1551 q 703 1482 697 1510 q 740 1313 711 1449 q 742 1301 742 1308 q 731 1267 743 1281 q 697 1249 719 1253 q 671 1251 683 1247 q 649 1265 658 1256 q 636 1288 639 1274 q 615 1376 632 1301 q 606 1404 611 1394 q 525 1296 543 1321 q 522 1292 524 1294 q 521 1289 521 1289 q 453 1265 494 1249 m 751 -160 q 757 -221 778 -187 q 697 -242 738 -253 q 644 -201 667 -235 q 603 -107 621 -167 q 546 175 568 3 q 526 439 529 318 q 523 460 526 457 q 500 461 519 463 q 264 408 388 450 q 229 376 238 399 q 175 207 186 251 q 172 185 169 189 q 189 174 174 181 q 256 160 228 157 q 288 151 275 161 q 306 121 301 140 q 276 68 313 86 q 193 67 246 54 q 154 78 181 69 q 140 71 143 82 q 114 -82 117 -29 q 118 -100 113 -90 q 115 -145 128 -125 q 76 -171 101 -165 q 49 -169 63 -175 q 26 -152 36 -164 q 14 -124 17 -140 q 14 -78 13 -114 q 39 108 17 8 q 25 157 46 139 q -29 250 -18 194 q 15 394 -44 331 q 129 469 56 436 q 164 507 154 481 q 451 1040 261 750 q 473 1072 458 1051 q 494 1101 488 1092 q 514 1126 504 1114 q 542 1152 524 1138 q 564 1170 560 1167 q 593 1192 568 1174 q 637 1197 614 1207 q 665 1161 660 1188 q 665 1113 669 1149 q 633 607 636 871 q 634 597 633 607 q 633 588 635 588 q 651 564 632 567 q 681 554 665 563 q 708 506 713 539 q 667 464 703 471 q 662 464 665 464 q 657 464 658 464 q 638 458 640 461 q 635 438 635 454 q 647 257 643 300 q 703 -64 665 63 q 751 -160 722 -129 m 90 232 l 122 343 q 115 340 119 342 q 97 332 110 338 q 75 320 85 326 q 58 305 65 314 q 50 288 50 296 q 60 261 50 275 q 81 240 71 247 l 90 232 m 533 878 q 537 907 535 886 q 540 938 539 928 q 539 972 540 949 q 395 739 489 911 q 300 533 301 567 q 494 569 401 561 q 503 571 497 571 q 512 571 510 571 q 517 572 514 571 q 522 575 521 574 q 524 581 522 576 q 525 590 525 585 q 525 603 525 594 q 533 878 528 774 z "},"Ã":{"ha":781,"x_min":-44,"x_max":786,"o":"m 372 1286 q 320 1294 344 1276 q 297 1343 296 1311 q 364 1460 303 1417 q 452 1486 404 1488 q 539 1456 500 1485 q 593 1399 571 1429 q 631 1361 611 1374 q 665 1368 654 1347 q 674 1404 674 1382 q 679 1433 674 1424 q 735 1460 694 1464 q 765 1450 751 1458 q 781 1428 778 1442 q 782 1390 785 1411 q 772 1348 779 1368 q 747 1308 765 1328 q 701 1278 729 1289 q 614 1271 658 1258 q 510 1343 554 1289 q 467 1389 478 1381 q 444 1400 453 1400 q 421 1389 435 1400 q 397 1333 393 1363 q 400 1321 400 1322 q 372 1286 400 1296 m 703 -64 q 751 -160 722 -129 q 757 -221 778 -187 q 697 -242 738 -253 q 644 -201 667 -235 q 601 -107 621 -167 q 546 175 568 3 q 526 439 529 318 q 523 460 526 457 q 500 461 519 463 q 264 408 388 451 q 229 376 238 399 q 175 207 186 251 q 172 185 169 190 q 189 174 174 181 q 256 160 228 157 q 288 151 275 161 q 306 121 301 140 q 276 68 313 86 q 193 67 246 54 q 154 78 181 69 q 140 71 143 82 q 114 -82 117 -29 q 118 -100 113 -90 q 115 -145 128 -125 q 76 -171 101 -165 q 37 -162 56 -176 q 14 -124 18 -149 q 14 -78 13 -114 q 39 108 17 8 q 25 157 46 139 q -29 250 -18 194 q 15 394 -44 331 q 129 469 56 436 q 164 507 154 481 q 451 1040 261 750 q 473 1072 458 1051 q 494 1101 488 1092 q 514 1126 504 1114 q 542 1152 524 1138 q 564 1170 560 1167 q 593 1192 568 1174 q 637 1197 614 1207 q 667 1161 660 1188 q 665 1113 669 1149 q 633 607 636 871 q 634 597 633 606 q 633 588 635 589 q 651 564 632 567 q 681 554 665 563 q 708 506 713 539 q 667 464 703 471 q 662 464 665 464 q 657 464 658 464 q 638 458 640 461 q 635 438 635 454 q 647 257 643 300 q 703 -64 665 63 m 90 232 l 122 343 q 102 335 114 340 q 70 315 90 329 q 50 288 50 301 q 60 261 50 275 q 81 240 71 247 l 90 232 m 533 878 q 537 907 535 886 q 540 938 539 928 q 539 972 540 949 q 395 739 489 911 q 300 533 301 567 q 494 569 401 561 q 503 571 497 571 q 512 571 510 571 q 517 572 514 571 q 522 575 521 574 q 524 581 522 576 q 525 590 525 585 q 525 603 525 594 q 533 878 528 774 z "},"Ä":{"ha":763,"x_min":-44,"x_max":778,"o":"m 508 1278 q 463 1286 482 1269 q 443 1332 443 1303 q 479 1393 444 1369 q 539 1386 507 1411 q 557 1326 568 1363 q 508 1278 544 1290 m 640 1278 q 601 1294 618 1278 q 583 1335 583 1311 q 599 1376 583 1358 q 635 1393 615 1394 q 678 1378 664 1390 q 694 1338 693 1367 q 678 1296 694 1314 q 640 1278 663 1278 m 751 -160 q 757 -221 778 -187 q 697 -242 738 -253 q 644 -201 667 -235 q 601 -107 621 -167 q 546 175 568 3 q 526 439 529 318 q 523 460 526 457 q 500 461 519 463 q 264 408 388 450 q 229 376 238 399 q 175 207 186 251 q 172 185 169 189 q 189 174 174 181 q 256 160 228 157 q 288 151 275 161 q 306 121 301 140 q 276 68 313 86 q 193 67 246 54 q 154 78 181 69 q 140 71 143 82 q 129 19 133 38 q 120 -29 125 0 q 114 -82 115 -58 q 118 -100 113 -90 q 115 -145 128 -125 q 76 -171 101 -165 q 37 -162 56 -176 q 14 -124 18 -149 q 14 -78 13 -114 q 39 108 17 8 q 25 157 46 139 q -29 250 -18 194 q 15 394 -44 331 q 129 469 56 436 q 164 507 154 481 q 451 1040 261 750 q 465 1060 457 1049 q 481 1082 472 1071 q 494 1101 489 1093 q 503 1113 499 1107 q 510 1122 507 1118 q 520 1132 514 1126 q 530 1141 526 1138 q 540 1151 533 1144 q 550 1159 547 1157 q 561 1167 553 1161 q 571 1175 569 1174 q 582 1183 572 1176 q 593 1192 592 1190 q 637 1197 614 1207 q 665 1161 660 1188 q 665 1113 669 1149 q 633 607 636 871 q 634 597 633 607 q 633 588 635 588 q 651 564 632 567 q 681 554 665 563 q 708 506 713 539 q 667 464 703 471 q 662 464 665 464 q 657 464 658 464 q 638 458 640 461 q 635 438 635 454 q 647 257 643 300 q 703 -64 665 63 q 751 -160 722 -129 m 90 232 l 122 343 q 102 335 114 340 q 70 315 90 329 q 50 288 50 301 q 60 261 50 275 q 81 240 71 247 l 90 232 m 533 878 q 537 907 535 886 q 540 938 539 928 q 539 972 540 949 q 395 739 489 911 q 300 533 301 567 q 494 569 401 561 q 503 571 497 571 q 512 571 510 571 q 517 572 514 571 q 522 575 521 574 q 524 581 522 576 q 525 590 525 585 q 525 603 525 594 q 533 878 528 774 z "},"Å":{"ha":761,"x_min":-44,"x_max":778,"o":"m 596 1264 q 488 1285 536 1240 q 461 1389 442 1328 q 578 1490 488 1469 q 646 1460 621 1500 q 651 1453 649 1456 q 681 1386 681 1425 q 596 1264 675 1296 m 588 1418 q 553 1397 571 1417 q 536 1361 536 1378 q 546 1340 536 1347 q 568 1338 556 1333 q 591 1358 582 1343 q 601 1389 600 1372 q 598 1401 600 1393 q 596 1413 596 1410 q 588 1418 594 1419 m 751 -160 q 757 -221 778 -187 q 697 -242 738 -253 q 644 -201 667 -235 q 603 -107 621 -167 q 546 175 568 3 q 526 439 529 318 q 523 460 526 457 q 500 461 519 463 q 264 408 388 450 q 229 376 238 399 q 175 207 186 251 q 172 185 169 189 q 189 174 174 181 q 256 160 228 157 q 288 151 275 161 q 306 121 301 140 q 276 68 313 86 q 193 67 246 54 q 154 78 181 69 q 140 71 143 82 q 114 -82 117 -29 q 118 -100 113 -90 q 120 -131 124 -117 q 105 -156 117 -146 q 76 -171 93 -167 q 37 -162 56 -176 q 14 -124 18 -149 q 14 -78 13 -114 q 39 108 17 8 q 25 157 46 139 q -29 250 -18 194 q 15 394 -44 331 q 129 469 56 436 q 164 507 154 481 q 451 1040 261 750 q 462 1056 456 1047 q 473 1070 468 1064 q 484 1085 478 1076 q 494 1101 490 1094 q 514 1126 504 1114 q 542 1152 524 1138 q 564 1170 560 1167 q 593 1192 568 1174 q 637 1197 614 1207 q 665 1161 660 1188 q 665 1113 669 1149 q 633 607 636 871 q 634 597 633 607 q 633 588 635 588 q 651 564 632 567 q 681 554 665 563 q 708 506 713 539 q 667 464 703 471 q 662 464 665 464 q 657 464 658 464 q 638 458 640 461 q 635 438 635 454 q 647 257 643 300 q 703 -64 665 63 q 751 -160 722 -129 m 90 232 l 122 343 q 102 335 114 340 q 70 315 90 329 q 50 288 50 301 q 60 261 50 275 q 81 240 71 247 l 90 232 m 533 878 q 537 907 535 886 q 540 938 539 928 q 539 972 540 949 q 395 739 489 911 q 300 533 301 567 q 494 569 401 561 q 503 571 497 571 q 512 571 510 571 q 517 572 514 571 q 522 575 521 574 q 524 581 522 576 q 525 590 525 585 q 525 603 525 594 q 533 878 528 774 z "},"Æ":{"ha":1535,"x_min":-44,"x_max":1575,"o":"m 1572 1274 q 1565 1244 1574 1258 q 1542 1224 1557 1231 q 1472 1208 1515 1213 q 1193 1172 1301 1192 q 940 1115 1054 1144 q 914 1089 917 1108 q 865 892 899 1019 q 819 710 832 764 q 785 544 811 674 q 785 531 782 533 q 799 531 789 526 q 1093 646 1053 629 q 1113 655 1103 650 q 1136 665 1124 660 q 1156 675 1149 671 q 1179 683 1172 682 q 1233 667 1214 694 q 1232 608 1254 638 q 1169 561 1210 579 q 1063 517 1124 540 q 786 410 876 444 q 758 375 761 400 q 772 129 746 224 q 797 68 781 99 q 942 -24 844 -18 q 1304 51 1131 -33 q 1388 143 1371 83 q 1399 165 1390 157 q 1419 177 1408 174 q 1443 178 1431 181 q 1483 131 1481 172 q 1454 33 1488 79 q 1392 -24 1431 3 q 1208 -100 1317 -72 q 933 -132 1047 -143 q 679 65 749 -114 q 665 111 672 85 q 703 -64 679 14 q 751 -160 722 -129 q 757 -221 778 -187 q 697 -242 738 -253 q 644 -201 667 -235 q 601 -107 621 -167 q 546 175 568 3 q 532 315 538 247 q 511 372 504 335 q 528 401 515 389 q 526 439 526 436 q 523 460 526 457 q 500 461 519 463 q 264 408 388 451 q 229 376 238 399 q 174 207 186 251 q 172 185 169 190 q 189 174 174 181 q 256 160 228 157 q 274 158 265 160 q 288 150 282 156 q 299 138 294 144 q 306 121 304 131 q 276 68 313 86 q 193 67 246 54 q 154 78 181 69 q 140 71 143 82 q 129 19 133 38 q 120 -29 125 0 q 114 -82 115 -58 q 118 -100 113 -90 q 115 -145 128 -125 q 76 -171 101 -165 q 37 -162 56 -176 q 14 -124 18 -149 q 14 -78 13 -114 q 39 108 17 8 q 25 157 46 139 q -29 250 -18 194 q 15 394 -44 331 q 129 469 56 436 q 164 507 154 481 q 451 1040 261 750 q 473 1072 458 1051 q 494 1101 488 1092 q 514 1126 504 1114 q 542 1152 524 1138 q 564 1170 560 1167 q 593 1192 568 1174 q 637 1197 614 1207 q 665 1161 660 1188 q 665 1113 669 1149 q 665 1110 665 1111 q 664 1110 664 1110 q 681 1121 671 1114 q 772 1168 711 1140 q 796 1182 793 1179 q 819 1279 776 1244 q 876 1294 847 1301 q 918 1254 906 1286 q 933 1229 928 1232 q 960 1232 938 1226 q 1424 1314 1211 1294 q 1504 1318 1457 1317 q 1533 1317 1519 1319 q 1560 1301 1549 1313 q 1572 1274 1571 1290 m 90 232 l 122 343 q 102 335 114 340 q 70 315 90 329 q 50 288 50 301 q 60 261 50 275 q 81 240 71 247 l 90 232 m 533 878 q 537 907 535 886 q 540 938 539 928 q 539 972 540 949 q 395 739 489 911 q 300 533 301 567 q 494 569 401 561 q 503 571 497 571 q 512 571 510 571 q 517 572 514 571 q 522 575 521 574 q 524 581 522 576 q 525 590 525 585 q 525 603 525 594 q 533 878 528 774 m 646 308 q 646 350 646 310 q 640 349 643 350 q 646 278 642 313 q 646 308 646 293 m 789 1028 q 796 1065 789 1029 q 784 1060 793 1064 q 772 1056 775 1057 q 761 1051 768 1054 q 750 1044 754 1047 q 742 1038 746 1042 q 733 1028 738 1033 q 697 1006 719 1008 q 656 1018 674 1004 l 656 1019 q 633 607 636 819 q 634 597 633 606 q 633 588 635 589 q 651 564 632 567 q 676 557 664 563 q 789 1028 699 678 z "},"Ç":{"ha":756,"x_min":10,"x_max":750,"o":"m 717 385 q 746 332 749 372 q 722 261 743 303 q 581 58 674 167 q 450 -72 511 -22 q 443 -78 449 -74 q 435 -110 443 -93 q 411 -150 431 -119 q 385 -192 410 -153 q 403 -200 401 -200 q 499 -339 493 -240 q 417 -494 503 -442 q 289 -529 353 -533 q 197 -483 229 -524 q 184 -448 183 -467 q 197 -414 185 -429 q 265 -403 225 -382 q 269 -406 267 -404 q 272 -408 271 -407 q 275 -410 274 -410 q 349 -409 308 -431 q 390 -350 389 -387 q 353 -297 392 -311 q 307 -296 342 -293 q 244 -261 265 -299 q 253 -197 228 -231 q 292 -146 272 -171 q 88 -54 167 -161 q 42 30 60 -15 q 18 128 25 75 q 11 233 10 181 q 61 544 13 376 q 293 1082 144 832 q 418 1250 356 1186 q 511 1324 465 1300 q 625 1344 569 1354 q 696 1308 668 1338 q 728 1235 724 1278 q 717 1161 731 1197 q 663 1131 701 1122 q 625 1181 624 1138 q 627 1198 625 1186 q 629 1215 629 1210 q 600 1242 629 1244 q 561 1228 582 1240 q 475 1151 518 1203 q 339 943 408 1074 q 140 411 196 669 q 124 154 110 271 q 169 18 135 72 q 315 -28 224 -64 q 385 14 353 -14 q 631 319 542 153 q 656 365 650 357 q 717 385 681 400 z "},"È":{"ha":933,"x_min":-97,"x_max":975,"o":"m 528 1460 q 465 1497 493 1460 q 458 1535 453 1515 q 482 1567 463 1556 q 540 1568 507 1579 q 642 1526 581 1554 q 732 1486 689 1506 q 767 1451 758 1475 q 766 1418 771 1433 q 747 1392 761 1403 q 713 1383 732 1382 q 665 1397 693 1383 q 633 1413 650 1404 q 595 1433 615 1422 q 563 1450 575 1443 q 528 1460 543 1460 m 974 1294 q 972 1275 975 1285 q 960 1257 968 1265 q 943 1244 953 1249 q 874 1229 917 1233 q 594 1193 703 1213 q 342 1136 456 1167 q 314 1110 318 1129 q 267 913 300 1040 q 221 731 233 785 q 186 565 214 697 q 186 551 183 554 q 200 551 190 547 q 494 667 447 649 q 507 672 500 669 q 520 678 514 675 q 532 683 526 681 q 544 690 538 686 q 557 696 551 693 q 579 706 574 703 q 635 688 615 715 q 633 629 656 658 q 571 582 611 600 q 464 538 525 561 q 188 431 278 464 q 160 396 161 421 q 174 150 147 244 q 199 89 182 119 q 342 -3 246 3 q 706 72 532 -12 q 789 164 772 104 q 810 194 794 185 q 844 199 825 203 q 885 151 882 193 q 856 54 888 100 q 793 -3 832 24 q 610 -79 718 -51 q 335 -111 449 -122 q 81 86 150 -93 q 47 329 43 183 q 47 371 47 331 q 38 367 40 369 q 32 358 35 364 q 28 351 29 353 q -10 328 17 333 q -60 333 -37 322 q -87 393 -96 350 q -56 435 -82 418 q 43 486 -14 461 q 67 517 63 494 q 85 619 75 568 q 110 736 94 669 q 133 832 126 803 q 163 949 140 861 q 189 1049 186 1036 q 197 1085 190 1051 q 185 1081 193 1085 q 173 1076 176 1078 q 163 1072 169 1075 q 151 1065 156 1068 q 142 1058 147 1063 q 135 1049 138 1054 q 98 1027 121 1029 q 57 1039 75 1025 q 38 1075 40 1053 q 50 1115 36 1097 q 82 1142 60 1128 q 172 1189 113 1161 q 197 1203 194 1200 q 221 1300 176 1265 q 278 1315 249 1322 q 319 1275 307 1307 q 334 1250 329 1253 q 360 1253 339 1247 q 825 1335 613 1315 q 906 1339 857 1338 q 933 1338 921 1340 q 953 1328 944 1335 q 967 1314 963 1322 q 974 1294 972 1306 z "},"É":{"ha":935,"x_min":-96,"x_max":976,"o":"m 486 1339 q 447 1335 465 1331 q 421 1357 429 1340 q 415 1391 411 1374 q 436 1421 419 1408 q 525 1479 479 1451 q 646 1551 546 1493 q 693 1565 671 1565 q 732 1548 717 1565 q 743 1506 747 1531 q 701 1457 738 1476 q 564 1383 633 1421 q 545 1374 556 1379 q 523 1360 535 1368 q 504 1349 511 1353 q 486 1339 492 1342 m 975 1294 q 973 1275 976 1285 q 962 1257 969 1265 q 944 1244 954 1249 q 875 1229 918 1233 q 596 1193 704 1213 q 343 1136 457 1165 q 315 1110 319 1129 q 268 913 301 1040 q 222 731 235 785 q 188 565 215 697 q 188 551 185 554 q 201 551 192 547 q 496 667 447 647 q 516 676 506 671 q 539 686 526 681 q 558 696 551 692 q 581 706 575 703 q 636 688 617 715 q 635 629 657 658 q 572 582 613 600 q 465 538 526 561 q 189 431 279 464 q 161 396 163 421 q 175 150 149 244 q 200 89 183 119 q 343 -3 247 3 q 707 72 533 -12 q 790 164 774 104 q 810 194 796 185 q 846 199 825 203 q 886 151 883 193 q 857 54 889 100 q 794 -3 833 24 q 611 -79 719 -51 q 336 -111 450 -122 q 82 86 151 -93 q 49 329 44 183 q 49 371 49 331 q 39 367 42 369 q 33 358 36 364 q 29 351 31 353 q -9 328 18 333 q -58 333 -36 322 q -86 393 -94 350 q -54 435 -81 418 q 44 486 -12 461 q 68 517 64 494 q 86 619 76 568 q 112 736 96 669 q 135 832 128 803 q 165 949 142 861 q 190 1049 188 1036 q 199 1085 192 1051 q 188 1081 194 1083 q 177 1078 181 1079 q 168 1074 174 1076 q 159 1069 163 1071 q 151 1064 156 1067 q 142 1057 146 1061 q 136 1049 139 1053 q 99 1027 122 1029 q 58 1039 76 1025 q 40 1075 42 1053 q 51 1115 38 1097 q 83 1142 61 1128 q 174 1189 114 1161 q 199 1203 196 1200 q 222 1300 178 1265 q 279 1315 250 1322 q 321 1275 308 1307 q 335 1250 331 1253 q 361 1253 340 1247 q 826 1335 614 1315 q 907 1339 858 1338 q 935 1338 922 1340 q 950 1332 943 1336 q 963 1322 957 1328 q 972 1310 968 1317 q 975 1294 975 1303 z "},"Ê":{"ha":935,"x_min":-96,"x_max":978,"o":"m 475 1403 q 453 1447 436 1414 q 463 1463 457 1456 q 575 1599 525 1544 q 599 1621 589 1614 q 652 1638 622 1639 q 701 1615 682 1636 q 719 1582 713 1603 q 761 1450 728 1554 q 763 1442 761 1446 q 752 1413 764 1425 q 719 1399 740 1401 q 681 1403 699 1394 q 657 1426 663 1411 q 635 1496 653 1438 q 624 1518 629 1510 q 546 1429 557 1442 q 543 1426 544 1428 q 542 1424 542 1424 q 475 1403 515 1390 m 975 1294 q 968 1265 976 1279 q 944 1244 960 1251 q 875 1229 918 1233 q 596 1193 704 1213 q 343 1136 457 1167 q 315 1110 319 1129 q 288 989 304 1056 q 252 852 271 922 q 222 731 233 782 q 188 565 215 696 q 188 551 185 554 q 201 551 192 547 q 496 667 444 647 q 516 676 506 671 q 539 686 526 681 q 558 696 551 692 q 581 706 575 703 q 636 688 617 715 q 635 629 657 658 q 572 582 613 600 q 465 538 526 561 q 189 431 279 464 q 161 396 163 421 q 175 150 149 244 q 200 89 183 119 q 343 -3 247 3 q 707 72 533 -12 q 790 164 774 104 q 811 194 796 185 q 846 199 826 203 q 886 151 883 193 q 857 54 889 100 q 794 -3 833 24 q 611 -79 719 -51 q 336 -111 450 -122 q 82 86 151 -93 q 49 329 44 183 q 49 371 49 331 q 39 367 42 369 q 33 358 36 364 q 29 351 31 353 q -9 328 18 333 q -58 333 -36 322 q -86 393 -94 350 q -54 435 -81 418 q 44 486 -12 461 q 68 517 64 494 q 86 619 76 568 q 112 736 96 669 q 135 832 128 803 q 165 949 142 861 q 190 1049 188 1036 q 199 1086 192 1050 q 186 1081 194 1085 q 174 1076 178 1078 q 164 1072 171 1075 q 153 1065 157 1068 q 144 1058 149 1063 q 136 1049 139 1054 q 99 1027 122 1029 q 58 1039 76 1025 q 40 1075 42 1053 q 51 1115 38 1097 q 83 1142 61 1128 q 174 1189 114 1161 q 199 1203 196 1200 q 222 1300 178 1265 q 279 1315 250 1322 q 321 1275 308 1307 q 335 1250 331 1253 q 361 1253 340 1247 q 826 1335 614 1315 q 907 1339 858 1338 q 935 1338 922 1340 q 963 1322 951 1333 q 975 1294 974 1311 z "},"Ë":{"ha":935,"x_min":-97,"x_max":975,"o":"m 515 1400 q 454 1410 481 1389 q 429 1472 428 1432 q 476 1551 431 1521 q 515 1560 493 1563 q 556 1542 538 1557 q 579 1464 594 1511 q 515 1400 563 1417 m 690 1400 q 638 1421 660 1399 q 615 1475 615 1443 q 636 1531 615 1507 q 683 1553 657 1554 q 724 1544 708 1550 q 751 1522 740 1538 q 763 1479 761 1506 q 741 1424 763 1447 q 690 1400 719 1400 m 974 1294 q 972 1275 975 1285 q 960 1257 968 1265 q 943 1244 953 1249 q 874 1229 917 1233 q 594 1193 703 1213 q 342 1136 456 1167 q 314 1110 318 1129 q 267 913 300 1040 q 221 731 233 785 q 186 565 214 697 q 186 551 183 554 q 200 551 190 547 q 494 667 447 649 q 510 674 501 669 q 526 681 519 678 q 541 688 532 683 q 557 696 550 693 q 579 706 574 703 q 635 688 615 715 q 633 629 656 658 q 571 582 611 600 q 464 538 525 561 q 188 431 278 464 q 160 396 161 421 q 174 150 147 244 q 199 89 182 119 q 342 -3 246 3 q 706 72 532 -12 q 789 164 772 104 q 800 186 792 178 q 819 198 808 194 q 844 199 831 201 q 885 151 882 193 q 856 54 888 100 q 793 -3 832 24 q 610 -79 718 -51 q 335 -111 449 -122 q 81 86 150 -93 q 47 329 43 183 q 47 371 47 331 q 38 367 40 369 q 32 358 35 364 q 28 351 29 353 q -10 328 17 333 q -60 333 -37 322 q -87 393 -96 350 q -56 435 -82 418 q 43 486 -14 461 q 67 517 63 494 q 85 619 75 568 q 110 736 94 669 q 133 832 126 803 q 163 949 140 861 q 189 1049 186 1036 q 197 1086 190 1051 q 185 1081 193 1085 q 173 1076 176 1078 q 163 1072 169 1075 q 151 1065 156 1068 q 142 1058 147 1063 q 135 1049 138 1054 q 98 1027 121 1029 q 57 1039 75 1025 q 38 1075 40 1053 q 50 1115 36 1097 q 82 1142 60 1128 q 172 1189 113 1161 q 197 1203 194 1200 q 221 1300 176 1265 q 278 1315 249 1322 q 319 1275 307 1307 q 334 1250 329 1253 q 360 1253 339 1247 q 825 1335 613 1315 q 906 1339 857 1338 q 933 1338 921 1340 q 961 1322 950 1333 q 974 1294 972 1311 z "},"Ì":{"ha":329,"x_min":-22,"x_max":507,"o":"m 233 1482 q 174 1522 199 1485 q 167 1560 161 1540 q 193 1590 174 1581 q 251 1590 218 1603 q 350 1544 292 1575 q 440 1500 396 1522 q 472 1465 465 1488 q 463 1417 481 1438 q 417 1397 446 1396 q 369 1414 396 1399 q 269 1471 361 1418 q 233 1482 250 1482 m 422 1353 q 488 1325 471 1364 q 465 1257 506 1286 q 385 1231 447 1246 q 367 1228 379 1229 q 346 1225 354 1228 q 333 1215 338 1222 q 328 1204 331 1211 q 326 1192 326 1197 q 324 1178 325 1186 q 324 1164 324 1169 q 265 783 275 849 q 188 151 203 369 q 182 -24 181 43 q 188 -72 182 -56 q 225 -58 194 -71 q 235 -53 226 -57 q 247 -47 243 -49 q 307 -65 286 -36 q 303 -129 329 -96 q 235 -171 282 -154 q 89 -203 179 -192 q 70 -206 82 -204 q 54 -207 58 -207 q 14 -201 33 -210 q -12 -181 -3 -196 q -19 -150 -21 -167 q -5 -122 -17 -133 q 24 -108 7 -111 q 35 -107 29 -107 q 49 -107 42 -107 q 61 -106 57 -107 q 78 -86 79 -106 q 82 199 67 11 q 91 292 86 243 q 100 379 96 340 q 112 475 104 418 q 123 563 119 532 q 136 658 126 593 q 149 744 146 722 q 163 839 151 767 q 176 926 174 911 q 192 1021 179 940 q 206 1110 204 1101 q 221 1189 211 1140 q 220 1204 224 1200 q 206 1207 217 1208 q 163 1210 182 1204 q 129 1231 142 1215 q 119 1264 117 1246 q 135 1296 121 1283 q 174 1310 150 1308 q 184 1308 176 1310 q 196 1308 192 1307 q 210 1309 199 1308 q 226 1310 221 1310 q 240 1313 231 1311 q 255 1319 249 1315 q 267 1331 261 1324 q 329 1340 294 1363 q 365 1336 344 1332 q 393 1344 374 1339 q 422 1353 413 1350 z "},"Í":{"ha":329,"x_min":-22,"x_max":507,"o":"m 199 1399 q 173 1397 185 1394 q 151 1406 161 1399 q 138 1425 142 1413 q 136 1459 129 1442 q 160 1486 143 1476 q 256 1533 206 1511 q 383 1589 279 1544 q 432 1599 410 1601 q 460 1587 449 1596 q 476 1563 471 1578 q 475 1532 481 1549 q 428 1490 465 1504 q 282 1433 356 1463 q 246 1418 269 1429 q 219 1407 222 1407 q 199 1399 206 1400 m 422 1353 q 488 1325 471 1364 q 465 1257 506 1286 q 385 1231 447 1246 q 367 1228 379 1229 q 346 1225 354 1228 q 333 1215 338 1222 q 327 1201 329 1210 q 324 1181 325 1193 q 324 1164 324 1168 q 265 783 274 840 q 188 151 203 369 q 182 -24 181 43 q 188 -72 182 -56 q 225 -58 194 -71 q 232 -55 228 -57 q 240 -51 236 -53 q 247 -47 244 -49 q 307 -65 286 -36 q 303 -129 329 -96 q 235 -171 282 -154 q 89 -203 179 -192 q 70 -206 82 -204 q 54 -207 58 -207 q 14 -201 33 -210 q -12 -181 -3 -196 q -19 -150 -21 -167 q -5 -122 -17 -133 q 24 -108 7 -111 q 45 -106 32 -107 q 61 -106 58 -106 q 78 -86 79 -106 q 82 199 67 11 q 196 1046 106 483 q 199 1067 197 1060 q 202 1088 200 1075 q 206 1110 204 1100 q 221 1189 211 1140 q 220 1204 224 1200 q 206 1207 217 1208 q 163 1210 182 1204 q 129 1231 142 1215 q 119 1264 117 1246 q 135 1296 121 1283 q 174 1310 150 1308 q 184 1309 176 1310 q 196 1308 192 1308 q 210 1309 199 1308 q 226 1310 221 1310 q 240 1313 231 1311 q 255 1319 249 1315 q 267 1331 261 1324 q 329 1340 294 1363 q 365 1336 344 1332 q 393 1344 374 1339 q 422 1353 413 1350 z "},"Î":{"ha":329,"x_min":-22,"x_max":507,"o":"m 188 1390 q 169 1428 153 1401 q 178 1439 174 1433 q 282 1546 236 1503 q 304 1563 296 1557 q 353 1574 326 1576 q 396 1556 379 1572 q 411 1529 406 1546 q 444 1421 418 1507 q 446 1414 444 1418 q 436 1392 447 1401 q 406 1381 425 1383 q 371 1385 386 1379 q 350 1406 356 1392 q 332 1461 347 1414 q 324 1479 329 1472 q 251 1410 276 1433 q 249 1408 250 1410 q 247 1406 249 1407 q 188 1390 224 1381 m 422 1353 q 488 1325 471 1364 q 465 1257 506 1286 q 385 1231 447 1246 q 367 1228 379 1229 q 346 1225 354 1228 q 333 1215 338 1222 q 328 1204 331 1211 q 326 1192 326 1197 q 324 1178 325 1186 q 324 1164 324 1169 q 265 783 275 849 q 188 151 203 369 q 182 -24 181 43 q 188 -72 182 -56 q 225 -58 194 -71 q 235 -53 226 -57 q 247 -47 243 -49 q 307 -65 286 -36 q 303 -129 329 -96 q 235 -171 282 -154 q 89 -203 179 -192 q 70 -206 82 -204 q 54 -207 58 -207 q 14 -201 33 -210 q -12 -181 -3 -196 q -19 -150 -21 -167 q -5 -122 -17 -133 q 24 -108 7 -111 q 45 -106 32 -107 q 61 -106 58 -106 q 78 -86 79 -106 q 82 199 67 11 q 91 292 86 243 q 100 379 96 340 q 112 475 104 418 q 123 563 119 532 q 136 658 126 593 q 149 744 146 722 q 163 839 151 767 q 176 926 174 911 q 192 1021 179 940 q 206 1110 204 1101 q 221 1189 211 1140 q 222 1198 222 1194 q 220 1203 222 1201 q 215 1206 218 1206 q 206 1207 211 1207 q 163 1210 182 1204 q 138 1222 149 1214 q 123 1241 128 1231 q 119 1264 118 1251 q 135 1296 121 1283 q 174 1310 150 1308 q 181 1309 176 1310 q 189 1308 185 1308 q 196 1308 193 1308 q 210 1309 199 1308 q 226 1310 221 1310 q 240 1313 231 1311 q 255 1319 249 1315 q 267 1331 261 1324 q 329 1340 294 1363 q 365 1336 344 1332 q 393 1344 374 1339 q 422 1353 413 1350 z "},"Ï":{"ha":329,"x_min":-22,"x_max":507,"o":"m 232 1421 q 180 1430 203 1411 q 158 1483 157 1449 q 199 1551 160 1525 q 233 1558 214 1561 q 267 1543 251 1556 q 288 1476 301 1517 q 232 1421 274 1435 m 383 1421 q 338 1439 357 1419 q 318 1485 318 1458 q 326 1519 318 1503 q 349 1544 335 1535 q 378 1553 363 1554 q 428 1536 411 1550 q 446 1489 444 1522 q 438 1455 446 1471 q 415 1430 429 1439 q 383 1421 400 1421 m 422 1353 q 488 1325 471 1364 q 465 1257 506 1286 q 385 1231 447 1246 q 376 1228 382 1229 q 366 1228 371 1228 q 356 1227 361 1228 q 347 1225 351 1226 q 340 1222 343 1224 q 333 1215 336 1219 q 327 1201 329 1210 q 324 1181 325 1193 q 324 1164 324 1168 q 265 783 275 849 q 188 151 203 369 q 182 -24 181 43 q 188 -72 182 -56 q 225 -58 194 -71 q 235 -53 226 -57 q 247 -47 243 -49 q 307 -65 286 -36 q 303 -129 329 -96 q 235 -171 282 -154 q 89 -203 179 -192 q 70 -206 82 -204 q 54 -207 58 -207 q 14 -201 33 -210 q -12 -181 -3 -196 q -19 -150 -21 -167 q -5 -122 -17 -133 q 24 -108 7 -111 q 45 -106 32 -107 q 61 -106 58 -106 q 78 -86 79 -106 q 82 199 67 11 q 196 1046 106 483 q 206 1110 203 1088 q 221 1189 211 1140 q 222 1200 222 1196 q 217 1206 221 1204 q 206 1207 213 1207 q 163 1210 182 1204 q 129 1231 142 1215 q 119 1264 117 1246 q 135 1296 121 1283 q 174 1310 150 1308 q 184 1308 176 1310 q 196 1308 192 1307 q 210 1309 199 1308 q 226 1310 221 1310 q 240 1313 231 1311 q 255 1319 249 1315 q 267 1331 261 1324 q 329 1340 293 1363 q 365 1336 344 1332 q 393 1344 374 1339 q 422 1353 413 1350 z "},"Ð":{"ha":882,"x_min":-94,"x_max":953,"o":"m 913 965 q 836 413 953 697 q 410 -203 701 86 q 206 -367 307 -303 q 111 -417 151 -401 q 60 -426 82 -428 q 7 -403 26 -425 q 1 -340 -19 -372 q 60 -315 22 -306 q 86 -318 81 -321 q 115 -300 110 -310 q 115 -265 121 -290 q 88 -32 99 -186 q 74 289 76 117 q 49 275 60 283 q -42 253 11 246 q -74 276 -67 256 q -65 322 -81 297 q -4 371 -47 353 q 72 401 29 386 q 82 864 72 593 q 88 947 82 867 q 24 810 21 883 q 24 778 24 779 q -14 731 22 739 q -69 760 -53 722 q -78 879 -94 814 q 6 1028 -60 953 q 268 1233 101 1138 q 485 1317 381 1297 q 607 1324 553 1329 q 843 1168 757 1307 q 913 965 896 1085 m 736 458 q 813 882 825 669 q 774 1068 807 990 q 676 1188 738 1153 q 524 1213 615 1224 q 511 1211 514 1211 q 214 1069 378 1186 q 204 1046 203 1063 q 208 1000 208 1026 q 194 956 208 974 q 193 938 194 954 q 182 553 183 585 q 182 442 182 501 q 256 468 243 464 q 314 469 292 482 q 335 426 340 457 q 299 369 331 394 q 238 342 276 354 q 182 324 235 340 q 213 -186 185 44 q 221 -219 215 -212 q 226 -218 226 -218 q 239 -210 233 -214 q 736 458 581 82 z "},"Ñ":{"ha":806,"x_min":-1,"x_max":858,"o":"m 403 1214 q 366 1221 383 1206 q 350 1264 349 1236 q 397 1364 354 1328 q 460 1388 426 1389 q 521 1360 494 1386 q 560 1311 544 1338 q 588 1279 572 1290 q 611 1285 603 1268 q 617 1317 617 1296 q 621 1342 618 1333 q 660 1365 632 1367 q 693 1338 689 1363 q 693 1291 694 1314 q 677 1244 692 1268 q 636 1207 663 1221 q 575 1201 607 1190 q 500 1263 532 1217 q 471 1303 478 1296 q 454 1313 461 1313 q 438 1303 447 1313 q 421 1256 418 1281 q 422 1244 422 1244 q 403 1214 424 1224 m 856 1096 q 840 913 858 1018 q 788 626 824 811 q 740 379 751 440 q 681 28 694 125 q 697 -32 675 -10 q 713 -56 707 -42 q 710 -101 724 -79 q 669 -125 696 -124 q 647 -125 664 -125 q 619 -125 629 -125 q 569 -90 583 -128 q 565 -72 564 -78 q 565 -53 568 -67 q 563 -35 563 -40 q 557 -17 563 -29 q 549 -1 551 -6 q 541 16 547 4 q 532 32 535 28 q 268 724 378 335 q 236 831 261 747 q 233 835 236 832 q 224 817 228 833 q 136 321 165 540 q 111 7 113 135 q 124 -50 111 -29 q 129 -92 135 -69 q 106 -128 124 -114 q 66 -139 88 -142 q 29 -118 44 -136 q 6 -51 8 -96 q 8 144 -1 31 q 157 1010 39 522 q 160 1049 163 1029 q 178 1126 156 1085 q 213 1151 188 1147 q 257 1139 238 1156 q 282 1074 292 1111 q 283 1040 278 1056 q 367 774 317 947 q 443 526 418 600 q 579 185 499 360 q 592 171 585 174 q 640 436 636 415 q 681 651 651 493 q 728 896 711 810 q 751 1079 749 1008 q 739 1128 754 1110 q 732 1174 725 1147 q 760 1214 739 1201 q 802 1217 779 1225 q 836 1188 825 1210 q 856 1096 854 1156 z "},"Ò":{"ha":911,"x_min":10,"x_max":915,"o":"m 585 1504 q 532 1553 551 1511 q 532 1592 522 1572 q 563 1618 542 1611 q 619 1607 589 1625 q 710 1546 656 1585 q 790 1489 753 1515 q 818 1447 814 1472 q 800 1403 821 1421 q 751 1390 779 1385 q 707 1414 732 1394 q 617 1486 707 1414 q 585 1504 600 1500 m 890 1018 q 894 715 915 883 q 744 208 861 439 q 582 -18 675 71 q 392 -132 486 -111 q 190 -92 279 -158 q 51 106 100 -24 q 10 363 11 213 q 42 624 11 503 q 62 727 50 657 q 82 831 74 797 q 197 1114 122 993 q 361 1292 265 1226 q 514 1353 436 1340 q 756 1279 653 1376 q 890 1018 858 1182 m 789 744 q 778 1024 806 903 q 679 1201 751 1135 q 544 1247 622 1256 q 464 1225 503 1243 q 318 1100 382 1185 q 311 1079 308 1086 q 368 1032 353 1071 q 364 982 379 1004 q 319 964 349 960 q 283 949 296 968 q 276 938 282 946 q 268 925 271 931 q 172 696 208 828 q 167 656 167 681 q 206 426 163 529 q 238 344 229 369 q 214 281 253 300 q 149 301 176 263 q 125 338 147 304 q 138 193 118 271 q 226 21 165 85 q 408 -11 306 -62 q 510 63 460 13 q 653 265 592 143 q 789 744 760 482 z "},"Ó":{"ha":911,"x_min":10,"x_max":915,"o":"m 475 1436 q 446 1439 458 1432 q 429 1461 433 1446 q 453 1511 421 1494 q 531 1546 492 1529 q 635 1586 550 1554 q 674 1592 657 1594 q 689 1585 682 1590 q 699 1572 696 1579 q 703 1554 703 1564 q 700 1535 704 1544 q 660 1501 690 1511 q 542 1461 601 1482 q 513 1450 532 1458 q 492 1442 493 1442 q 475 1436 481 1438 m 890 1018 q 894 715 915 883 q 744 208 861 439 q 582 -18 675 71 q 392 -132 486 -111 q 190 -92 279 -158 q 51 106 100 -24 q 10 363 11 213 q 42 624 11 503 q 55 690 49 651 q 68 765 61 728 q 82 831 75 803 q 197 1114 122 993 q 361 1292 265 1226 q 514 1353 436 1340 q 756 1279 653 1376 q 890 1018 858 1182 m 789 744 q 778 1024 806 903 q 679 1201 751 1135 q 544 1247 622 1256 q 464 1225 503 1243 q 318 1100 382 1185 q 311 1079 308 1086 q 368 1032 353 1071 q 364 982 379 1004 q 319 964 349 960 q 283 949 296 968 q 276 938 282 946 q 268 925 271 931 q 172 696 208 828 q 167 656 167 681 q 206 426 163 529 q 238 344 229 369 q 214 281 253 300 q 149 301 176 263 q 125 338 147 304 q 138 193 118 271 q 226 21 165 85 q 408 -11 306 -62 q 510 63 460 13 q 653 265 592 143 q 789 744 760 482 z "},"Ô":{"ha":911,"x_min":10,"x_max":915,"o":"m 890 1018 q 894 715 915 883 q 744 208 861 439 q 582 -18 675 71 q 392 -132 486 -111 q 190 -92 279 -158 q 51 106 100 -24 q 10 363 11 213 q 42 624 11 503 q 62 727 50 657 q 82 831 74 797 q 197 1114 122 993 q 361 1292 265 1226 q 514 1353 436 1340 q 756 1279 653 1376 q 890 1018 858 1182 m 789 744 q 778 1024 806 903 q 679 1201 751 1135 q 544 1247 622 1256 q 464 1225 503 1243 q 318 1100 382 1185 q 311 1079 308 1086 q 368 1032 353 1071 q 364 982 379 1004 q 319 964 349 960 q 283 949 296 968 q 276 938 282 946 q 268 925 271 931 q 172 696 208 828 q 167 656 167 681 q 206 426 163 529 q 238 344 229 369 q 214 281 253 300 q 149 301 176 263 q 125 338 147 304 q 138 193 118 271 q 226 21 165 85 q 408 -11 306 -62 q 510 63 460 13 q 653 265 592 143 q 789 744 760 482 m 451 1399 q 429 1443 413 1410 q 439 1458 433 1451 q 551 1594 500 1540 q 575 1617 565 1610 q 628 1633 599 1635 q 676 1611 658 1632 q 694 1579 689 1600 q 736 1446 704 1550 q 739 1438 738 1442 q 728 1409 740 1421 q 696 1394 717 1397 q 657 1399 675 1392 q 633 1422 639 1407 q 611 1492 629 1433 q 600 1514 606 1506 q 522 1425 533 1438 q 519 1422 521 1424 q 518 1419 518 1421 q 451 1399 492 1388 z "},"Õ":{"ha":911,"x_min":10,"x_max":915,"o":"m 442 1419 q 403 1426 421 1411 q 386 1467 385 1440 q 436 1565 390 1529 q 503 1588 467 1589 q 567 1561 539 1586 q 608 1513 592 1539 q 638 1482 622 1493 q 663 1488 654 1471 q 669 1518 668 1499 q 674 1543 669 1535 q 714 1565 685 1568 q 749 1539 744 1563 q 749 1494 751 1517 q 732 1449 747 1472 q 690 1413 717 1425 q 624 1407 658 1396 q 546 1467 579 1421 q 514 1506 522 1499 q 496 1515 503 1515 q 479 1506 489 1515 q 461 1460 458 1483 q 463 1449 463 1449 q 442 1419 464 1428 m 890 1018 q 894 715 915 883 q 744 208 861 439 q 582 -18 675 71 q 392 -132 486 -111 q 190 -92 279 -158 q 51 106 100 -24 q 10 363 11 213 q 42 624 11 503 q 62 727 50 657 q 82 831 74 797 q 197 1114 122 993 q 361 1292 265 1226 q 514 1353 436 1340 q 756 1279 653 1376 q 890 1018 858 1182 m 789 744 q 778 1024 806 903 q 679 1201 751 1135 q 544 1247 622 1256 q 464 1225 503 1243 q 318 1100 382 1185 q 311 1079 308 1086 q 368 1032 353 1071 q 364 982 379 1004 q 319 964 349 960 q 283 949 296 968 q 276 938 282 946 q 268 925 271 931 q 172 696 208 828 q 167 656 167 681 q 206 426 163 529 q 238 344 229 369 q 214 281 253 300 q 149 301 176 263 q 125 338 147 304 q 138 193 118 271 q 226 21 165 85 q 408 -11 306 -62 q 510 63 460 13 q 653 265 592 143 q 789 744 760 483 z "},"Ö":{"ha":911,"x_min":10,"x_max":915,"o":"m 890 1018 q 894 715 915 883 q 744 208 861 439 q 582 -18 675 71 q 392 -132 486 -111 q 190 -92 279 -158 q 51 106 100 -24 q 10 363 11 213 q 42 624 11 503 q 62 727 50 657 q 82 831 74 797 q 197 1114 122 993 q 361 1292 265 1226 q 514 1353 436 1340 q 756 1279 653 1376 q 890 1018 858 1182 m 789 744 q 778 1024 806 903 q 679 1201 751 1135 q 544 1247 622 1256 q 464 1225 503 1243 q 318 1100 382 1185 q 311 1079 308 1086 q 368 1032 353 1071 q 364 982 379 1004 q 319 964 349 960 q 283 949 296 968 q 276 938 282 946 q 268 925 271 931 q 172 696 208 828 q 167 656 167 681 q 206 426 163 529 q 238 344 229 369 q 214 281 253 300 q 149 301 176 263 q 125 338 147 304 q 138 193 118 271 q 226 21 165 85 q 408 -11 306 -62 q 510 63 460 13 q 653 265 592 143 q 789 744 760 483 m 499 1417 q 438 1427 464 1406 q 413 1489 411 1449 q 460 1568 414 1538 q 498 1576 476 1579 q 538 1558 519 1574 q 563 1481 578 1528 q 499 1417 546 1433 m 674 1417 q 620 1438 643 1415 q 597 1492 597 1460 q 618 1547 597 1524 q 667 1569 639 1571 q 724 1550 704 1565 q 744 1496 743 1535 q 724 1440 744 1464 q 674 1417 703 1417 z "},"×":{"ha":367,"x_min":-4,"x_max":365,"o":"m 297 568 q 281 558 289 564 q 263 542 272 551 q 249 529 253 533 q 290 492 263 514 q 322 464 317 469 q 349 433 340 447 q 353 390 364 407 q 318 382 343 374 q 275 408 299 389 q 203 471 221 454 q 174 476 186 486 q 97 396 118 431 q 86 382 93 388 q 39 387 67 367 q 10 436 11 407 q 25 479 8 456 q 81 540 39 503 q 94 551 93 551 q 90 572 106 560 q 49 614 88 576 q 22 646 32 631 q 21 703 -4 688 q 47 704 31 710 q 76 682 64 699 q 142 619 93 663 q 161 604 157 606 q 176 610 165 603 q 247 660 236 650 q 265 671 257 669 q 311 654 289 678 q 328 604 338 626 q 297 568 314 575 z "},"Ø":{"ha":931,"x_min":-44,"x_max":1017,"o":"m 888 1208 q 922 1211 900 1213 q 964 1206 943 1210 q 1001 1192 985 1201 q 1017 1171 1017 1183 q 1010 1154 1017 1163 q 991 1137 1003 1146 q 975 1122 979 1128 q 900 1028 936 1072 q 903 1018 901 1019 q 907 715 928 883 q 757 208 874 439 q 594 -18 688 71 q 403 -132 499 -111 q 201 -92 292 -158 q 129 -19 163 -61 q 113 -50 117 -42 q 104 -76 110 -54 q 88 -104 99 -99 q 22 -96 67 -114 q -31 -54 -24 -78 q -20 37 -43 -7 q 53 136 3 81 q 22 363 24 232 q 54 624 24 503 q 74 727 63 657 q 94 831 86 797 q 208 1114 135 993 q 374 1292 278 1226 q 525 1353 447 1340 q 767 1279 664 1376 q 849 1174 817 1233 q 888 1208 868 1201 m 147 243 q 163 266 153 251 q 176 285 174 281 q 161 301 168 292 q 138 338 160 304 q 142 235 133 289 q 147 243 144 240 m 179 656 q 218 426 175 529 q 239 374 232 392 q 775 1072 411 614 q 692 1201 747 1150 q 557 1247 635 1256 q 476 1225 515 1243 q 331 1100 394 1185 q 324 1079 321 1086 q 381 1032 365 1071 q 376 982 392 1004 q 332 964 361 960 q 296 949 308 968 q 288 938 293 946 q 281 925 282 931 q 183 696 221 828 q 179 656 179 681 m 801 744 q 807 908 811 833 q 686 754 726 807 q 224 131 372 353 q 193 83 207 106 q 239 21 213 47 q 421 -11 318 -62 q 521 63 472 13 q 664 265 603 143 q 801 744 772 483 z "},"Ù":{"ha":840,"x_min":-1,"x_max":890,"o":"m 456 1485 q 419 1524 426 1499 q 424 1560 414 1544 q 453 1576 435 1575 q 490 1567 471 1578 q 589 1513 571 1522 q 661 1468 626 1492 q 678 1415 692 1447 q 659 1396 672 1401 q 631 1396 646 1390 q 614 1404 625 1399 q 594 1415 613 1406 q 567 1431 576 1425 q 456 1485 511 1458 m 882 1250 q 885 1204 889 1231 q 829 890 881 1175 q 718 -150 728 335 q 719 -235 718 -157 q 729 -286 719 -262 q 713 -350 744 -328 q 646 -346 681 -372 q 618 -301 625 -331 q 608 -211 610 -267 q 622 136 607 -92 q 650 436 633 300 q 632 403 642 429 q 469 72 549 199 q 360 -65 415 -12 q 250 -133 306 -118 q 107 -93 168 -156 q 56 -7 76 -61 q 13 229 21 83 q 47 768 -1 467 q 124 1157 85 1008 q 164 1285 140 1219 q 182 1318 174 1308 q 233 1329 204 1340 q 264 1289 261 1319 q 260 1258 265 1274 q 238 1178 249 1222 q 220 1106 226 1135 q 203 1022 214 1078 q 189 946 193 965 q 129 543 144 728 q 131 140 108 308 q 164 18 142 65 q 203 -28 182 -22 q 261 -7 225 -33 q 346 83 301 22 q 501 372 424 192 q 700 967 606 615 q 771 1226 735 1092 q 783 1258 776 1246 q 838 1288 800 1293 q 882 1250 871 1285 z "},"Ú":{"ha":839,"x_min":-1,"x_max":890,"o":"m 451 1407 q 422 1410 435 1403 q 406 1432 410 1417 q 429 1482 397 1465 q 506 1518 467 1500 q 610 1560 525 1525 q 649 1564 632 1568 q 675 1544 667 1561 q 675 1508 683 1528 q 635 1474 665 1485 q 518 1433 576 1454 q 489 1422 508 1429 q 468 1413 469 1414 q 451 1407 457 1408 m 882 1250 q 885 1204 889 1231 q 829 890 881 1175 q 718 -150 728 335 q 719 -235 718 -157 q 729 -286 719 -262 q 713 -350 744 -328 q 646 -346 681 -372 q 618 -301 625 -331 q 608 -211 610 -267 q 622 136 607 -92 q 650 436 633 300 q 632 403 642 429 q 469 72 549 199 q 360 -65 415 -12 q 250 -133 306 -118 q 107 -93 168 -156 q 56 -7 76 -61 q 13 229 21 83 q 47 768 -1 467 q 124 1157 85 1008 q 164 1285 140 1219 q 182 1318 174 1308 q 233 1329 204 1340 q 264 1289 261 1319 q 260 1258 265 1274 q 242 1198 250 1229 q 226 1133 233 1167 q 213 1073 218 1099 q 201 1007 208 1047 q 189 946 193 967 q 129 543 144 728 q 131 140 108 308 q 164 18 142 65 q 203 -28 182 -22 q 261 -7 225 -33 q 346 83 301 22 q 501 372 424 192 q 700 967 606 615 q 771 1226 735 1092 q 783 1258 776 1246 q 838 1288 800 1293 q 882 1250 871 1285 z "},"Û":{"ha":839,"x_min":-1,"x_max":890,"o":"m 882 1250 q 885 1204 889 1231 q 829 890 881 1175 q 718 -150 728 335 q 719 -235 718 -157 q 729 -286 719 -262 q 713 -350 744 -328 q 646 -346 681 -372 q 618 -301 625 -331 q 608 -211 610 -267 q 622 136 607 -92 q 650 436 633 300 q 632 403 642 429 q 469 72 549 199 q 360 -65 415 -12 q 250 -133 306 -118 q 107 -93 168 -156 q 56 -7 76 -61 q 13 229 21 83 q 47 768 -1 467 q 124 1157 85 1008 q 164 1285 140 1219 q 182 1318 174 1308 q 233 1329 204 1340 q 264 1290 261 1319 q 260 1258 265 1274 q 238 1178 249 1222 q 220 1106 226 1135 q 203 1022 214 1078 q 189 946 193 965 q 129 543 144 728 q 131 140 108 308 q 164 18 142 65 q 203 -28 182 -22 q 261 -7 225 -33 q 346 83 301 22 q 501 372 424 192 q 700 967 606 615 q 771 1226 735 1092 q 783 1258 776 1246 q 838 1288 800 1293 q 882 1250 871 1285 m 439 1378 q 421 1413 407 1386 q 429 1425 425 1419 q 519 1535 479 1490 q 538 1551 531 1547 q 581 1565 557 1567 q 619 1549 604 1564 q 635 1521 629 1539 q 668 1415 642 1499 q 669 1408 669 1413 q 667 1392 671 1400 q 654 1380 663 1385 q 635 1374 646 1375 q 603 1377 618 1371 q 585 1396 589 1383 q 567 1451 582 1404 q 558 1469 563 1464 q 496 1399 519 1425 q 493 1396 494 1397 q 492 1394 493 1394 q 439 1378 472 1368 z "},"Ü":{"ha":840,"x_min":-1,"x_max":890,"o":"m 882 1250 q 885 1204 889 1231 q 829 890 881 1175 q 718 -150 728 335 q 719 -235 718 -157 q 729 -286 719 -262 q 713 -350 744 -328 q 646 -346 681 -372 q 618 -301 625 -331 q 608 -211 610 -267 q 622 136 607 -92 q 650 436 633 300 q 632 403 642 429 q 469 72 549 199 q 360 -65 415 -12 q 250 -133 306 -118 q 107 -93 168 -156 q 56 -7 76 -61 q 26 103 36 46 q 13 229 17 160 q 47 768 -1 467 q 124 1157 85 1008 q 164 1285 140 1219 q 182 1318 174 1308 q 233 1329 204 1340 q 264 1289 261 1319 q 260 1258 265 1274 q 238 1178 249 1222 q 220 1106 226 1135 q 203 1022 214 1078 q 189 946 193 965 q 129 543 144 728 q 131 140 108 308 q 164 18 142 65 q 203 -28 182 -22 q 261 -7 225 -33 q 346 83 301 22 q 501 372 424 192 q 700 967 606 615 q 771 1226 735 1092 q 783 1258 776 1246 q 838 1288 800 1293 q 882 1250 871 1285 m 496 1369 q 450 1376 469 1360 q 432 1422 431 1393 q 467 1482 433 1460 q 525 1475 494 1500 q 543 1417 556 1451 q 496 1369 531 1381 m 626 1368 q 587 1385 604 1368 q 569 1425 569 1401 q 585 1467 569 1449 q 621 1483 601 1485 q 665 1469 650 1481 q 681 1428 679 1457 q 673 1399 681 1413 q 653 1377 665 1385 q 626 1368 640 1369 z "},"Ý":{"ha":664,"x_min":-1,"x_max":692,"o":"m 278 1193 q 249 1190 263 1186 q 228 1207 235 1193 q 239 1261 211 1239 q 307 1314 271 1288 q 400 1376 324 1325 q 436 1390 418 1389 q 457 1384 447 1390 q 472 1366 467 1378 q 475 1340 476 1354 q 442 1299 469 1315 q 338 1233 390 1268 q 311 1216 328 1228 q 292 1203 294 1204 q 278 1193 282 1196 m 685 1208 q 686 1157 692 1189 q 666 1032 682 1121 q 644 894 650 943 q 603 356 610 629 q 600 -333 594 10 q 601 -399 600 -339 q 596 -433 601 -419 q 546 -468 583 -468 q 496 -429 507 -468 q 492 -393 492 -417 q 497 461 485 131 q 499 513 497 479 q 503 561 501 547 q 499 583 503 578 q 483 553 496 579 q 413 432 449 481 q 344 368 381 392 q 156 376 247 304 q 82 468 114 410 q 14 693 31 558 q 29 986 0 804 q 33 1024 29 990 q 34 1031 33 1024 q 35 1042 35 1039 q 55 1078 40 1065 q 89 1089 69 1090 q 103 1085 96 1088 q 115 1077 110 1082 q 125 1066 121 1072 q 131 1051 129 1060 q 133 1033 133 1043 q 129 969 135 1011 q 124 919 124 926 q 139 614 108 725 q 199 488 160 538 q 254 449 228 450 q 313 483 281 447 q 407 651 364 539 q 519 999 444 750 q 533 1044 526 1019 q 546 1089 540 1069 q 559 1135 551 1108 q 571 1179 567 1161 q 586 1219 581 1210 q 639 1247 606 1250 q 685 1208 672 1243 z "},"Þ":{"ha":357,"x_min":8,"x_max":367,"o":"m 110 946 q 117 935 115 939 q 125 903 118 931 q 128 700 133 824 q 126 685 128 692 q 140 672 126 674 q 188 665 165 672 q 319 569 281 640 q 331 399 367 486 q 143 253 285 281 q 121 245 124 249 q 118 225 118 242 q 117 94 118 179 q 115 -21 115 8 q 110 -47 114 -36 q 60 -78 94 -78 q 11 -47 21 -78 q 10 -28 10 -39 q 13 293 13 57 q 21 658 13 529 q 29 861 24 710 q 21 904 31 889 q 18 933 13 919 q 40 956 24 947 q 78 962 58 965 q 110 946 99 958 m 206 378 q 238 488 246 421 q 233 504 235 503 q 144 589 211 571 q 126 590 131 593 q 122 576 122 588 q 119 504 121 535 q 118 351 118 417 q 122 338 118 340 q 138 339 125 336 q 206 378 178 349 z "},"ß":{"ha":626,"x_min":8,"x_max":633,"o":"m 610 401 q 581 206 632 301 q 506 103 553 153 q 364 -17 449 42 q 319 -37 339 -33 q 272 -27 293 -40 q 246 11 251 -14 q 256 75 239 46 q 311 100 275 111 q 350 108 332 93 q 468 228 429 172 q 461 474 554 354 q 267 589 383 574 q 215 615 232 593 q 219 693 182 657 q 250 717 226 700 q 379 833 332 778 q 468 1024 449 918 q 469 1078 472 1050 q 400 1187 464 1154 q 269 1179 336 1219 q 193 1094 225 1153 q 140 936 157 1028 q 121 746 124 847 q 135 250 115 575 q 140 163 136 219 q 144 81 143 106 q 150 50 146 63 q 151 8 158 26 q 123 -16 143 -10 q 82 -12 103 -22 q 54 19 61 -1 q 47 56 50 32 q 22 311 26 247 q 10 686 8 551 q 39 988 11 864 q 101 1153 61 1083 q 271 1297 165 1267 q 476 1268 383 1332 q 578 1086 569 1204 q 506 825 586 958 q 401 701 469 764 q 375 676 400 700 q 384 669 379 672 q 395 663 389 665 q 404 660 401 661 q 610 401 575 567 z "},"à":{"ha":525,"x_min":3,"x_max":524,"o":"m 513 -10 q 522 -46 522 -28 q 501 -83 521 -69 q 458 -90 482 -97 q 406 -40 425 -81 q 376 71 388 -4 q 369 197 371 106 q 346 165 360 192 q 276 54 308 94 q 210 -6 243 14 q 113 -24 160 -36 q 38 40 65 -11 q 8 158 10 94 q 176 585 3 401 q 351 657 251 667 q 397 647 379 656 q 457 636 428 633 q 497 617 481 638 q 514 568 514 597 q 506 493 513 546 q 481 285 485 331 q 489 61 471 169 q 513 -10 496 18 m 372 510 q 374 547 382 536 q 338 554 367 557 q 293 540 315 554 q 244 501 264 524 q 117 194 126 368 q 124 119 117 144 q 142 85 132 88 q 175 106 151 82 q 251 218 213 142 q 372 510 311 336 m 306 790 q 268 822 281 794 q 266 840 264 831 q 275 856 268 849 q 292 865 282 863 q 333 860 313 871 q 399 822 361 846 q 457 785 431 801 q 475 758 474 775 q 462 728 478 740 q 425 719 446 715 q 393 735 411 722 q 329 779 389 738 q 306 790 317 789 z "},"á":{"ha":525,"x_min":3,"x_max":524,"o":"m 513 -10 q 522 -46 522 -28 q 501 -83 521 -69 q 458 -90 482 -97 q 406 -40 425 -81 q 376 71 388 -4 q 369 197 371 106 q 346 165 360 192 q 276 54 308 94 q 210 -6 243 14 q 113 -24 160 -36 q 38 40 65 -11 q 8 158 10 94 q 176 585 3 401 q 351 657 251 667 q 397 647 379 656 q 457 636 428 633 q 497 617 481 638 q 514 568 514 597 q 506 493 513 546 q 481 285 485 331 q 489 61 471 169 q 513 -10 496 18 m 372 510 q 374 547 382 536 q 338 554 367 557 q 293 540 315 554 q 244 501 264 524 q 117 194 126 368 q 124 119 117 144 q 142 85 132 88 q 175 106 151 82 q 251 218 213 142 q 372 510 311 336 m 289 713 q 253 725 268 711 q 243 757 239 739 q 265 781 247 772 q 328 810 296 794 q 397 840 368 829 q 439 840 419 849 q 460 820 454 833 q 457 794 465 807 q 417 768 442 769 q 392 760 406 767 q 322 722 324 724 q 289 713 303 713 z "},"â":{"ha":525,"x_min":3,"x_max":524,"o":"m 513 -10 q 522 -46 522 -28 q 501 -83 521 -69 q 458 -90 482 -97 q 406 -40 425 -81 q 376 71 388 -4 q 369 197 371 106 q 346 165 360 192 q 276 54 308 94 q 210 -6 243 14 q 113 -24 160 -36 q 38 40 65 -11 q 8 158 10 94 q 176 585 3 401 q 351 657 251 667 q 397 647 379 656 q 457 636 428 633 q 497 617 481 638 q 514 568 514 597 q 506 493 513 546 q 481 285 485 331 q 489 61 471 169 q 513 -10 496 18 m 372 510 q 374 547 382 536 q 338 554 367 557 q 293 540 315 554 q 244 501 264 524 q 117 194 126 368 q 124 119 117 144 q 142 85 132 88 q 175 106 151 82 q 251 218 213 142 q 372 510 311 336 m 282 718 q 268 750 257 728 q 275 760 271 756 q 353 851 318 815 q 369 865 364 861 q 406 876 386 878 q 438 860 425 875 q 450 838 446 851 q 474 744 456 815 q 475 739 475 742 q 446 710 478 714 q 428 712 436 710 q 413 719 419 714 q 404 731 407 724 q 390 779 401 739 q 385 794 389 789 q 360 769 381 790 q 331 735 340 747 q 328 733 329 735 q 328 732 328 732 q 282 718 310 710 z "},"ã":{"ha":525,"x_min":3,"x_max":524,"o":"m 513 -10 q 522 -46 522 -28 q 501 -83 521 -69 q 458 -90 481 -97 q 406 -40 425 -81 q 376 71 388 -4 q 369 197 371 106 q 346 165 360 192 q 276 54 308 94 q 210 -6 243 14 q 113 -24 160 -36 q 38 40 65 -11 q 8 158 10 94 q 176 585 3 401 q 351 657 251 667 q 397 647 379 656 q 457 636 428 633 q 497 617 481 638 q 514 568 514 597 q 506 493 513 546 q 481 285 485 331 q 489 61 471 169 q 513 -10 496 18 m 372 510 q 374 547 382 536 q 338 554 367 557 q 293 540 315 554 q 244 501 264 524 q 117 194 126 368 q 124 119 117 144 q 142 85 132 88 q 175 106 151 82 q 251 218 213 142 q 372 510 311 336 m 244 722 q 213 727 228 717 q 199 758 197 738 q 240 829 203 803 q 295 846 265 847 q 349 826 325 844 q 382 792 368 810 q 406 769 393 776 q 426 774 419 761 q 432 796 432 781 q 435 814 432 807 q 469 829 444 832 q 497 810 494 828 q 492 758 503 783 q 449 717 481 732 q 394 714 422 706 q 331 757 358 724 q 304 786 311 781 q 275 786 289 797 q 261 751 258 769 q 263 744 263 744 q 244 722 263 729 z "},"ä":{"ha":525,"x_min":3,"x_max":524,"o":"m 513 -10 q 522 -46 522 -28 q 501 -83 521 -69 q 458 -90 482 -97 q 406 -40 425 -81 q 376 71 388 -4 q 369 197 371 106 q 346 165 360 192 q 276 54 308 94 q 210 -6 243 14 q 113 -24 160 -36 q 38 40 65 -11 q 8 158 10 93 q 176 585 3 401 q 351 657 251 667 q 397 647 379 656 q 457 636 428 633 q 497 617 481 638 q 514 568 514 597 q 506 493 513 546 q 481 285 485 331 q 489 61 471 169 q 513 -10 496 18 m 372 510 q 374 547 382 536 q 338 554 367 557 q 293 540 315 554 q 244 501 264 524 q 117 194 126 368 q 124 119 117 144 q 142 85 132 88 q 175 106 151 82 q 251 218 213 142 q 372 510 311 336 m 303 710 q 269 717 283 703 q 256 754 254 731 q 282 804 256 785 q 325 799 301 818 q 339 750 347 779 q 303 710 329 721 m 400 710 q 371 724 383 710 q 358 757 358 738 q 370 791 358 776 q 397 804 382 806 q 429 793 418 803 q 440 758 440 783 q 428 725 440 739 q 400 710 417 711 z "},"å":{"ha":525,"x_min":3,"x_max":524,"o":"m 513 -10 q 522 -46 522 -28 q 501 -83 521 -69 q 458 -90 481 -97 q 406 -40 425 -81 q 376 71 388 -4 q 369 197 371 106 q 346 165 360 192 q 276 54 308 94 q 210 -6 243 14 q 113 -24 160 -36 q 38 40 65 -11 q 8 158 10 93 q 176 585 3 401 q 351 657 251 667 q 397 647 379 656 q 457 636 428 633 q 497 617 481 638 q 514 568 514 597 q 506 493 513 546 q 481 285 485 331 q 489 61 471 169 q 513 -10 496 18 m 372 510 q 374 547 382 536 q 338 554 367 557 q 293 540 315 554 q 244 501 264 524 q 117 194 126 368 q 124 119 117 144 q 142 85 132 88 q 175 106 151 82 q 251 218 213 142 q 372 510 311 336 m 397 710 q 319 725 354 692 q 301 806 288 758 q 385 885 319 869 q 433 861 415 893 q 438 856 436 857 q 458 804 458 833 q 397 710 454 735 m 392 829 q 367 813 379 828 q 354 785 356 797 q 361 769 354 774 q 378 767 368 764 q 401 807 400 776 q 400 815 401 808 q 397 825 399 821 q 392 829 396 829 z "},"æ":{"ha":836,"x_min":3,"x_max":835,"o":"m 756 86 q 803 74 782 93 q 817 26 824 54 q 776 -28 808 -6 q 624 -51 711 -72 q 504 7 556 -36 q 513 -10 508 -3 q 522 -46 522 -28 q 501 -83 521 -69 q 458 -90 481 -97 q 406 -40 425 -81 q 376 71 388 -4 q 369 197 371 106 q 346 165 360 190 q 276 54 308 94 q 210 -6 243 14 q 113 -24 160 -36 q 38 40 65 -11 q 8 158 10 93 q 176 585 3 401 q 351 657 251 667 q 397 647 379 656 q 457 636 428 633 q 497 617 481 638 q 514 568 514 597 q 513 554 514 564 q 571 622 539 590 q 686 682 619 672 q 792 656 750 692 q 833 556 835 619 q 742 297 829 404 q 525 189 656 192 q 517 188 525 189 q 524 154 514 176 q 658 53 563 74 q 725 68 696 44 q 756 86 742 82 m 518 313 q 519 292 515 297 q 539 290 524 288 q 596 313 563 293 q 684 405 657 349 q 725 540 711 461 q 719 569 725 563 q 697 572 714 575 q 639 538 669 568 q 518 313 553 449 m 372 510 q 374 547 382 536 q 338 554 367 557 q 293 540 315 554 q 244 501 264 524 q 117 194 126 368 q 124 119 117 144 q 142 85 132 88 q 175 106 151 82 q 251 218 213 142 q 372 510 311 336 z "},"ç":{"ha":449,"x_min":-3,"x_max":443,"o":"m 438 208 q 429 154 442 183 q 369 86 411 115 q 288 43 332 60 q 285 38 286 40 q 272 13 283 36 q 276 10 274 11 q 281 8 279 8 q 328 -75 325 -17 q 288 -168 331 -136 q 224 -187 256 -190 q 178 -161 194 -185 q 178 -119 164 -140 q 211 -114 192 -100 q 215 -115 213 -114 l 217 -118 q 253 -117 233 -129 q 274 -82 274 -104 q 256 -50 275 -58 q 232 -49 250 -49 q 201 -29 213 -50 q 206 10 193 -11 q 210 18 207 13 q 217 26 214 24 q 189 24 201 25 q 54 93 104 19 q 26 155 36 122 q 13 226 15 188 q 61 538 -1 392 q 139 642 88 597 q 297 671 207 701 q 353 619 336 657 q 340 561 369 583 q 279 563 311 538 q 238 579 256 581 q 200 554 221 578 q 147 460 168 518 q 118 282 121 382 q 128 194 119 229 q 142 160 132 176 q 189 133 158 129 q 342 217 301 147 q 357 236 349 228 q 406 247 379 256 q 438 208 432 238 z "},"è":{"ha":451,"x_min":7,"x_max":444,"o":"m 364 86 q 412 74 392 93 q 425 26 432 54 q 385 -28 418 -6 q 232 -51 321 -72 q 70 49 132 -28 q 10 229 8 126 q 181 622 13 453 q 294 682 229 672 q 372 674 338 688 q 424 628 406 660 q 442 556 443 597 q 351 297 438 404 q 135 189 264 192 q 125 188 135 189 q 133 154 124 176 q 267 53 171 74 q 335 68 306 44 q 364 86 351 82 m 128 313 q 129 292 125 297 q 149 290 133 288 q 206 313 172 293 q 293 405 265 349 q 333 540 321 461 q 329 569 335 563 q 307 572 324 575 q 249 538 279 568 q 128 313 161 449 m 224 719 q 204 720 214 718 q 188 728 194 722 q 176 742 181 733 q 174 758 172 750 q 192 785 175 775 q 250 822 219 803 q 315 860 289 846 q 357 865 336 871 q 380 848 372 861 q 381 822 388 835 q 343 790 368 794 q 319 779 332 789 q 299 765 313 775 q 276 748 286 756 q 256 735 265 740 q 224 719 238 722 z "},"é":{"ha":451,"x_min":7,"x_max":444,"o":"m 364 86 q 412 74 392 93 q 425 26 432 54 q 385 -28 418 -6 q 232 -51 321 -72 q 70 49 132 -28 q 10 229 8 126 q 181 622 13 453 q 294 682 229 672 q 372 674 338 688 q 424 628 406 660 q 442 556 443 597 q 351 297 438 404 q 135 189 264 192 q 125 188 135 189 q 133 154 124 176 q 267 53 171 74 q 335 68 306 44 q 364 86 351 82 m 128 313 q 129 292 125 297 q 149 290 133 288 q 206 313 172 293 q 293 405 265 349 q 333 540 321 461 q 329 569 335 563 q 307 572 324 575 q 249 538 279 568 q 128 313 161 449 m 269 790 q 232 822 244 794 q 233 848 225 835 q 256 865 240 861 q 297 860 275 871 q 363 822 324 846 q 421 785 393 801 q 439 758 438 775 q 426 728 442 740 q 389 719 410 715 q 357 735 375 722 q 293 779 350 739 q 269 790 281 789 z "},"ê":{"ha":451,"x_min":7,"x_max":444,"o":"m 364 86 q 412 74 392 93 q 425 26 432 54 q 385 -28 418 -6 q 232 -51 321 -72 q 70 49 132 -28 q 10 229 8 126 q 181 622 13 453 q 294 682 229 672 q 372 674 338 688 q 424 628 406 660 q 442 556 443 597 q 351 297 438 404 q 135 189 264 192 q 125 188 135 189 q 133 154 124 176 q 267 53 171 74 q 335 68 306 44 q 364 86 351 82 m 128 313 q 129 292 125 297 q 149 290 133 288 q 206 313 172 293 q 293 405 265 349 q 333 540 321 461 q 329 569 335 563 q 307 572 324 575 q 249 538 279 568 q 128 313 161 449 m 219 725 q 207 753 196 733 q 213 763 210 758 q 285 846 253 814 q 299 860 293 856 q 332 869 314 871 q 361 854 350 868 q 372 833 368 847 q 394 749 378 815 q 396 743 396 746 q 368 717 397 721 q 331 736 339 714 q 318 781 328 743 q 313 794 317 789 q 263 740 274 753 q 262 738 263 739 q 261 736 261 738 q 219 725 244 717 z "},"ë":{"ha":451,"x_min":7,"x_max":444,"o":"m 364 86 q 412 74 392 93 q 425 26 432 54 q 385 -28 418 -6 q 232 -51 321 -72 q 70 49 132 -28 q 10 229 8 126 q 181 622 13 453 q 294 682 229 672 q 372 674 338 688 q 424 628 406 660 q 442 556 443 597 q 351 297 438 404 q 135 189 264 192 q 125 188 135 189 q 133 154 124 176 q 267 53 171 74 q 335 68 306 44 q 364 86 351 82 m 128 313 q 129 292 125 297 q 149 290 133 288 q 206 313 172 293 q 293 405 265 349 q 333 540 321 461 q 329 569 335 563 q 307 572 324 575 q 249 538 279 568 q 128 313 161 449 m 274 732 q 240 738 254 724 q 226 775 225 751 q 253 825 226 806 q 296 819 272 840 q 310 771 318 800 q 274 732 300 742 m 371 731 q 342 744 354 731 q 329 778 329 758 q 341 812 329 797 q 368 825 353 826 q 399 814 389 824 q 411 781 410 804 q 399 746 411 760 q 371 731 388 732 z "},"ì":{"ha":213,"x_min":8,"x_max":204,"o":"m 150 506 q 197 90 157 258 q 199 60 200 76 q 163 14 197 24 q 106 33 128 3 q 88 78 96 47 q 49 346 61 196 q 49 467 43 425 q 49 599 49 578 q 57 638 49 622 q 84 665 67 657 q 118 668 101 674 q 149 644 138 663 q 156 607 161 626 q 150 506 149 582 m 138 739 q 111 760 129 750 q 44 782 101 765 q 10 822 10 792 q 44 851 10 853 q 54 850 49 850 q 179 792 111 840 q 199 764 194 776 q 198 740 203 751 q 181 724 193 729 q 138 739 156 714 z "},"í":{"ha":215,"x_min":7,"x_max":206,"o":"m 201 90 q 204 60 206 76 q 168 14 203 24 q 110 33 133 3 q 93 78 100 47 q 54 346 65 196 q 54 467 49 425 l 54 599 q 63 638 54 622 q 88 665 71 657 q 124 668 106 674 q 154 644 143 663 q 161 607 165 626 q 156 506 153 582 q 201 90 161 258 m 74 731 q 33 710 60 704 q 15 724 21 714 q 11 749 8 735 q 26 778 13 761 q 143 851 88 835 q 153 853 149 853 q 190 829 186 858 q 161 785 194 799 q 99 756 107 761 q 74 731 81 742 z "},"î":{"ha":211,"x_min":1,"x_max":204,"o":"m 153 506 q 199 90 160 258 q 201 60 203 76 q 165 14 200 24 q 107 33 131 3 q 90 78 97 47 q 51 346 63 196 q 51 467 46 425 q 51 599 51 576 q 60 638 51 622 q 76 658 65 650 q 97 669 86 667 q 121 668 108 672 q 151 644 140 663 q 158 607 163 626 q 153 506 151 582 m 67 729 q 25 718 50 710 q 13 747 1 726 q 19 756 15 751 q 90 839 58 807 q 106 853 100 849 q 139 863 121 864 q 168 847 157 861 q 178 826 175 840 q 201 742 183 808 q 201 736 201 739 q 175 710 204 714 q 138 729 144 707 q 125 774 135 736 q 118 788 122 782 q 69 733 81 746 q 67 731 68 732 q 67 729 67 731 z "},"ï":{"ha":211,"x_min":8,"x_max":203,"o":"m 153 506 q 199 90 160 258 q 201 60 203 76 q 165 14 200 24 q 107 33 131 3 q 90 78 97 47 q 51 346 63 196 q 51 467 46 425 q 51 508 51 482 q 51 557 51 535 q 51 599 51 579 q 60 638 51 622 q 86 665 68 657 q 121 668 104 674 q 152 644 140 663 q 158 607 164 626 q 153 506 151 582 m 163 731 q 132 744 144 731 q 119 778 119 758 q 131 812 119 797 q 158 825 143 826 q 190 814 179 824 q 201 781 201 804 q 190 746 201 760 q 163 731 179 732 m 92 781 q 80 746 92 760 q 51 731 68 732 q 22 744 35 731 q 10 778 10 758 q 22 812 10 797 q 49 825 33 826 q 71 820 63 824 q 85 806 79 817 q 92 781 92 796 z "},"ð":{"ha":576,"x_min":7,"x_max":568,"o":"m 200 7 q 60 102 113 31 q 10 271 8 174 q 65 436 10 347 q 199 575 118 519 q 351 658 263 619 q 373 672 371 667 q 368 694 375 676 q 332 792 350 743 q 321 808 325 807 q 301 803 317 810 q 156 726 204 758 q 118 714 135 714 q 72 740 85 713 q 81 793 60 768 q 110 817 88 803 q 256 900 183 863 q 272 913 271 908 q 265 931 272 917 q 238 975 256 946 q 206 1004 224 996 q 178 1038 185 1015 q 182 1079 171 1060 q 216 1103 193 1097 q 260 1096 239 1108 q 300 1057 275 1086 q 361 971 332 1022 q 388 964 371 956 q 426 981 389 964 q 479 1008 463 997 q 556 1000 526 1038 q 565 963 568 983 q 544 924 563 942 q 492 892 531 910 q 467 881 483 888 q 443 869 450 874 q 425 858 426 863 q 431 838 424 854 q 492 664 468 749 q 540 415 535 515 q 500 171 547 286 q 329 11 451 56 q 200 7 267 -11 m 399 211 q 406 561 460 360 q 306 514 361 546 q 219 453 250 482 q 138 340 165 403 q 118 238 115 294 q 153 159 121 196 q 231 112 186 122 q 325 128 276 101 q 399 211 378 163 z "},"ñ":{"ha":525,"x_min":4,"x_max":515,"o":"m 513 593 q 514 318 515 540 q 514 63 514 285 q 507 15 514 29 q 467 -16 494 -12 q 421 6 440 -19 q 406 53 407 25 q 404 183 404 168 q 404 294 404 235 q 405 423 404 354 q 406 533 406 492 q 399 632 406 582 q 390 628 394 631 q 384 623 386 625 q 378 615 382 621 q 375 610 375 610 q 286 440 325 540 q 176 63 228 293 q 178 6 168 24 q 179 -10 181 0 q 155 -53 179 -29 q 107 -81 131 -76 q 87 -80 97 -82 q 67 -72 76 -78 q 51 -58 58 -67 q 38 -37 43 -49 q 19 47 25 -7 q 15 479 4 193 q 19 569 17 510 q 24 638 22 629 q 32 678 25 665 q 78 703 47 706 q 119 671 108 701 q 124 633 122 660 q 119 321 124 490 q 119 306 119 321 q 122 306 119 306 q 125 306 124 306 q 161 418 160 411 q 251 618 200 529 q 306 699 278 664 q 354 747 331 729 q 438 770 397 782 q 496 704 478 758 q 513 593 510 664 m 178 782 q 149 782 164 774 q 133 808 135 790 q 160 879 131 850 q 206 900 179 897 q 254 889 232 903 q 289 861 274 876 q 313 844 300 850 q 331 850 325 838 q 332 871 333 858 q 332 888 331 882 q 360 907 339 906 q 388 893 382 908 q 357 803 406 835 q 310 792 335 789 q 247 824 276 797 q 221 847 228 843 q 197 843 207 856 q 188 811 183 826 q 190 804 190 804 q 178 782 193 790 z "},"ò":{"ha":508,"x_min":-3,"x_max":497,"o":"m 497 526 q 497 479 497 524 q 392 125 492 282 q 301 22 353 63 q 263 -4 281 6 q 150 -20 203 -37 q 68 60 97 -3 q 46 147 51 99 q 31 207 43 179 q 18 378 -3 278 q 111 613 44 504 q 207 714 153 679 q 386 715 297 771 q 497 526 485 654 m 381 393 q 385 539 397 481 q 335 618 375 592 q 297 633 314 633 q 258 618 281 633 q 192 519 206 579 q 150 226 158 389 q 154 160 154 165 q 169 100 157 124 q 185 85 178 88 q 206 88 192 82 q 239 111 221 94 q 311 200 281 146 q 381 393 361 285 m 300 851 q 276 900 268 871 q 318 918 285 928 q 326 915 322 917 q 432 828 379 892 q 444 796 443 808 q 438 772 446 782 q 418 761 431 763 q 379 786 390 758 q 358 814 375 799 q 341 828 350 822 q 318 841 332 833 q 300 851 304 849 z "},"ó":{"ha":508,"x_min":-3,"x_max":497,"o":"m 497 526 q 497 479 497 524 q 392 125 492 282 q 301 22 353 63 q 263 -4 281 6 q 150 -20 203 -37 q 68 60 97 -3 q 46 147 51 99 q 31 207 43 179 q 18 378 -3 278 q 111 613 44 504 q 207 714 153 679 q 386 715 297 771 q 497 526 485 654 m 381 393 q 385 539 397 481 q 335 618 375 592 q 297 633 314 633 q 258 618 281 633 q 192 519 206 579 q 150 226 158 389 q 154 160 154 165 q 169 100 157 124 q 185 85 178 88 q 206 88 192 82 q 239 111 221 94 q 311 200 281 146 q 381 393 361 285 m 215 788 q 201 794 207 789 q 194 808 196 800 q 194 825 192 817 q 211 854 197 838 q 329 925 274 911 q 338 926 333 926 q 376 903 372 932 q 346 858 379 872 q 282 831 290 836 q 257 806 264 818 q 215 788 242 779 z "},"ô":{"ha":508,"x_min":-3,"x_max":497,"o":"m 497 526 q 497 479 497 524 q 392 125 492 282 q 301 22 353 63 q 263 -4 281 6 q 150 -20 203 -37 q 68 60 97 -3 q 46 147 51 99 q 31 207 43 179 q 18 378 -3 278 q 111 613 44 504 q 207 714 153 679 q 386 715 297 771 q 497 526 485 654 m 381 393 q 385 539 397 481 q 335 618 375 592 q 297 633 314 633 q 258 618 281 633 q 192 519 206 579 q 150 226 158 389 q 154 160 154 165 q 169 100 157 124 q 185 85 178 88 q 206 88 192 82 q 239 111 221 94 q 311 200 281 146 q 381 393 361 285 m 228 776 q 215 806 204 785 q 222 815 218 811 q 296 896 264 864 q 311 908 306 904 q 344 917 326 919 q 374 901 363 915 q 383 881 381 893 q 404 794 388 864 q 404 789 404 793 q 376 764 406 767 q 364 765 369 764 q 353 768 358 765 q 344 775 349 771 q 339 785 340 779 q 328 829 338 790 q 322 843 326 838 q 272 790 282 800 q 270 789 271 790 q 269 786 269 788 q 228 776 253 767 z "},"õ":{"ha":508,"x_min":-3,"x_max":497,"o":"m 497 526 q 497 479 497 524 q 392 125 492 282 q 301 22 353 63 q 263 -4 281 6 q 150 -20 203 -37 q 68 60 97 -3 q 46 147 51 99 q 31 207 43 179 q 18 378 -3 278 q 111 613 44 504 q 207 714 153 679 q 386 715 297 771 q 497 526 485 654 m 381 393 q 385 539 397 481 q 335 618 375 592 q 297 633 314 633 q 258 618 281 633 q 192 519 206 579 q 150 226 158 389 q 154 160 154 165 q 169 100 157 124 q 185 85 178 88 q 206 88 192 82 q 239 111 221 94 q 311 200 281 146 q 381 393 361 285 m 236 783 q 211 787 222 778 q 200 811 200 796 q 232 868 203 847 q 274 881 251 882 q 315 867 297 881 q 342 838 331 853 q 360 821 350 826 q 375 824 369 814 q 379 842 379 831 q 382 856 379 850 q 408 869 389 871 q 429 853 428 867 q 393 779 439 800 q 351 776 372 769 q 301 811 322 785 q 282 833 286 829 q 260 833 269 843 q 249 807 246 821 q 249 800 249 801 q 236 783 250 788 z "},"ö":{"ha":508,"x_min":-3,"x_max":497,"o":"m 497 526 q 497 479 497 524 q 392 125 492 282 q 301 22 353 63 q 263 -4 281 6 q 150 -20 203 -37 q 68 60 97 -3 q 46 147 51 99 q 31 207 43 179 q 18 378 -3 278 q 111 613 44 504 q 207 714 153 679 q 386 715 297 771 q 497 526 485 654 m 381 393 q 385 539 397 481 q 335 618 375 592 q 297 633 314 633 q 258 618 281 633 q 192 519 206 579 q 150 226 158 389 q 154 160 154 165 q 169 100 157 124 q 185 85 178 88 q 206 88 192 82 q 239 111 221 94 q 311 200 281 146 q 381 393 361 285 m 261 771 q 227 777 242 764 q 213 815 213 790 q 239 864 214 846 q 282 858 260 879 q 296 811 304 839 q 261 771 288 781 m 358 771 q 328 784 340 771 q 315 817 315 797 q 327 851 315 836 q 354 865 339 867 q 386 853 375 863 q 399 819 397 843 q 397 804 399 811 q 390 791 394 797 q 381 781 386 785 q 370 774 376 776 q 358 771 364 771 z "},"÷":{"ha":489,"x_min":7,"x_max":489,"o":"m 429 672 q 476 637 465 669 q 460 581 488 604 q 411 560 443 565 q 93 497 182 518 q 71 494 92 497 q 58 496 58 496 q 24 510 38 497 q 10 540 11 522 q 19 574 8 560 q 51 592 31 588 q 165 621 67 596 q 408 671 226 636 q 429 672 418 672 m 211 482 q 249 499 225 499 q 289 482 272 499 q 311 422 313 460 q 289 363 310 389 q 221 340 261 326 q 199 352 208 343 q 184 373 189 361 q 179 400 179 385 q 211 482 179 442 m 224 668 q 183 718 190 679 q 183 725 183 721 q 199 778 183 757 q 241 800 215 801 q 281 774 267 799 q 285 762 282 769 q 292 751 289 754 q 289 688 311 714 q 224 668 263 656 z "},"ø":{"ha":535,"x_min":-40,"x_max":575,"o":"m 522 730 q 531 731 522 730 q 555 720 540 732 q 572 690 569 708 q 563 657 575 671 l 496 571 q 503 526 501 549 q 503 479 503 524 q 399 125 497 282 q 307 22 360 63 q 269 -4 288 6 q 163 -22 214 -35 q 83 43 113 -8 l 44 -6 q 8 -24 31 -24 q -19 -14 -7 -24 q -37 16 -35 -3 q -28 50 -39 35 l 51 151 q 36 207 49 181 q 24 378 3 278 q 117 613 50 504 q 213 714 158 679 q 392 715 303 771 q 451 663 428 693 l 492 713 q 522 730 503 728 m 197 519 q 161 292 171 415 l 381 572 q 342 618 368 600 q 303 633 319 633 q 264 618 286 633 q 197 519 213 579 m 386 393 q 393 440 392 418 l 163 144 q 176 100 167 118 q 190 85 183 88 q 211 88 197 82 q 244 111 226 94 q 318 200 286 146 q 386 393 367 285 z "},"ù":{"ha":489,"x_min":-12,"x_max":488,"o":"m 478 -54 q 444 -122 486 -111 q 419 -123 432 -126 q 396 -110 407 -119 q 378 -85 385 -100 q 358 3 364 -56 q 346 153 357 15 q 345 165 346 157 q 344 175 344 172 q 342 175 344 175 q 340 175 340 175 q 306 108 308 114 q 254 46 285 71 q 171 18 214 14 q 94 61 128 22 q 51 138 68 93 q 21 522 -12 319 q 29 550 24 536 q 56 580 39 571 q 92 582 74 589 q 108 572 101 579 q 120 557 115 565 q 127 538 125 549 q 126 518 129 528 q 114 435 117 478 q 117 349 111 393 q 130 269 122 306 q 150 186 138 233 q 171 140 157 161 q 182 131 178 131 q 194 139 186 131 q 228 193 211 157 q 286 381 254 250 q 339 633 319 515 q 342 649 340 643 q 400 696 356 699 q 434 680 421 694 q 451 642 447 665 q 453 607 453 631 q 451 357 451 447 q 464 32 450 185 q 478 -54 464 32 m 146 769 q 117 814 113 783 q 154 838 119 843 q 163 836 158 838 q 281 763 218 819 q 297 733 294 746 q 294 709 300 719 q 274 696 288 699 q 233 715 247 689 q 208 740 226 728 q 146 769 201 746 z "},"ú":{"ha":489,"x_min":-12,"x_max":488,"o":"m 478 -54 q 444 -122 486 -111 q 419 -123 432 -126 q 396 -110 407 -119 q 378 -85 385 -100 q 358 3 364 -56 q 346 153 357 15 q 345 165 346 157 q 344 175 344 172 q 340 175 343 175 q 306 108 308 114 q 254 46 285 71 q 171 18 214 14 q 94 61 128 22 q 51 138 68 93 q 21 522 -12 319 q 29 550 24 536 q 56 580 39 571 q 92 582 74 589 q 108 572 101 579 q 120 557 115 565 q 127 538 125 549 q 126 518 129 528 q 115 450 118 485 q 114 384 113 415 q 122 317 115 353 q 134 252 128 281 q 150 186 140 224 q 171 140 157 161 q 182 131 178 131 q 194 139 186 131 q 228 193 211 157 q 286 381 254 250 q 339 633 319 515 q 342 649 340 643 q 400 696 356 699 q 419 690 410 694 q 434 679 428 686 q 445 663 440 672 q 451 642 450 653 q 453 607 453 631 q 451 357 451 447 q 464 32 450 185 q 478 -54 464 32 m 153 697 q 135 713 140 701 q 133 738 129 724 q 153 765 138 750 q 275 828 218 817 q 283 829 279 829 q 319 803 318 832 q 288 761 321 772 q 221 736 231 742 q 194 714 203 725 q 153 697 178 689 z "},"û":{"ha":489,"x_min":-12,"x_max":488,"o":"m 478 -54 q 444 -122 486 -111 q 419 -123 432 -126 q 396 -110 407 -119 q 378 -85 385 -100 q 358 3 364 -56 q 346 153 357 15 q 345 165 346 157 q 344 175 344 172 q 340 175 343 175 q 306 108 308 113 q 254 46 285 71 q 171 18 214 14 q 94 61 128 22 q 51 138 68 93 q 21 522 -12 319 q 29 550 24 536 q 56 580 39 571 q 92 582 74 589 q 108 572 101 579 q 120 557 115 565 q 127 538 125 549 q 126 518 129 528 q 114 435 117 478 q 117 349 111 393 q 130 269 122 306 q 150 186 138 233 q 171 140 157 161 q 182 131 178 131 q 194 139 186 131 q 228 193 211 157 q 286 381 254 250 q 339 633 319 515 q 342 649 340 643 q 400 696 356 699 q 434 680 421 694 q 451 642 447 665 q 453 607 453 631 q 451 357 451 447 q 464 32 450 185 q 478 -54 464 32 m 128 674 q 113 700 104 678 q 117 710 114 706 q 178 801 151 765 q 192 817 186 811 q 224 829 206 829 q 254 818 242 829 q 267 799 263 811 q 300 717 275 779 q 301 711 300 715 q 278 682 306 689 q 238 697 247 675 q 221 739 235 703 q 213 753 217 749 q 169 693 182 711 q 169 692 169 693 q 168 689 168 690 q 128 674 154 668 z "},"ü":{"ha":489,"x_min":-12,"x_max":488,"o":"m 478 -54 q 444 -122 486 -111 q 419 -123 432 -126 q 396 -110 407 -119 q 378 -85 385 -100 q 358 3 364 -56 q 346 153 357 15 q 345 165 346 157 q 344 175 344 172 q 340 175 343 175 q 306 108 308 114 q 254 46 285 71 q 171 18 214 14 q 94 61 128 22 q 51 138 68 93 q 21 522 -12 319 q 29 550 24 536 q 56 580 39 571 q 92 582 74 589 q 108 572 101 579 q 120 557 115 565 q 127 538 125 549 q 126 518 129 528 q 115 450 118 485 q 114 384 113 415 q 122 317 115 353 q 134 252 128 281 q 150 186 140 224 q 171 140 157 161 q 182 131 178 131 q 194 139 186 131 q 228 193 211 157 q 286 381 254 250 q 339 633 319 515 q 342 649 340 643 q 400 696 356 699 q 419 690 410 694 q 434 679 428 686 q 445 663 440 672 q 451 642 450 653 q 453 607 453 631 q 451 357 451 447 q 464 32 450 185 q 478 -54 464 32 m 174 679 q 139 679 156 668 q 118 714 122 690 q 136 767 114 744 q 181 769 153 785 q 201 724 206 754 q 174 679 197 693 m 269 696 q 238 703 253 692 q 219 733 224 715 q 221 758 218 746 q 231 779 224 771 q 249 788 239 788 q 283 781 271 789 q 300 751 296 774 q 295 715 304 732 q 269 696 286 699 z "},"ý":{"ha":522,"x_min":1,"x_max":533,"o":"m 525 731 q 529 675 532 710 q 504 442 524 600 q 451 -385 450 1 q 460 -518 451 -457 q 460 -546 463 -535 q 426 -583 453 -575 q 376 -571 399 -592 q 350 -515 356 -553 q 343 -425 344 -481 q 357 68 339 -210 q 356 97 358 90 q 325 32 328 36 q 269 -43 301 -17 q 192 -74 233 -74 q 114 -42 150 -74 q 51 56 76 -8 q 14 229 21 132 q 25 590 3 396 q 38 629 28 614 q 85 651 54 656 q 124 619 117 647 q 126 611 124 618 q 128 602 128 604 q 131 593 129 600 q 133 583 132 586 q 134 575 133 581 q 134 565 135 569 q 133 556 133 561 q 130 547 132 551 q 125 538 128 543 q 121 517 121 531 q 120 442 121 490 q 119 362 119 393 q 119 288 118 331 q 125 211 121 246 q 163 72 135 126 q 167 65 164 71 q 172 55 171 58 q 177 47 174 51 q 184 41 181 43 q 192 39 188 39 q 201 41 197 39 q 209 47 206 43 q 215 54 213 51 q 219 63 217 57 q 224 72 222 69 q 269 185 244 108 q 375 567 314 319 q 417 714 382 590 q 425 738 419 729 q 475 768 442 769 q 525 731 511 768 m 197 707 q 179 722 185 711 q 178 746 174 733 q 196 775 181 758 q 319 838 263 826 q 328 838 324 838 q 364 811 363 840 q 332 769 365 781 q 265 746 274 750 q 239 724 246 735 q 197 707 222 697 z "},"þ":{"ha":381,"x_min":6,"x_max":392,"o":"m 114 1058 q 124 1018 115 1054 q 135 763 136 918 q 135 744 135 751 q 150 728 135 729 q 199 718 175 726 q 339 592 296 682 q 358 375 390 485 q 169 200 315 231 q 147 192 150 196 q 144 168 144 189 q 149 3 146 110 q 151 -142 151 -104 q 147 -175 153 -161 q 126 -201 140 -192 q 96 -210 113 -211 q 46 -171 56 -210 q 43 -146 43 -161 q 33 257 43 -40 q 25 717 24 554 q 26 969 26 782 q 17 1024 26 1004 q 12 1060 7 1043 q 35 1089 17 1078 q 74 1094 53 1099 q 107 1072 94 1089 q 114 1058 113 1064 m 229 356 q 257 492 269 407 q 253 513 254 513 q 157 624 226 597 q 139 626 143 629 q 135 608 135 622 q 135 518 135 556 q 139 325 138 407 q 144 308 140 311 q 160 310 147 306 q 229 356 201 321 z "},"ÿ":{"ha":522,"x_min":1,"x_max":533,"o":"m 525 731 q 529 675 532 710 q 504 442 524 600 q 451 -385 450 1 q 460 -518 451 -457 q 460 -546 463 -535 q 426 -583 453 -575 q 376 -571 399 -592 q 350 -515 356 -553 q 343 -425 344 -481 q 357 68 339 -210 q 356 97 358 90 q 325 32 328 36 q 269 -43 301 -17 q 192 -74 233 -74 q 114 -42 150 -74 q 51 56 76 -8 q 14 229 21 132 q 25 590 3 396 q 38 629 28 614 q 85 651 54 656 q 124 619 117 647 q 126 611 124 618 q 128 602 128 604 q 131 593 129 600 q 133 583 132 586 q 134 575 133 581 q 134 565 135 569 q 133 556 133 561 q 130 547 132 551 q 125 538 128 543 q 121 517 121 531 q 120 442 121 490 q 119 362 119 393 q 119 288 118 331 q 125 211 121 246 q 163 72 135 126 q 167 65 164 71 q 172 55 171 58 q 177 47 174 51 q 184 41 181 43 q 192 39 188 39 q 201 41 197 39 q 209 47 206 43 q 215 54 213 51 q 219 63 217 57 q 224 72 222 69 q 269 185 244 108 q 375 567 314 319 q 417 714 382 590 q 425 738 419 729 q 475 768 442 769 q 525 731 511 768 m 203 724 q 169 729 183 715 q 156 768 154 743 q 182 817 156 799 q 225 811 201 832 q 239 763 247 792 q 203 724 229 733 m 300 724 q 271 736 283 722 q 258 769 258 750 q 270 803 258 789 q 297 817 282 818 q 329 806 318 815 q 340 772 340 796 q 328 738 340 753 q 300 724 317 724 z "},"Ā":{"ha":761,"x_min":-44,"x_max":778,"o":"m 407 1265 q 369 1279 383 1267 q 356 1313 356 1292 q 403 1361 354 1354 q 471 1369 418 1364 q 521 1375 475 1371 q 682 1385 603 1388 q 701 1383 696 1385 q 726 1372 715 1381 q 742 1353 736 1364 q 747 1328 747 1342 q 733 1294 746 1308 q 697 1276 719 1279 q 669 1276 688 1276 q 438 1267 574 1279 q 407 1265 418 1264 m 751 -160 q 757 -221 778 -187 q 697 -242 738 -253 q 644 -201 667 -235 q 601 -107 621 -167 q 546 175 568 3 q 526 439 529 318 q 523 460 526 457 q 500 461 519 463 q 264 408 388 450 q 229 376 238 399 q 175 207 186 251 q 172 185 169 190 q 189 174 174 181 q 256 160 228 157 q 288 151 275 161 q 306 121 301 140 q 276 68 313 86 q 193 67 246 54 q 154 78 181 69 q 140 71 143 82 q 114 -82 117 -29 q 118 -100 113 -90 q 115 -145 128 -125 q 76 -171 101 -165 q 49 -169 63 -175 q 26 -152 36 -164 q 14 -124 17 -140 q 14 -78 13 -114 q 39 108 17 8 q 25 157 46 139 q -29 250 -18 194 q 15 394 -44 331 q 129 469 56 436 q 164 507 154 481 q 451 1040 261 750 q 473 1072 458 1051 q 494 1101 488 1092 q 503 1113 499 1107 q 510 1122 507 1118 q 520 1132 514 1126 q 530 1141 526 1138 q 540 1151 533 1144 q 550 1159 547 1157 q 561 1167 553 1161 q 571 1175 569 1174 q 582 1183 572 1176 q 593 1192 592 1190 q 637 1197 614 1207 q 665 1161 660 1188 q 665 1113 669 1149 q 633 607 636 871 q 634 597 633 607 q 633 588 635 588 q 651 564 632 567 q 681 554 665 563 q 708 506 713 539 q 667 464 703 471 q 662 464 665 464 q 657 464 658 464 q 638 458 640 461 q 635 438 635 454 q 647 257 643 300 q 703 -64 665 63 q 751 -160 722 -129 m 90 232 l 122 343 q 102 335 114 340 q 70 315 90 329 q 50 288 50 301 q 60 261 50 275 q 81 240 71 247 l 90 232 m 533 878 q 537 907 535 886 q 540 938 539 928 q 539 972 540 949 q 395 739 489 911 q 300 533 301 567 q 494 569 401 561 q 503 571 497 571 q 512 571 510 571 q 517 572 514 571 q 522 575 521 574 q 524 581 522 576 q 525 590 525 585 q 525 603 525 594 q 533 878 528 774 z "},"ā":{"ha":533,"x_min":4,"x_max":525,"o":"m 514 -10 q 524 -46 524 -28 q 502 -83 522 -69 q 460 -90 482 -97 q 407 -40 426 -81 q 378 71 389 -4 q 371 197 372 106 q 347 165 361 192 q 278 54 310 94 q 211 -6 244 14 q 114 -24 161 -36 q 39 40 67 -11 q 10 158 11 93 q 178 585 4 401 q 353 657 253 667 q 399 647 381 656 q 458 636 429 633 q 499 617 482 638 q 515 568 515 597 q 507 493 514 546 q 482 285 486 331 q 490 61 472 169 q 514 -10 497 18 m 374 510 q 376 547 383 536 q 339 554 368 557 q 294 540 317 554 q 246 501 265 524 q 118 194 128 368 q 125 119 118 144 q 143 85 133 88 q 176 106 153 82 q 253 218 214 142 q 374 510 313 336 m 253 693 q 219 721 221 694 q 251 750 219 746 q 296 756 261 751 q 328 758 297 756 q 433 765 382 767 q 446 764 442 765 q 461 758 454 763 q 472 747 468 754 q 475 732 475 740 q 442 701 474 706 q 424 701 436 701 q 274 694 361 703 q 253 693 261 693 z "},"Ă":{"ha":763,"x_min":-44,"x_max":778,"o":"m 588 1235 q 525 1256 554 1235 q 485 1311 496 1278 q 485 1376 475 1339 q 503 1394 489 1389 q 531 1392 518 1403 q 539 1364 544 1379 q 546 1317 529 1335 q 597 1297 568 1293 q 629 1312 618 1301 q 644 1346 640 1322 q 647 1358 647 1357 q 679 1379 656 1383 q 697 1371 690 1379 q 706 1350 704 1363 q 704 1336 706 1344 q 665 1262 696 1289 q 588 1235 635 1235 m 751 -160 q 757 -221 778 -187 q 697 -242 738 -253 q 644 -201 667 -235 q 603 -107 621 -167 q 546 175 568 3 q 526 439 529 318 q 523 460 526 457 q 500 461 519 463 q 264 408 388 450 q 229 376 238 399 q 175 207 186 251 q 172 185 169 189 q 189 174 174 181 q 256 160 228 157 q 288 151 275 161 q 306 121 301 140 q 276 68 313 86 q 193 67 246 54 q 154 78 181 69 q 140 71 143 82 q 114 -82 117 -29 q 118 -100 113 -90 q 115 -145 128 -125 q 76 -171 101 -165 q 37 -162 56 -176 q 14 -124 18 -149 q 14 -78 13 -114 q 39 108 17 8 q 25 157 46 139 q -29 250 -18 194 q 15 394 -44 331 q 129 469 56 436 q 164 507 154 481 q 451 1040 261 750 q 473 1072 458 1051 q 494 1101 488 1092 q 514 1126 504 1114 q 542 1152 524 1138 q 564 1170 560 1167 q 593 1192 568 1174 q 637 1197 614 1207 q 665 1161 660 1188 q 665 1113 669 1149 q 633 607 636 871 q 634 597 633 607 q 633 588 635 588 q 651 564 632 567 q 681 554 665 563 q 708 506 713 539 q 667 464 703 471 q 662 464 665 464 q 657 464 658 464 q 638 458 640 461 q 635 438 635 454 q 647 257 643 300 q 703 -64 665 63 q 751 -160 722 -129 m 90 232 l 122 343 q 102 335 114 340 q 70 315 90 329 q 50 288 50 301 q 60 261 50 275 q 81 240 71 247 l 90 232 m 533 878 q 537 907 535 886 q 540 938 539 928 q 539 972 540 949 q 395 739 489 911 q 300 533 301 567 q 494 569 401 561 q 503 571 497 571 q 512 571 510 571 q 517 572 514 571 q 522 575 521 574 q 524 581 522 576 q 525 590 525 585 q 525 603 525 594 q 533 878 528 774 z "},"ă":{"ha":533,"x_min":4,"x_max":525,"o":"m 514 -10 q 524 -46 524 -28 q 502 -83 522 -69 q 460 -90 482 -97 q 407 -40 426 -81 q 378 71 389 -4 q 371 197 372 106 q 347 165 361 192 q 278 54 310 94 q 211 -6 244 14 q 114 -24 161 -36 q 39 40 67 -11 q 10 158 11 94 q 178 585 4 401 q 353 657 253 667 q 399 647 381 656 q 458 636 429 633 q 499 617 482 638 q 515 568 515 597 q 507 493 514 546 q 482 285 486 331 q 490 61 472 169 q 514 -10 497 18 m 374 510 q 376 547 383 536 q 339 554 368 557 q 294 540 317 554 q 246 501 265 524 q 118 194 128 368 q 125 119 118 144 q 143 85 133 88 q 176 106 153 82 q 253 218 214 142 q 374 510 313 336 m 375 701 q 350 706 363 701 q 327 717 338 710 q 308 734 317 724 q 296 756 300 744 q 296 800 289 774 q 310 813 299 808 q 332 810 322 818 q 338 792 342 803 q 343 760 329 772 q 382 746 360 743 q 419 779 413 750 q 422 788 421 786 q 446 802 428 804 q 467 782 464 800 q 465 772 467 779 q 435 720 458 739 q 375 701 411 701 z "},"Ą":{"ha":753,"x_min":-44,"x_max":819,"o":"m 789 -392 q 813 -415 807 -400 q 810 -446 819 -431 q 686 -525 768 -517 q 539 -478 596 -533 q 500 -403 499 -436 q 535 -294 501 -339 q 640 -190 576 -240 q 601 -103 619 -157 q 546 179 568 7 q 526 443 529 322 q 523 464 526 461 q 500 465 519 467 q 264 413 388 454 q 229 381 238 403 q 174 211 186 256 q 172 189 169 193 q 189 178 174 185 q 256 164 228 161 q 288 155 275 165 q 306 125 301 144 q 276 72 313 90 q 193 71 246 58 q 154 82 181 74 q 140 75 143 86 q 114 -78 117 -25 q 118 -96 113 -86 q 115 -141 128 -121 q 76 -167 101 -161 q 37 -158 56 -172 q 14 -119 18 -144 q 14 -74 13 -110 q 39 113 17 13 q 25 161 46 143 q -29 254 -18 199 q 15 399 -44 335 q 129 474 56 440 q 164 511 154 485 q 451 1044 261 754 q 473 1076 458 1056 q 494 1106 488 1096 q 514 1130 504 1118 q 542 1156 524 1142 q 564 1174 560 1171 q 593 1196 568 1178 q 637 1201 614 1211 q 665 1165 660 1192 q 665 1117 669 1153 q 633 611 636 875 q 634 601 633 611 q 633 592 635 592 q 651 568 632 571 q 681 558 665 567 q 708 510 713 543 q 667 468 703 475 q 662 468 665 468 q 657 468 658 468 q 638 462 640 465 q 635 442 635 458 q 647 261 643 304 q 703 -60 665 67 q 751 -156 722 -125 q 757 -217 778 -183 q 718 -240 744 -237 q 640 -321 685 -267 q 610 -381 615 -349 q 617 -415 606 -399 q 649 -436 629 -432 q 699 -425 679 -444 q 709 -413 703 -421 q 719 -403 715 -406 q 789 -392 750 -372 m 90 236 l 122 347 q 102 339 114 344 q 70 319 90 333 q 50 292 50 306 q 60 265 50 279 q 81 244 71 251 l 90 236 m 533 882 q 537 911 535 890 q 540 942 539 932 q 539 976 540 953 q 395 743 489 915 q 300 538 301 571 q 494 574 401 565 q 503 575 497 575 q 512 575 510 575 q 517 576 514 575 q 522 579 521 578 q 524 585 522 581 q 525 594 525 589 q 525 607 525 599 q 533 882 528 778 z "},"ą":{"ha":533,"x_min":4,"x_max":525,"o":"m 500 -169 q 510 -200 519 -181 q 456 -244 492 -240 q 390 -218 415 -249 q 372 -176 372 -194 q 388 -116 374 -140 q 425 -68 403 -92 q 407 -40 415 -57 q 378 71 389 -4 q 371 197 372 106 q 347 165 361 192 q 278 54 310 94 q 211 -6 244 14 q 114 -24 161 -36 q 39 40 67 -11 q 10 158 11 93 q 178 585 4 401 q 353 657 253 667 q 399 647 381 656 q 458 636 429 633 q 499 617 482 638 q 515 568 515 597 q 507 493 514 546 q 482 285 486 331 q 490 61 472 169 q 514 -10 497 18 q 524 -46 524 -28 q 504 -82 522 -68 q 464 -92 486 -96 q 435 -131 451 -106 q 421 -164 424 -146 q 424 -183 419 -174 q 439 -194 429 -192 q 461 -189 451 -199 q 464 -184 463 -186 q 467 -180 465 -182 q 469 -176 468 -178 q 500 -169 483 -160 m 374 510 q 376 547 383 536 q 339 554 368 557 q 294 540 317 554 q 246 501 265 524 q 118 194 128 368 q 125 119 118 144 q 143 85 133 88 q 176 106 153 82 q 253 218 214 142 q 374 510 313 336 z "},"Ć":{"ha":756,"x_min":10,"x_max":750,"o":"m 414 1394 q 376 1390 394 1385 q 349 1411 358 1394 q 343 1444 339 1426 q 363 1475 347 1463 q 450 1536 404 1507 q 569 1610 471 1549 q 615 1626 593 1625 q 656 1609 640 1626 q 668 1568 671 1592 q 628 1518 663 1538 q 492 1442 558 1481 q 458 1421 481 1435 q 433 1406 436 1407 q 414 1394 421 1397 m 717 406 q 746 353 749 393 q 722 282 743 324 q 581 79 674 188 q 450 -51 511 -1 q 340 -114 396 -96 q 200 -117 267 -139 q 88 -33 133 -96 q 18 149 33 39 q 11 254 10 201 q 61 565 13 397 q 293 1103 144 853 q 418 1271 356 1207 q 511 1344 465 1321 q 625 1365 569 1375 q 696 1328 668 1358 q 728 1256 724 1299 q 717 1182 731 1218 q 663 1151 701 1143 q 625 1201 624 1158 q 627 1219 625 1207 q 629 1236 629 1231 q 600 1263 629 1265 q 561 1249 582 1261 q 475 1172 518 1224 q 339 964 408 1094 q 140 432 196 690 q 124 175 110 292 q 169 39 135 93 q 315 -7 224 -43 q 385 35 353 7 q 631 340 542 174 q 656 386 650 378 q 717 406 681 421 z "},"ć":{"ha":449,"x_min":-3,"x_max":443,"o":"m 438 208 q 429 154 442 183 q 369 86 411 115 q 189 24 289 29 q 54 93 104 19 q 13 226 19 147 q 61 538 -1 392 q 139 642 88 597 q 297 671 207 701 q 353 619 336 657 q 340 561 369 583 q 279 563 311 538 q 238 579 256 581 q 200 556 221 578 q 147 460 168 518 q 118 282 121 382 q 128 194 119 229 q 142 160 132 176 q 189 133 158 129 q 342 217 301 147 q 357 236 349 228 q 406 247 379 256 q 438 208 432 238 m 190 713 q 165 718 176 711 q 147 735 153 725 q 144 757 142 746 q 167 782 149 774 q 229 811 196 794 q 299 840 269 831 q 340 840 321 849 q 361 820 356 833 q 358 794 367 807 q 318 768 343 769 q 293 760 307 768 q 271 748 285 756 q 245 734 257 740 q 224 724 233 728 q 190 713 204 713 z "},"Č":{"ha":754,"x_min":8,"x_max":749,"o":"m 388 1575 q 385 1583 386 1579 q 389 1613 379 1599 q 419 1633 399 1626 q 458 1635 439 1640 q 486 1615 478 1631 q 519 1551 492 1606 q 535 1532 526 1538 q 596 1632 579 1604 q 599 1635 597 1632 l 599 1638 q 661 1669 619 1674 q 678 1665 671 1668 q 688 1656 685 1661 q 692 1644 692 1651 q 690 1629 693 1638 q 683 1613 688 1619 q 596 1460 636 1521 q 575 1433 583 1442 q 525 1409 554 1413 q 474 1422 496 1406 q 450 1451 461 1432 q 388 1575 438 1478 m 715 406 q 744 353 747 393 q 721 282 742 324 q 579 79 672 188 q 449 -51 510 -1 q 339 -114 394 -96 q 199 -117 265 -139 q 86 -33 132 -96 q 17 149 32 39 q 10 254 8 201 q 60 565 11 397 q 292 1103 143 853 q 417 1271 354 1207 q 510 1344 464 1321 q 624 1365 568 1375 q 694 1328 667 1358 q 726 1256 722 1299 q 715 1182 729 1218 q 661 1151 700 1143 q 624 1201 622 1158 q 626 1219 624 1207 q 628 1236 628 1231 q 599 1263 628 1265 q 560 1249 581 1261 q 474 1172 517 1224 q 338 964 407 1094 q 139 432 194 690 q 122 175 108 292 q 168 39 133 93 q 314 -7 222 -43 q 383 35 351 7 q 629 340 540 174 q 654 386 649 378 q 715 406 679 421 z "},"č":{"ha":449,"x_min":-3,"x_max":443,"o":"m 438 208 q 429 154 442 183 q 369 86 411 115 q 189 24 289 29 q 54 93 104 19 q 13 226 19 147 q 61 538 -1 392 q 139 642 88 597 q 297 671 207 701 q 353 619 336 657 q 340 561 369 583 q 279 563 311 538 q 238 579 256 581 q 200 554 221 578 q 147 460 168 518 q 118 282 121 382 q 128 194 119 229 q 142 160 132 176 q 189 133 158 129 q 342 217 301 147 q 357 236 349 228 q 406 247 379 256 q 438 208 432 238 m 189 754 q 168 836 185 768 q 167 840 167 838 q 190 867 165 863 q 225 849 218 871 q 236 806 226 842 q 242 792 238 797 q 256 810 247 800 q 272 828 264 819 q 285 846 279 838 q 285 847 285 846 q 286 849 286 849 q 322 861 301 868 q 335 833 344 853 q 329 824 332 828 q 267 742 294 774 q 254 729 258 733 q 224 719 240 718 q 199 733 208 721 q 189 754 193 740 z "},"Ď":{"ha":882,"x_min":-94,"x_max":953,"o":"m 249 1463 q 246 1469 247 1465 q 274 1524 231 1503 q 313 1531 293 1533 q 342 1515 332 1528 q 383 1456 350 1506 q 400 1438 392 1443 q 449 1544 433 1510 q 451 1548 450 1546 q 451 1551 451 1550 q 510 1590 467 1589 q 537 1581 528 1590 q 543 1554 546 1571 q 539 1536 542 1544 q 469 1374 503 1440 q 454 1346 461 1356 q 407 1314 436 1321 q 354 1321 378 1307 q 328 1347 340 1329 q 249 1463 310 1374 m 913 965 q 836 413 953 697 q 410 -203 701 86 q 206 -367 307 -303 q 111 -417 151 -401 q 60 -426 82 -428 q 7 -403 26 -425 q 1 -340 -19 -372 q 60 -315 22 -306 q 86 -318 81 -321 q 115 -300 110 -310 q 115 -265 121 -290 q 88 -32 99 -186 q 82 864 63 311 q 88 947 82 867 q 24 810 21 883 q 24 778 24 779 q -14 731 22 739 q -69 760 -53 722 q -78 879 -94 814 q 6 1028 -60 953 q 268 1233 101 1138 q 485 1317 381 1297 q 607 1324 553 1329 q 843 1168 757 1307 q 913 965 896 1085 m 736 458 q 813 882 825 669 q 774 1068 807 990 q 676 1188 738 1153 q 524 1213 615 1224 q 511 1211 515 1211 q 214 1069 379 1186 q 204 1046 203 1063 q 209 1000 210 1026 q 194 956 208 974 q 193 938 194 954 q 183 553 183 585 q 213 -186 175 131 q 221 -219 215 -212 q 226 -218 226 -218 q 239 -210 233 -214 q 736 458 581 82 z "},"ď":{"ha":654,"x_min":3,"x_max":783,"o":"m 575 1268 q 599 1263 588 1268 q 619 1245 611 1257 q 631 1218 626 1233 q 632 1165 633 1203 q 611 954 626 1074 q 565 136 556 486 q 586 -115 569 -40 q 561 -174 594 -157 q 497 -162 528 -192 q 476 -118 482 -147 q 460 50 463 -58 q 456 360 451 256 q 456 371 456 360 q 453 372 456 372 q 450 372 451 372 q 433 326 435 331 q 344 113 389 194 q 276 13 311 50 q 165 -37 222 -43 q 65 36 107 -31 q 10 242 15 118 q 71 536 4 399 q 93 574 81 554 q 218 680 143 653 q 382 679 293 707 q 414 675 408 672 q 426 706 419 678 q 515 1182 475 922 q 521 1219 519 1208 q 541 1255 526 1242 q 575 1268 556 1268 m 386 543 q 388 560 390 553 q 375 572 386 568 q 259 578 307 594 q 179 507 211 563 q 157 463 167 486 q 119 267 118 369 q 132 156 118 211 q 151 106 140 128 q 177 75 167 76 q 207 99 188 74 q 243 154 229 125 q 285 240 272 210 q 386 543 339 367 m 706 1222 q 763 1182 743 1211 q 779 1113 782 1153 q 756 1059 776 1083 q 707 1028 735 1035 q 654 1033 683 1022 q 640 1050 644 1038 q 646 1075 635 1065 q 669 1079 657 1086 q 708 1082 692 1068 q 728 1125 729 1100 q 693 1171 726 1160 q 682 1175 683 1175 q 667 1204 663 1183 q 693 1225 671 1225 q 706 1222 697 1225 z "},"đ":{"ha":594,"x_min":3,"x_max":778,"o":"m 758 1084 q 765 1078 758 1084 q 774 1053 772 1072 q 765 1020 776 1035 q 735 1003 753 1006 q 615 990 683 997 q 611 954 613 964 q 565 136 556 486 q 586 -115 569 -42 q 561 -174 594 -157 q 497 -162 528 -192 q 476 -118 482 -147 q 460 50 463 -58 q 456 360 451 256 q 456 371 456 360 q 453 372 456 372 q 450 372 451 372 q 433 326 435 331 q 344 113 389 194 q 276 13 311 50 q 165 -37 222 -43 q 65 36 107 -31 q 10 242 15 118 q 71 536 4 399 q 93 574 81 554 q 218 680 143 653 q 382 679 293 707 q 414 675 408 672 q 426 706 419 678 q 481 976 454 831 q 289 958 332 961 q 286 958 288 958 q 264 964 274 958 q 247 979 254 969 q 240 1000 240 989 q 251 1033 239 1019 q 282 1049 264 1047 q 497 1069 328 1051 q 515 1182 507 1128 q 521 1219 519 1208 q 541 1255 526 1242 q 575 1268 556 1268 q 599 1263 588 1268 q 619 1245 611 1257 q 631 1218 626 1233 q 631 1166 633 1203 q 625 1083 629 1129 q 658 1087 642 1085 q 685 1090 674 1089 q 705 1092 696 1090 q 719 1094 714 1093 q 724 1094 724 1094 q 758 1084 743 1096 m 386 543 q 388 560 390 553 q 375 572 386 568 q 259 578 307 594 q 179 507 211 563 q 157 463 167 486 q 119 267 118 369 q 132 156 118 211 q 151 106 140 128 q 177 75 167 76 q 207 99 188 74 q 243 154 229 125 q 285 240 272 210 q 386 543 339 367 z "},"Ē":{"ha":913,"x_min":-96,"x_max":978,"o":"m 456 1356 q 416 1363 432 1353 q 396 1393 400 1374 q 433 1450 388 1435 q 500 1469 449 1454 q 549 1483 503 1471 q 706 1521 628 1510 q 725 1522 719 1522 q 761 1508 746 1521 q 779 1476 776 1496 q 771 1440 782 1456 q 739 1417 760 1424 q 711 1411 729 1414 q 486 1361 617 1397 q 456 1356 467 1356 m 975 1294 q 968 1265 976 1279 q 944 1244 960 1251 q 875 1229 918 1233 q 596 1193 704 1213 q 343 1136 457 1167 q 315 1110 319 1129 q 268 913 301 1040 q 222 731 235 785 q 188 565 215 697 q 188 551 185 554 q 201 551 192 547 q 496 667 447 647 q 516 676 506 671 q 539 686 526 681 q 558 696 551 692 q 581 706 575 703 q 636 688 617 715 q 635 629 657 658 q 572 582 613 600 q 465 538 526 561 q 189 431 279 464 q 161 396 163 421 q 175 150 149 244 q 200 89 183 119 q 343 -3 247 3 q 707 72 533 -12 q 790 164 774 104 q 801 186 793 178 q 821 198 810 194 q 846 199 832 201 q 886 151 883 193 q 857 54 889 100 q 794 -3 833 24 q 611 -79 719 -51 q 336 -111 450 -122 q 82 86 151 -93 q 49 329 44 183 q 49 371 49 331 q 39 367 42 369 q 33 358 36 364 q 29 351 31 353 q -9 328 18 333 q -58 333 -36 322 q -86 393 -94 350 q -54 435 -81 418 q 44 486 -12 461 q 68 517 64 494 q 85 608 75 560 q 102 693 94 656 q 124 785 110 731 q 145 870 138 840 q 169 963 153 900 q 190 1049 185 1025 q 199 1086 192 1051 q 186 1081 194 1085 q 174 1076 178 1078 q 164 1072 171 1075 q 153 1065 157 1068 q 144 1058 149 1063 q 136 1049 139 1054 q 99 1027 122 1029 q 58 1039 76 1025 q 40 1075 42 1053 q 51 1115 38 1097 q 83 1142 61 1128 q 174 1189 114 1161 q 199 1203 196 1200 q 222 1300 178 1265 q 279 1315 250 1322 q 321 1275 308 1307 q 335 1250 331 1253 q 361 1253 340 1247 q 826 1335 614 1315 q 907 1339 858 1338 q 935 1338 922 1340 q 963 1322 951 1333 q 975 1294 974 1311 z "},"ē":{"ha":451,"x_min":7,"x_max":444,"o":"m 135 189 q 125 188 133 189 q 133 154 124 176 q 267 53 171 74 q 335 68 306 44 q 364 86 351 82 q 412 74 392 93 q 425 26 432 54 q 385 -28 418 -6 q 232 -51 321 -72 q 70 49 132 -28 q 10 229 8 126 q 181 622 13 453 q 294 682 229 672 q 401 656 358 692 q 442 556 444 619 q 351 297 438 404 q 135 189 264 192 m 128 313 q 126 297 125 303 q 133 290 128 292 q 149 290 138 289 q 206 313 172 293 q 293 405 265 349 q 333 540 321 461 q 329 569 335 563 q 307 572 324 575 q 249 538 279 568 q 128 313 161 449 m 243 740 q 216 766 224 747 q 218 800 208 785 q 247 814 228 813 q 315 817 281 815 q 392 818 361 819 q 431 803 417 818 q 442 776 442 792 q 431 753 442 761 q 382 744 406 736 q 357 747 372 749 q 278 739 278 739 q 243 740 257 736 z "},"Ė":{"ha":860,"x_min":-97,"x_max":975,"o":"m 974 1294 q 974 1283 975 1289 q 969 1271 972 1276 q 963 1260 967 1265 q 954 1251 960 1256 q 943 1244 949 1247 q 874 1229 917 1233 q 594 1193 703 1213 q 342 1136 456 1165 q 314 1110 318 1129 q 267 913 300 1040 q 221 731 233 785 q 186 565 214 696 q 186 551 183 554 q 200 551 190 547 q 494 667 446 647 q 531 683 507 672 q 557 696 554 694 q 579 706 574 703 q 635 688 615 715 q 633 629 656 658 q 571 582 611 600 q 464 538 525 563 q 188 431 278 465 q 160 396 161 421 q 174 150 147 244 q 199 89 182 119 q 342 -3 246 3 q 706 72 532 -12 q 789 164 772 104 q 809 194 794 185 q 844 199 824 203 q 885 151 882 193 q 856 54 888 100 q 793 -3 832 24 q 610 -79 718 -51 q 335 -111 449 -122 q 81 86 150 -93 q 47 329 43 183 q 47 371 47 331 q 38 367 40 369 q 32 358 35 364 q 28 351 29 353 q -10 328 17 333 q -60 333 -37 322 q -87 393 -96 350 q -56 435 -82 418 q 43 486 -14 461 q 67 517 63 494 q 85 619 75 568 q 110 736 94 669 q 133 832 126 803 q 163 948 140 861 q 189 1049 186 1035 q 197 1086 190 1051 q 185 1081 193 1085 q 173 1076 176 1078 q 163 1072 169 1075 q 151 1065 156 1068 q 142 1058 147 1063 q 135 1049 138 1054 q 98 1027 121 1029 q 57 1039 75 1025 q 38 1075 40 1053 q 50 1115 36 1097 q 82 1142 60 1128 q 172 1189 113 1161 q 197 1203 194 1200 q 221 1300 176 1265 q 278 1315 249 1322 q 319 1275 307 1307 q 334 1250 329 1253 q 360 1253 339 1247 q 825 1335 613 1315 q 906 1339 858 1338 q 933 1338 921 1340 q 961 1322 950 1333 q 974 1294 972 1311 m 651 1403 q 640 1391 651 1403 q 594 1379 628 1379 q 538 1403 561 1379 q 514 1460 514 1426 q 538 1517 514 1493 q 594 1540 561 1540 q 651 1517 628 1540 q 675 1460 675 1493 q 651 1403 675 1426 z "},"ė":{"ha":451,"x_min":7,"x_max":444,"o":"m 364 86 q 412 74 392 93 q 425 26 432 54 q 385 -28 418 -6 q 232 -51 321 -72 q 70 49 132 -28 q 10 229 8 126 q 181 622 13 453 q 294 682 229 672 q 372 674 338 688 q 424 628 406 660 q 442 556 443 597 q 351 297 438 404 q 135 189 264 192 q 125 188 135 189 q 133 154 124 176 q 267 53 171 74 q 335 68 306 44 q 364 86 351 82 m 128 313 q 129 292 125 297 q 149 290 133 288 q 206 313 172 293 q 293 405 265 349 q 333 540 321 461 q 329 569 335 563 q 307 572 324 575 q 249 538 279 568 q 128 313 161 449 m 340 721 q 298 728 317 713 q 279 772 279 744 q 314 831 281 808 q 369 824 339 847 q 386 767 397 801 q 340 721 374 732 z "},"Ę":{"ha":911,"x_min":-97,"x_max":976,"o":"m 974 1275 q 967 1246 975 1260 q 943 1225 958 1232 q 874 1210 917 1214 q 594 1174 703 1193 q 342 1117 456 1147 q 314 1090 318 1110 q 286 969 303 1036 q 251 833 269 903 q 221 711 232 763 q 186 546 214 678 q 186 532 183 535 q 200 532 190 528 q 494 647 447 629 q 515 656 504 651 q 538 667 525 661 q 557 676 550 672 q 579 686 574 683 q 635 668 615 696 q 633 610 656 639 q 571 563 611 581 q 464 518 525 542 q 188 411 278 444 q 160 376 161 401 q 174 131 147 225 q 199 69 182 100 q 342 -22 246 -17 q 626 19 489 -29 q 646 51 633 36 q 772 172 694 115 q 800 188 786 182 q 864 175 842 201 q 869 167 867 172 q 885 132 883 154 q 856 35 888 81 q 793 -22 832 4 q 724 -60 761 -43 q 760 -90 733 -83 q 810 -78 790 -97 q 820 -67 814 -75 q 831 -56 826 -60 q 900 -44 861 -26 q 924 -68 918 -53 q 921 -100 931 -83 q 797 -179 879 -171 q 650 -131 707 -187 q 624 -96 635 -115 q 610 -99 610 -99 q 335 -131 449 -142 q 81 67 150 -112 q 47 310 43 164 q 47 351 47 311 q 38 347 40 350 q 32 339 35 344 q 28 332 29 333 q -10 308 17 314 q -60 314 -37 303 q -87 374 -96 331 q -56 415 -82 399 q 43 467 -14 442 q 67 497 63 475 q 85 599 75 549 q 110 717 94 650 q 133 813 126 783 q 163 929 140 842 q 189 1029 186 1017 q 197 1067 190 1032 q 185 1062 193 1065 q 173 1057 176 1058 q 163 1052 169 1056 q 151 1046 156 1049 q 142 1039 147 1043 q 135 1029 138 1035 q 98 1008 121 1010 q 57 1019 75 1006 q 38 1056 40 1033 q 50 1096 36 1078 q 82 1122 60 1108 q 172 1169 113 1142 q 197 1183 194 1181 q 221 1281 176 1246 q 278 1295 249 1303 q 319 1256 307 1288 q 334 1231 329 1233 q 360 1233 339 1228 q 825 1315 613 1296 q 906 1319 857 1318 q 933 1318 921 1321 q 947 1314 940 1317 q 957 1307 953 1311 q 965 1298 961 1303 q 971 1288 968 1293 q 974 1275 974 1282 z "},"ę":{"ha":451,"x_min":7,"x_max":443,"o":"m 418 -111 q 428 -142 436 -122 q 372 -186 408 -182 q 307 -160 332 -190 q 289 -118 289 -136 q 306 -58 290 -82 l 306 -57 q 232 -51 271 -61 q 70 49 132 -28 q 10 229 8 126 q 181 622 13 453 q 294 682 229 672 q 354 679 326 686 q 401 656 382 672 q 432 613 421 639 q 442 556 443 586 q 351 297 438 404 q 135 189 264 192 q 125 188 135 189 q 133 154 124 176 q 267 53 171 74 q 335 68 306 44 q 364 86 351 82 q 412 74 392 93 q 425 26 432 54 q 390 -24 418 -1 q 351 -72 374 -40 q 339 -106 340 -87 q 342 -124 336 -115 q 356 -136 347 -133 q 378 -131 369 -140 q 382 -124 379 -128 q 386 -118 385 -119 q 418 -111 400 -101 m 128 313 q 129 292 125 297 q 149 290 133 288 q 206 313 172 293 q 293 405 265 349 q 333 540 321 461 q 329 569 335 563 q 307 572 324 575 q 249 538 279 568 q 128 313 161 449 z "},"Ě":{"ha":888,"x_min":-107,"x_max":967,"o":"m 435 1536 q 433 1544 433 1540 q 442 1573 431 1561 q 475 1589 454 1585 q 502 1589 489 1592 q 525 1579 515 1586 q 539 1563 535 1572 q 563 1493 543 1551 q 574 1472 568 1479 q 650 1563 636 1546 q 651 1565 650 1563 q 654 1568 653 1567 q 719 1590 678 1601 q 743 1546 758 1581 q 733 1531 739 1538 q 625 1393 674 1447 q 601 1369 611 1376 q 548 1352 578 1351 q 499 1372 518 1353 q 481 1404 488 1383 q 435 1536 471 1429 m 964 1294 q 957 1265 965 1279 q 933 1244 949 1251 q 864 1229 907 1233 q 585 1193 693 1213 q 332 1136 446 1167 q 304 1110 308 1129 q 257 913 290 1040 q 211 731 224 785 q 176 565 203 694 q 176 551 174 554 q 190 551 181 547 q 485 667 438 649 q 501 674 492 669 q 516 681 510 678 q 531 688 522 683 q 547 696 540 693 q 569 706 564 703 q 625 688 606 715 q 624 629 646 658 q 561 582 601 600 q 454 538 515 561 q 178 431 268 464 q 150 396 151 421 q 164 150 138 244 q 189 89 172 119 q 332 -3 236 3 q 696 72 522 -12 q 779 164 763 104 q 799 194 785 185 q 835 199 814 203 q 875 151 872 193 q 846 54 878 100 q 783 -3 822 24 q 600 -79 708 -51 q 325 -111 439 -122 q 71 86 140 -93 q 38 329 33 183 q 38 371 38 331 q 28 367 31 369 q 22 358 25 364 q 18 351 19 353 q -20 328 7 333 q -69 333 -47 322 q -97 393 -106 350 q -65 435 -92 418 q 33 486 -24 461 q 57 517 53 494 q 75 619 65 568 q 101 736 85 669 q 124 832 117 803 q 153 949 131 861 q 179 1049 176 1036 q 188 1085 181 1051 q 175 1081 183 1085 q 163 1076 167 1078 q 153 1072 160 1075 q 142 1065 146 1068 q 133 1058 138 1063 q 125 1049 128 1054 q 88 1027 111 1029 q 47 1039 65 1025 q 28 1075 31 1053 q 40 1115 26 1097 q 72 1142 50 1128 q 163 1189 103 1161 q 188 1203 185 1200 q 211 1300 167 1265 q 268 1315 239 1322 q 310 1275 297 1307 q 324 1250 319 1253 q 350 1253 329 1247 q 815 1335 603 1315 q 896 1339 847 1338 q 924 1338 911 1340 q 951 1322 940 1333 q 964 1294 963 1311 z "},"ě":{"ha":451,"x_min":7,"x_max":444,"o":"m 364 86 q 412 74 392 93 q 425 26 432 54 q 385 -28 418 -6 q 232 -51 321 -72 q 70 49 132 -28 q 10 229 8 126 q 181 622 13 453 q 294 682 229 672 q 372 674 338 688 q 424 628 406 660 q 442 556 443 597 q 351 297 438 404 q 135 189 264 192 q 125 188 135 189 q 133 154 124 176 q 267 53 171 74 q 335 68 306 44 q 364 86 351 82 m 128 313 q 129 292 125 297 q 149 290 133 288 q 206 313 172 293 q 293 405 265 349 q 333 540 321 461 q 329 569 335 563 q 307 572 324 575 q 249 538 279 568 q 128 313 161 449 m 251 757 q 239 843 249 772 q 239 849 239 846 q 269 871 240 871 q 292 865 282 871 q 304 847 301 858 q 311 803 306 840 q 315 788 313 793 q 371 835 361 826 q 372 837 371 836 q 374 839 374 838 q 415 844 392 856 q 425 815 439 835 q 418 806 421 810 q 336 733 372 761 q 319 721 326 725 q 285 716 303 713 q 258 735 268 719 q 251 757 253 743 z "},"Ğ":{"ha":757,"x_min":0,"x_max":849,"o":"m 558 1379 q 496 1401 525 1379 q 456 1457 467 1424 q 456 1521 446 1483 q 474 1540 460 1533 q 501 1536 489 1547 q 510 1508 515 1524 q 517 1461 500 1481 q 568 1443 539 1439 q 600 1457 589 1446 q 615 1490 611 1468 q 618 1503 618 1501 q 650 1525 626 1528 q 668 1515 661 1524 q 676 1496 675 1507 q 675 1481 676 1490 q 636 1406 667 1433 q 558 1379 606 1379 m 838 706 q 824 651 849 676 q 776 629 806 635 q 726 622 733 622 q 712 621 719 622 q 699 617 704 619 q 686 611 693 615 q 675 605 679 607 q 663 597 671 603 q 653 589 656 590 q 640 561 644 583 q 607 140 599 339 q 635 -146 614 -28 q 658 -222 643 -194 q 665 -260 668 -242 q 644 -289 661 -278 q 576 -286 611 -315 q 543 -231 554 -268 q 515 -86 526 -176 q 496 203 497 76 q 494 215 496 204 q 474 181 488 210 q 390 31 432 90 q 314 -57 354 -24 q 256 -92 285 -81 q 100 -54 164 -128 q 40 58 63 -12 q 13 326 1 183 q 256 981 39 660 q 456 1213 349 1118 q 635 1324 542 1289 q 714 1339 682 1342 q 774 1306 753 1335 q 786 1239 796 1276 q 753 1201 779 1208 q 703 1218 718 1193 q 667 1226 692 1238 q 488 1093 572 1181 q 183 603 285 886 q 122 211 108 394 q 158 53 128 117 q 199 7 179 11 q 254 36 219 3 q 314 111 285 64 q 385 247 350 169 q 426 349 407 296 q 472 475 446 401 q 508 579 497 549 q 496 582 503 582 q 484 581 489 582 q 472 578 479 579 q 461 575 465 576 q 430 569 450 574 q 403 563 410 564 q 375 560 385 560 q 349 565 361 560 q 331 581 338 571 q 322 603 324 590 q 332 637 321 622 q 365 657 343 651 q 532 697 407 667 q 568 714 557 703 q 622 725 590 738 q 663 722 639 718 q 764 738 710 729 q 793 739 779 739 q 838 706 826 738 z "},"ğ":{"ha":533,"x_min":-89,"x_max":518,"o":"m 514 551 q 499 156 518 400 q 463 -193 481 -61 q 344 -674 422 -489 q 258 -836 304 -771 q 182 -918 219 -892 q 73 -947 128 -957 q -18 -882 18 -937 q -62 -753 -53 -831 q 7 -343 -89 -543 q 82 -219 36 -282 q 100 -199 92 -206 q 157 -193 126 -174 q 178 -247 189 -212 q 158 -293 171 -268 q 135 -334 151 -306 q 111 -378 119 -362 q 50 -762 17 -564 q 67 -812 54 -790 q 93 -839 81 -836 q 126 -825 106 -842 q 174 -767 149 -804 q 257 -600 218 -700 q 343 -264 311 -462 q 394 224 371 -86 q 394 251 394 225 q 392 251 393 251 q 389 251 390 251 q 356 158 357 164 q 288 32 324 79 q 232 -21 261 -3 q 145 -41 189 -49 q 69 7 101 -33 q 18 149 28 61 q 69 454 3 289 q 183 643 115 567 q 331 747 251 721 q 428 757 383 765 q 479 735 458 751 q 510 672 517 707 q 507 632 507 646 q 510 592 507 618 q 514 551 513 565 m 275 257 q 315 383 294 313 q 358 526 336 453 q 396 653 379 600 q 369 650 389 657 q 267 574 318 631 q 171 414 211 513 q 125 181 119 288 q 147 88 128 122 q 165 69 157 71 q 186 81 172 68 q 222 131 204 97 q 275 257 249 178 m 378 804 q 330 819 353 804 q 299 858 307 835 q 299 903 292 876 q 313 915 301 911 q 335 913 324 921 q 340 894 344 904 q 346 861 332 874 q 385 849 363 846 q 422 882 415 853 q 425 890 424 889 q 449 905 431 907 q 468 885 467 903 q 468 875 469 881 q 438 823 461 842 q 378 804 414 804 z "}}}
